<?xml version="1.0" encoding="iso-8859-1"?>
<!-- Generator: Adobe Illustrator 17.1.0, SVG Export Plug-In . SVG Version: 6.00 Build 0)  -->
<!DOCTYPE svg PUBLIC "-//W3C//DTD SVG 1.1//EN" "http://www.w3.org/Graphics/SVG/1.1/DTD/svg11.dtd">
<svg version="1.1" id="Capa_1" xmlns="http://www.w3.org/2000/svg" xmlns:xlink="http://www.w3.org/1999/xlink" x="0px" y="0px"
	 viewBox="0 0 209.972 209.972" style="enable-background:new 0 0 209.972 209.972;" xml:space="preserve">
<path d="M165.729,37.494v23.594c0,1.567-0.915,2.989-2.341,3.64c-0.219,0.1-5.447,2.447-12.459,2.447
	c-5.903,0-11.327-1.605-16.122-4.771c-3.925-2.592-5.553-3.368-6.214-3.592c-0.086,0.059-0.176,0.121-0.254,0.175
	c-1.131,0.786-2.84,1.972-6.003,2.644c-0.718,0.152-1.458,0.229-2.201,0.229c-7.944,0-14.653-8.67-18.258-13.328
	c-0.034-0.044-0.068-0.088-0.102-0.131c-1.461,1.379-3.69,4.711-3.914,8.857c-0.373,6.906-10.811,10.407-31.023,10.407
	c-18.483,0-20.486-3.004-21.24-4.135c-2.056-3.083-1.369-7.365-0.573-12.323c0.558-3.478,1.19-7.42,0.823-10.813
	c-0.331-3.057-0.415-6.239-0.251-9.457c0.281-5.541,5.146-9.825,10.815-9.285c2.989,0.282,5.933,0.425,8.75,0.425
	c8.268,0,14.978-1.251,19.405-3.617c5.021-2.684,7.301-6.101,9.506-9.405C96.907,4.812,100.118,0,108.257,0
	c0.267,0,0.538,0.005,0.817,0.016c19.968,0.754,22.949,12.542,22.949,19.502c0,3.736-0.115,6.518-0.277,8.583h24.59
	c0.11,0,0.222,0.004,0.332,0.014C160.31,28.418,165.729,31.167,165.729,37.494z M156.668,99.268
	c-0.11-0.009-0.221-0.014-0.332-0.014h-24.59c0.162-2.066,0.277-4.848,0.277-8.583c0-6.96-2.981-18.749-22.948-19.501
	c-0.28-0.011-0.552-0.016-0.819-0.016c-8.139,0-11.35,4.812-14.183,9.057c-2.205,3.304-4.485,6.721-9.506,9.404
	c-4.427,2.366-11.137,3.617-19.405,3.617c-2.817,0-5.76-0.143-8.75-0.425c-5.669-0.537-10.534,3.744-10.815,9.285
	c-0.164,3.218-0.079,6.4,0.251,9.457c0.367,3.393-0.266,7.335-0.823,10.813c-0.795,4.958-1.482,9.24,0.573,12.323
	c0.754,1.131,2.756,4.135,21.24,4.135c20.212,0,30.65-3.501,31.023-10.407c0.224-4.146,2.453-7.478,3.914-8.858
	c0.033,0.043,0.067,0.087,0.102,0.131c3.604,4.658,10.313,13.328,18.258,13.328c0.743,0,1.483-0.077,2.201-0.229
	c3.163-0.671,4.872-1.858,6.003-2.644c0.078-0.054,0.168-0.117,0.254-0.175c0.661,0.224,2.289,1,6.214,3.592
	c4.795,3.167,10.219,4.772,16.122,4.771c7.012,0,12.24-2.348,12.459-2.447c1.426-0.65,2.341-2.073,2.341-3.64v-23.594
	C165.729,102.32,160.31,99.571,156.668,99.268z M156.668,170.42c-0.11-0.009-0.221-0.014-0.332-0.014h-24.59
	c0.162-2.066,0.277-4.848,0.277-8.583c0-6.96-2.981-18.749-22.948-19.501c-0.28-0.011-0.552-0.016-0.819-0.016
	c-8.139,0-11.35,4.812-14.183,9.057c-2.205,3.304-4.485,6.721-9.506,9.404c-4.427,2.366-11.137,3.617-19.405,3.617
	c-2.817,0-5.76-0.143-8.75-0.425c-5.669-0.535-10.534,3.745-10.815,9.285c-0.164,3.218-0.079,6.4,0.251,9.457
	c0.367,3.393-0.266,7.335-0.823,10.813c-0.795,4.958-1.482,9.24,0.573,12.323c0.754,1.131,2.756,4.135,21.24,4.135
	c20.212,0,30.65-3.501,31.023-10.407c0.224-4.146,2.453-7.478,3.914-8.857c0.034,0.043,0.067,0.086,0.102,0.131
	c3.604,4.658,10.313,13.328,18.258,13.328c0.743,0,1.483-0.077,2.201-0.229c3.163-0.671,4.872-1.858,6.003-2.644
	c0.078-0.054,0.168-0.117,0.254-0.175c0.661,0.224,2.289,1,6.214,3.592c4.795,3.167,10.219,4.772,16.122,4.771
	c7.012,0,12.24-2.348,12.459-2.447c1.426-0.65,2.341-2.073,2.341-3.64V179.8C165.729,173.473,160.31,170.724,156.668,170.42z"/>
<g>
</g>
<g>
</g>
<g>
</g>
<g>
</g>
<g>
</g>
<g>
</g>
<g>
</g>
<g>
</g>
<g>
</g>
<g>
</g>
<g>
</g>
<g>
</g>
<g>
</g>
<g>
</g>
<g>
</g>
</svg>
