<?xml version="1.0" encoding="iso-8859-1"?>
<!-- Generator: Adobe Illustrator 17.1.0, SVG Export Plug-In . SVG Version: 6.00 Build 0)  -->
<!DOCTYPE svg PUBLIC "-//W3C//DTD SVG 1.1//EN" "http://www.w3.org/Graphics/SVG/1.1/DTD/svg11.dtd">
<svg version="1.1" id="Capa_1" xmlns="http://www.w3.org/2000/svg" xmlns:xlink="http://www.w3.org/1999/xlink" x="0px" y="0px"
	 viewBox="0 0 190.514 190.514" style="enable-background:new 0 0 190.514 190.514;" xml:space="preserve">
<path d="M168.674,129.932v51.916c0,1.7-1.075,3.214-2.68,3.776c-0.571,0.2-14.311,4.891-42.7,4.891
	c-28.512,0-49.899-4.953-55.376-8.3c-1.828-1.117-4.645-1.256-9.313-1.487c-3.824-0.189-8.583-0.425-14.878-1.309
	c-5.897-0.828-9.597-2.589-11.641-5.543c-2.656-3.838-1.662-8.265-0.701-12.545c0.373-1.661,0.759-3.379,0.949-5.091
	c0.396-3.562-1.098-7.545-3.166-13.059c-2.38-6.348-5.343-14.249-6.854-25.375c-1.559-11.481,0.979-40.312,3.874-63.465
	c1.587-12.693,3.39-24.612,5.074-33.562c3.077-16.342,4.709-17.43,6.15-18.39C39.273,1.148,42.8,0,55.894,0
	c9.529,0,19.356,0.629,19.77,0.656c1.114,0.072,2.148,0.607,2.851,1.475c0.414,0.512,10.15,12.703,10.15,26.817
	c0,12.776-17.252,20.053-24.869,22.643c0.965,7.84,4.1,28.447,11.65,42.514c6.82,12.705,7.896,27.034,7.779,35.756
	c8.157-4.646,22.577-11.389,37.566-11.389c18.064,0,35.854,5.066,42.552,6.974c0.767,0.218,1.558,0.443,1.876,0.522
	C167.171,126.235,168.674,127.908,168.674,129.932z"/>
<g>
</g>
<g>
</g>
<g>
</g>
<g>
</g>
<g>
</g>
<g>
</g>
<g>
</g>
<g>
</g>
<g>
</g>
<g>
</g>
<g>
</g>
<g>
</g>
<g>
</g>
<g>
</g>
<g>
</g>
</svg>
