<?xml version="1.0" encoding="iso-8859-1"?>
<!-- Generator: Adobe Illustrator 17.1.0, SVG Export Plug-In . SVG Version: 6.00 Build 0)  -->
<!DOCTYPE svg PUBLIC "-//W3C//DTD SVG 1.1//EN" "http://www.w3.org/Graphics/SVG/1.1/DTD/svg11.dtd">
<svg version="1.1" id="Capa_1" xmlns="http://www.w3.org/2000/svg" xmlns:xlink="http://www.w3.org/1999/xlink" x="0px" y="0px"
	 viewBox="0 0 209.911 209.911" style="enable-background:new 0 0 209.911 209.911;" xml:space="preserve">
<path d="M177.712,94.575c2.301-3.378,5.434-9.077,7.469-17.218c3.098-12.391,3.745-29.778-18.941-54.454
	C145.775,0.643,109.436,0,105.36,0l-0.404,0.003L104.552,0c-4.076,0-40.416,0.643-60.881,22.903
	C20.985,47.579,21.632,64.967,24.73,77.357c2.035,8.141,5.169,13.84,7.469,17.218c-3.812,3.03-9.036,8.604-9.036,16.384
	c0,7.101,6.581,13.589,12.45,17.966v34.492c0,1.158,0.502,2.26,1.376,3.02l42.381,36.831c4.931,4.284,11.243,6.644,17.774,6.644
	h15.624c6.531,0,12.843-2.359,17.774-6.644l42.38-36.831c0.874-0.76,1.376-1.861,1.376-3.02v-34.492
	c5.87-4.377,12.451-10.865,12.451-17.966C186.749,103.179,181.524,97.605,177.712,94.575z M114.863,92.443
	c0.444-4.667,3.998-8.438,8.641-9.166c3.038-0.478,7.612-1.046,12.156-1.046c5.304,0,9.385,0.735,12.476,2.248
	c5.7,2.789,9.846,9.809,10.316,17.467c0.409,6.653-2.015,12.202-6.648,15.225c-3.624,2.363-8.126,3.612-13.023,3.612
	c-7.988,0-15.588-3.297-19.834-8.604C114.541,106.673,114.294,98.407,114.863,92.443z M102.148,121.193
	c1.558-1.535,4.059-1.535,5.616,0c1.194,1.178,11.671,11.767,11.671,20.814c0,8.903-9.211,12.177-14.082,12.664
	c-0.132,0.013-0.265,0.02-0.398,0.02s-0.266-0.007-0.398-0.02c-4.871-0.487-14.082-3.761-14.082-12.664
	C90.476,132.96,100.953,122.371,102.148,121.193z M51.107,101.946c0.47-7.658,4.616-14.678,10.316-17.467
	c3.091-1.513,7.172-2.248,12.476-2.248c4.544,0,9.119,0.568,12.156,1.046c4.643,0.729,8.197,4.498,8.642,9.166
	c0.568,5.965,0.32,14.229-4.084,19.735c-4.246,5.308-11.846,8.604-19.834,8.604h0c-4.896,0-9.4-1.249-13.023-3.612
	C53.122,114.148,50.698,108.6,51.107,101.946z M166.298,161.594l-41.004,35.635c-3.476,3.02-7.924,4.683-12.527,4.683H97.144
	c-4.603,0-9.051-1.663-12.526-4.683l-41.004-35.635v-27.538l0.152,0.096c0.638,0.401,1.376,0.614,2.13,0.614h11.031l-0.5,21.604
	c-0.295,2.644,1.411,6.378,18.45,15.384c12.72,6.725,22.663,7.729,27.457,7.728c1.193,0,2.077-0.061,2.622-0.114
	c0.545,0.054,1.428,0.114,2.622,0.114c4.795,0,14.738-1.004,27.457-7.728c17.039-9.006,18.745-12.74,18.45-15.383l-0.5-21.605
	h11.031c0.754,0,1.493-0.213,2.13-0.614l0.152-0.096V161.594z"/>
<g>
</g>
<g>
</g>
<g>
</g>
<g>
</g>
<g>
</g>
<g>
</g>
<g>
</g>
<g>
</g>
<g>
</g>
<g>
</g>
<g>
</g>
<g>
</g>
<g>
</g>
<g>
</g>
<g>
</g>
</svg>
