<?xml version="1.0" encoding="iso-8859-1"?>
<!-- Generator: Adobe Illustrator 17.1.0, SVG Export Plug-In . SVG Version: 6.00 Build 0)  -->
<!DOCTYPE svg PUBLIC "-//W3C//DTD SVG 1.1//EN" "http://www.w3.org/Graphics/SVG/1.1/DTD/svg11.dtd">
<svg version="1.1" id="Capa_1" xmlns="http://www.w3.org/2000/svg" xmlns:xlink="http://www.w3.org/1999/xlink" x="0px" y="0px"
	 viewBox="0 0 194.334 194.334" style="enable-background:new 0 0 194.334 194.334;" xml:space="preserve">
<path d="M192.672,80.641c1.104-2.706,1.663-5.556,1.663-8.5c0-5.749-2.152-11.192-5.994-15.353c1.091-2.692,1.659-5.574,1.659-8.481
	c0-5.585-2.107-11.007-5.836-15.152c0.002-0.116,0.003-0.232,0.003-0.348c0-12.499-10.168-22.667-22.667-22.667
	c-2.541,0-5.023,0.422-7.409,1.257c-3.882-2.869-8.561-4.424-13.425-4.424c-4.33,0-8.458,1.2-12.07,3.491
	c-2.443-0.879-4.989-1.324-7.597-1.324c-3.775,0-7.44,0.926-10.726,2.697c-2.72-1.115-5.654-1.697-8.607-1.697
	c-4.342,0-8.563,1.252-12.188,3.575c-3.91-2.971-8.645-4.575-13.646-4.575c-3.361,0-6.647,0.741-9.655,2.163
	C62.171,8.063,57.238,6.308,52,6.308c-4.868,0-9.567,1.567-13.458,4.451c-1.716-0.411-3.461-0.618-5.209-0.618
	c-12.499,0-22.667,10.168-22.667,22.667c0,1.748,0.202,3.479,0.603,5.173c-5.685,4.243-9.103,10.94-9.103,18.161
	c0,4.33,1.239,8.525,3.542,12.137C2.044,72.394,0,77.697,0,83.308c0,6.162,2.486,11.962,6.804,16.187
	c-2.343,3.629-3.602,7.855-3.602,12.243c0,12.499,10.168,22.667,22.667,22.667s22.667-10.168,22.667-22.667
	c0-6.162-2.486-11.962-6.804-16.187c2.343-3.629,3.601-7.855,3.601-12.243c0-4.329-1.239-8.525-3.542-12.137
	c3.665-4.116,5.709-9.418,5.709-15.029c0-1.719-0.196-3.42-0.583-5.088c4.979,1.161,10.203,0.569,14.738-1.575
	c4.008,3.242,8.94,4.997,14.178,4.997c4.342,0,8.562-1.252,12.188-3.575c3.91,2.97,8.645,4.575,13.646,4.575
	c3.775,0,7.44-0.926,10.726-2.697c2.72,1.115,5.654,1.697,8.607,1.697c4.33,0,8.458-1.2,12.069-3.49
	c3.803,1.368,7.952,1.679,11.88,0.914c0.701,4.399,2.68,8.48,5.711,11.763c-1.091,2.692-1.659,5.574-1.659,8.481
	c0,2.944,0.558,5.794,1.663,8.5c-1.104,2.705-1.663,5.556-1.663,8.5c0,2.569,0.432,5.082,1.288,7.497
	c-1.939,3.403-2.955,7.223-2.955,11.17c0,1.036,0.071,2.067,0.211,3.088c-1.472,0.678-2.871,1.513-4.168,2.489
	c-1.662-0.383-3.351-0.577-5.043-0.577c-8.968,0-16.924,5.191-20.585,13.172c-9.443,1.267-16.749,9.377-16.749,19.162
	c0,1.041,0.083,2.075,0.247,3.094c-3.219,3.228-5.081,7.636-5.081,12.239c0,4.014,1.388,7.858,3.884,10.924
	c-0.439,1.292-0.665,2.656-0.665,4.045c0,6.938,5.645,12.583,12.583,12.583s12.583-5.645,12.583-12.583
	c0-0.518-0.031-1.031-0.094-1.54c3.764-3.072,6.097-7.613,6.352-12.529c1.511-0.975,2.877-2.155,4.062-3.507
	c6.11,0.965,12.255-0.647,17.091-4.302c1.661,0.383,3.348,0.576,5.04,0.576c9.431,0,17.748-5.808,21.099-14.425
	c5.97-1.394,10.436-6.767,10.436-13.146c0-1.601-0.279-3.168-0.82-4.644c3.212-3.995,4.952-8.91,4.952-14.118
	c0-2.569-0.433-5.082-1.288-7.497c1.939-3.403,2.955-7.223,2.955-11.169C194.334,86.197,193.776,83.346,192.672,80.641z"/>
<g>
</g>
<g>
</g>
<g>
</g>
<g>
</g>
<g>
</g>
<g>
</g>
<g>
</g>
<g>
</g>
<g>
</g>
<g>
</g>
<g>
</g>
<g>
</g>
<g>
</g>
<g>
</g>
<g>
</g>
</svg>
