<?xml version="1.0" encoding="iso-8859-1"?>
<!-- Generator: Adobe Illustrator 17.1.0, SVG Export Plug-In . SVG Version: 6.00 Build 0)  -->
<!DOCTYPE svg PUBLIC "-//W3C//DTD SVG 1.1//EN" "http://www.w3.org/Graphics/SVG/1.1/DTD/svg11.dtd">
<svg version="1.1" id="Capa_1" xmlns="http://www.w3.org/2000/svg" xmlns:xlink="http://www.w3.org/1999/xlink" x="0px" y="0px"
	 viewBox="0 0 167.428 167.428" style="enable-background:new 0 0 167.428 167.428;" xml:space="preserve">
<path d="M166.738,41.675C166.738,20.965,152.345,0,124.834,0c-13.83,0-24.821,2.137-31.606,3.929
	c-6.213,1.641-12.816,1.641-19.029,0C67.415,2.137,56.423,0,42.594,0C15.083,0,0.689,20.965,0.689,41.675
	c0,15.979,10.033,27.469,14.055,31.432c-0.534,5.995-1.443,24.051,3.974,46.686c4.257,17.79,13.618,47.635,28.47,47.635
	c8.924,0,12.459-14.381,16.553-31.033c1.686-6.857,3.429-13.948,5.201-17.64c0.419-0.873,0.909-1.73,1.455-2.548
	c2.937-4.394,7.915-7.017,13.317-7.017c5.402,0,10.381,2.623,13.317,7.016c0.546,0.818,1.036,1.675,1.455,2.548
	c1.772,3.692,3.515,10.783,5.201,17.641c4.094,16.652,7.629,31.033,16.553,31.033c14.853,0,24.213-29.845,28.471-47.635
	c5.417-22.634,4.507-40.69,3.973-46.686C156.706,69.144,166.738,57.654,166.738,41.675z M107.947,38.605
	c1.675,1.44,1.865,3.966,0.424,5.641c-0.791,0.92-1.909,1.392-3.034,1.392c-0.923,0-1.852-0.318-2.606-0.968
	c-6.779-5.831-13.276-9.971-19.017-12.91c-5.741,2.939-12.238,7.079-19.016,12.91c-0.755,0.65-1.683,0.968-2.606,0.968
	c-1.125,0-2.243-0.472-3.034-1.392c-1.441-1.675-1.251-4.2,0.424-5.641c5.205-4.477,10.256-8.04,14.986-10.88
	c-7.616-2.751-12.497-3.088-12.593-3.093c-2.199-0.126-3.89-2.008-3.772-4.208c0.119-2.201,2-3.886,4.187-3.781
	c0.553,0.028,9.115,0.553,21.425,6.196c12.31-5.643,20.872-6.168,21.425-6.196c2.213-0.105,4.085,1.589,4.195,3.795
	c0.11,2.202-1.582,4.077-3.782,4.194c-0.141,0.009-5.012,0.355-12.591,3.093C97.691,30.564,102.742,34.128,107.947,38.605z"/>
<g>
</g>
<g>
</g>
<g>
</g>
<g>
</g>
<g>
</g>
<g>
</g>
<g>
</g>
<g>
</g>
<g>
</g>
<g>
</g>
<g>
</g>
<g>
</g>
<g>
</g>
<g>
</g>
<g>
</g>
</svg>
