<?xml version="1.0" encoding="iso-8859-1"?>
<!-- Generator: Adobe Illustrator 17.1.0, SVG Export Plug-In . SVG Version: 6.00 Build 0)  -->
<!DOCTYPE svg PUBLIC "-//W3C//DTD SVG 1.1//EN" "http://www.w3.org/Graphics/SVG/1.1/DTD/svg11.dtd">
<svg version="1.1" id="Capa_1" xmlns="http://www.w3.org/2000/svg" xmlns:xlink="http://www.w3.org/1999/xlink" x="0px" y="0px"
	 viewBox="0 0 214.508 214.508" style="enable-background:new 0 0 214.508 214.508;" xml:space="preserve">
<path d="M180.513,161.929c-2.103-14.415-11.092-21.574-19.022-27.89c-6.35-5.056-11.833-9.423-13.311-16.816
	c-1.466-7.331-2.531-19.612-3.659-32.614c-1.784-20.567-3.807-43.879-8.154-58.726C129.001,0.726,109.736,0,107.564,0
	c-0.125,0-0.229,0.001-0.311,0.003C107.172,0.001,107.068,0,106.943,0c-2.172,0-21.436,0.726-28.801,25.882
	c-4.348,14.847-6.37,38.158-8.155,58.725c-1.128,13.003-2.194,25.284-3.659,32.616c-1.478,7.394-6.961,11.76-13.311,16.817
	c-7.931,6.316-16.92,13.475-19.022,27.89c-3.971,27.23,11.818,32.709,19.443,35.356c1.712,0.594,3.645,0.871,6.084,0.871
	c1.249,0,2.529-0.07,3.767-0.137c1.236-0.067,2.514-0.137,3.756-0.137c0.456,0,0.903,0.012,1.344,0.033
	c-1.286-2.482-2.971-4.886-5.149-6.569c-6.733-5.203-14.201-5.051-14.275-5.042c-2.215,0.093-4.071-1.623-4.163-3.83
	s1.623-4.071,3.83-4.163c0.415-0.02,10.374-0.346,19.5,6.706c6.231,4.815,9.373,13.042,10.787,18.064
	c9.097,10.876,24.983,11.428,28.075,11.428l0.259-0.003l0.259,0.003c3.093,0,18.977-0.552,28.076-11.427
	c1.414-5.022,4.556-13.25,10.789-18.065c9.123-7.051,19.074-6.723,19.5-6.706c2.207,0.092,3.922,1.956,3.829,4.163
	c-0.092,2.208-1.94,3.919-4.163,3.83c-0.044,0.001-7.534-0.167-14.274,5.042c-2.178,1.683-3.863,4.087-5.149,6.569
	c0.441-0.021,0.888-0.033,1.344-0.033c1.242,0,2.521,0.069,3.756,0.137c1.238,0.067,2.518,0.137,3.767,0.137c0,0,0,0,0.001,0
	c2.438,0,4.371-0.277,6.121-0.884C168.696,194.638,184.484,189.159,180.513,161.929z M97.607,35.425
	c-0.069,0.323-6.938,32.663-7.914,60.303c-1.014,28.715-7.678,45.344-7.961,46.038c-0.633,1.55-2.127,2.489-3.705,2.489
	c-0.503,0-1.015-0.096-1.51-0.298c-2.045-0.834-3.026-3.169-2.191-5.215c0.062-0.153,6.414-16.134,7.373-43.296
	c1.001-28.359,7.797-60.349,8.086-61.697c0.462-2.161,2.588-3.535,4.749-3.073C96.694,31.139,98.07,33.265,97.607,35.425z"/>
<g>
</g>
<g>
</g>
<g>
</g>
<g>
</g>
<g>
</g>
<g>
</g>
<g>
</g>
<g>
</g>
<g>
</g>
<g>
</g>
<g>
</g>
<g>
</g>
<g>
</g>
<g>
</g>
<g>
</g>
</svg>
