<?xml version="1.0" encoding="iso-8859-1"?>
<!-- Generator: Adobe Illustrator 17.1.0, SVG Export Plug-In . SVG Version: 6.00 Build 0)  -->
<!DOCTYPE svg PUBLIC "-//W3C//DTD SVG 1.1//EN" "http://www.w3.org/Graphics/SVG/1.1/DTD/svg11.dtd">
<svg version="1.1" id="Capa_1" xmlns="http://www.w3.org/2000/svg" xmlns:xlink="http://www.w3.org/1999/xlink" x="0px" y="0px"
	 viewBox="0 0 201.968 201.968" style="enable-background:new 0 0 201.968 201.968;" xml:space="preserve">
<path d="M201.968,99.097c0,27.322-44.357,48.724-100.984,48.724C44.357,147.821,0,126.419,0,99.097
	c0-20.019,23.432-37.212,61.152-44.87c1.667-0.341,3.37,0.416,4.238,1.882c0.868,1.466,0.712,3.32-0.387,4.621
	c-7.181,8.493-11.135,19.277-11.135,30.367c0,25.98,21.136,47.117,47.117,47.117c25.98,0,47.116-21.136,47.116-47.117
	c0-11.089-3.955-21.874-11.135-30.367c-1.1-1.301-1.255-3.155-0.387-4.621c0.868-1.466,2.565-2.223,4.238-1.882
	C178.536,61.885,201.968,79.078,201.968,99.097z M134.929,87.682c-0.125-1.246-0.824-2.361-1.892-3.014
	c-1.066-0.653-2.379-0.769-3.544-0.315c-1.265,0.494-2.578,0.745-3.903,0.745c-5.93,0-10.754-4.824-10.754-10.754
	c0-2.701,1.02-5.29,2.871-7.29c0.848-0.917,1.22-2.177,1.004-3.407c-0.215-1.23-0.993-2.289-2.102-2.863
	c-4.809-2.487-10.211-3.802-15.625-3.802c-18.812,0-34.117,15.305-34.117,34.116c0,18.812,15.305,34.117,34.117,34.117
	c18.812,0,34.116-15.305,34.116-34.117C135.101,89.972,135.043,88.823,134.929,87.682z"/>
<g>
</g>
<g>
</g>
<g>
</g>
<g>
</g>
<g>
</g>
<g>
</g>
<g>
</g>
<g>
</g>
<g>
</g>
<g>
</g>
<g>
</g>
<g>
</g>
<g>
</g>
<g>
</g>
<g>
</g>
</svg>
