<?xml version="1.0" encoding="iso-8859-1"?>
<!-- Generator: Adobe Illustrator 17.1.0, SVG Export Plug-In . SVG Version: 6.00 Build 0)  -->
<!DOCTYPE svg PUBLIC "-//W3C//DTD SVG 1.1//EN" "http://www.w3.org/Graphics/SVG/1.1/DTD/svg11.dtd">
<svg version="1.1" id="Capa_1" xmlns="http://www.w3.org/2000/svg" xmlns:xlink="http://www.w3.org/1999/xlink" x="0px" y="0px"
	 viewBox="0 0 206.5 206.5" style="enable-background:new 0 0 206.5 206.5;" xml:space="preserve">
<path d="M68.75,60.742V13.001c0-1.982,1.012-3.784,2.708-4.821C76.454,5.125,87.229,0,103.25,0s26.796,5.125,31.792,8.181
	c1.695,1.037,2.708,2.839,2.708,4.821v47.741c0,19.023-15.477,34.5-34.5,34.5S68.75,79.766,68.75,60.742z M161.525,66.506V202.5
	c0,2.209-1.791,4-4,4H48.975c-2.209,0-4-1.791-4-4V66.506c0-15.381,6.004-29.374,15.775-39.797v34.033
	c0,23.435,19.065,42.5,42.5,42.5s42.5-19.065,42.5-42.5V26.709C155.521,37.133,161.525,51.125,161.525,66.506z M74,149
	c0,2.209,1.791,4,4,4h50.5c2.209,0,4-1.791,4-4s-1.791-4-4-4H78C75.791,145,74,146.791,74,149z M140,167.75c0-2.209-1.791-4-4-4
	H70.5c-2.209,0-4,1.791-4,4s1.791,4,4,4H136C138.209,171.75,140,169.959,140,167.75z"/>
<g>
</g>
<g>
</g>
<g>
</g>
<g>
</g>
<g>
</g>
<g>
</g>
<g>
</g>
<g>
</g>
<g>
</g>
<g>
</g>
<g>
</g>
<g>
</g>
<g>
</g>
<g>
</g>
<g>
</g>
</svg>
