<?xml version="1.0" encoding="iso-8859-1"?>
<!-- Generator: Adobe Illustrator 17.1.0, SVG Export Plug-In . SVG Version: 6.00 Build 0)  -->
<!DOCTYPE svg PUBLIC "-//W3C//DTD SVG 1.1//EN" "http://www.w3.org/Graphics/SVG/1.1/DTD/svg11.dtd">
<svg version="1.1" id="Capa_1" xmlns="http://www.w3.org/2000/svg" xmlns:xlink="http://www.w3.org/1999/xlink" x="0px" y="0px"
	 viewBox="0 0 205.699 205.699" style="enable-background:new 0 0 205.699 205.699;" xml:space="preserve">
<path d="M50.364,50.829c3.575-2.087,8.17-0.88,10.257,2.7L72.98,74.719c2.087,3.577,0.878,8.17-2.7,10.257
	c-1.188,0.693-2.488,1.022-3.771,1.022c-2.58,0-5.092-1.332-6.485-3.723L47.664,61.086C45.577,57.509,46.786,52.916,50.364,50.829z
	 M38.772,46.897c1.482,1.803,3.631,2.736,5.797,2.736c1.677,0,3.363-0.559,4.76-1.707c3.199-2.63,3.66-7.356,1.029-10.557
	l-7.776-9.458c-2.63-3.199-7.357-3.662-10.557-1.029c-3.199,2.63-3.66,7.356-1.029,10.557L38.772,46.897z M100.074,35.831
	c-4.134,0.269-7.267,3.838-6.998,7.971l1.521,23.393c0.258,3.969,3.557,7.014,7.477,7.014c0.164,0,0.329-0.005,0.494-0.016
	c4.134-0.269,7.267-3.838,6.998-7.971l-1.521-23.393C107.776,38.694,104.17,35.56,100.074,35.831z M91.379,26.894
	c0.662,3.618,3.817,6.15,7.368,6.15c0.448,0,0.903-0.04,1.359-0.124c4.074-0.746,6.772-4.653,6.026-8.728l-2.473-13.504
	c-0.746-4.075-4.66-6.775-8.728-6.026c-4.074,0.746-6.772,4.653-6.026,8.728L91.379,26.894z M137.369,77.131
	c0.283,0.032,0.564,0.048,0.844,0.048c3.768,0,7.015-2.834,7.443-6.667l3.205-28.63c0.461-4.116-2.502-7.826-6.619-8.287
	c-4.105-0.468-7.827,2.502-8.287,6.619l-3.205,28.63C130.288,72.96,133.251,76.67,137.369,77.131z M133.616,23.778
	c0.337,3.907,3.612,6.854,7.463,6.854c0.217,0,0.435-0.009,0.654-0.028c4.127-0.356,7.184-3.99,6.826-8.117l-1.351-15.631
	c-0.355-4.127-3.993-7.196-8.117-6.826c-4.127,0.356-7.184,3.99-6.826,8.117L133.616,23.778z M160.341,112.584l-22.502,29.921
	c-0.118,0.157-0.248,0.302-0.377,0.448l-3.563,15.768c0.823,0.562,1.537,1.278,2.108,2.133c1.901,2.853,1.914,4.957,0.13,22.517
	c-0.346,3.404-0.776,7.643-0.781,8.622v6.206c0,4.143-3.357,7.5-7.5,7.5h-24.354H88.477c-2.951,0-5.628-1.73-6.839-4.421
	c-0.577-1.283-0.771-2.67-0.604-4.01c-0.123-3.287-1.883-18.172-3.593-31.287c-0.455-3.492,1.517-6.931,4.829-8.125
	c0.909-0.328,1.84-0.46,2.755-0.443l-0.711-3.642c-0.074-0.021-0.15-0.029-0.223-0.053l-38.086-12.202
	c-3.696-1.185-5.878-4.992-5.031-8.779l0.812-3.63c0.457-2.045,1.75-3.806,3.564-4.855s3.988-1.291,5.986-0.668l25.941,8.084
	L65.826,99.727c-1.304-3.634,0.365-7.664,3.856-9.313l2.865-1.354c1.907-0.903,4.11-0.958,6.063-0.152
	c1.953,0.806,3.476,2.396,4.193,4.383l11.702,32.353V85.575c0-4.143,3.357-7.5,7.5-7.5h2.705c4.143,0,7.5,3.357,7.5,7.5v33.778
	l13.17-35.051c0.766-2.039,2.381-3.645,4.424-4.398c2.043-0.754,4.313-0.582,6.221,0.47l2.173,1.199
	c3.264,1.801,4.709,5.726,3.394,9.213l-13.888,36.823l18.77-25.447c1.209-1.639,3.032-2.716,5.052-2.983
	c2.017-0.265,4.059,0.298,5.653,1.566l1.838,1.462C162.196,104.735,162.784,109.337,160.341,112.584z M178.954,66.416
	c-3.458-2.275-8.11-1.314-10.387,2.146l-11.46,17.429c-2.275,3.461-1.314,8.111,2.146,10.387c1.27,0.835,2.699,1.234,4.113,1.234
	c2.439,0,4.833-1.189,6.273-3.381l11.46-17.429C183.375,73.342,182.414,68.691,178.954,66.416z M191.023,36.19
	c-3.937-1.296-8.174,0.85-9.466,4.784l-4.529,13.785c-1.293,3.935,0.849,8.173,4.784,9.466c0.777,0.256,1.566,0.377,2.342,0.377
	c3.152,0,6.087-2.003,7.124-5.161l4.529-13.785C197.1,41.722,194.958,37.483,191.023,36.19z M23.256,93.831
	c-2.298-3.446-6.954-4.377-10.4-2.08c-3.446,2.298-4.378,6.954-2.08,10.4l15.511,23.265c1.445,2.168,3.823,3.341,6.247,3.341
	c1.43,0,2.875-0.408,4.153-1.261c3.446-2.298,4.378-6.954,2.08-10.4L23.256,93.831z"/>
<g>
</g>
<g>
</g>
<g>
</g>
<g>
</g>
<g>
</g>
<g>
</g>
<g>
</g>
<g>
</g>
<g>
</g>
<g>
</g>
<g>
</g>
<g>
</g>
<g>
</g>
<g>
</g>
<g>
</g>
</svg>
