<?xml version="1.0" encoding="iso-8859-1"?>
<!-- Generator: Adobe Illustrator 17.1.0, SVG Export Plug-In . SVG Version: 6.00 Build 0)  -->
<!DOCTYPE svg PUBLIC "-//W3C//DTD SVG 1.1//EN" "http://www.w3.org/Graphics/SVG/1.1/DTD/svg11.dtd">
<svg version="1.1" id="Capa_1" xmlns="http://www.w3.org/2000/svg" xmlns:xlink="http://www.w3.org/1999/xlink" x="0px" y="0px"
	 viewBox="0 0 181.303 181.303" style="enable-background:new 0 0 181.303 181.303;" xml:space="preserve">
<path d="M161.479,122.891c-5.295,0-10.273,2.063-14.018,5.807c-0.021,0.021-0.042,0.041-0.062,0.063l-38.108-38.108L147.4,52.543
	c0.021,0.021,0.042,0.042,0.062,0.063c3.745,3.744,8.723,5.807,14.018,5.807s10.273-2.063,14.017-5.807
	c3.744-3.744,5.806-8.722,5.806-14.017s-2.062-10.273-5.806-14.017c-3.498-3.498-8.078-5.525-12.99-5.771
	c-0.242-4.844-2.255-9.474-5.775-12.994C152.987,2.063,148.009,0,142.714,0s-10.273,2.063-14.017,5.807
	c-3.744,3.744-5.806,8.722-5.806,14.017s2.062,10.273,5.805,14.017c0.021,0.021,0.042,0.042,0.063,0.063L90.651,72.011
	L52.543,33.902c0.021-0.021,0.042-0.041,0.063-0.062c3.745-3.744,5.807-8.722,5.807-14.018c0-5.294-2.062-10.272-5.806-14.017
	C48.862,2.063,43.884,0,38.589,0S28.316,2.063,24.572,5.807c-3.521,3.521-5.534,8.149-5.775,12.994
	c-4.912,0.246-9.492,2.273-12.99,5.771C2.063,28.315,0,33.294,0,38.589s2.062,10.272,5.806,14.017s8.722,5.807,14.017,5.807
	s10.273-2.063,14.016-5.806c0.021-0.021,0.042-0.042,0.063-0.063l38.108,38.108L33.903,128.76c-0.021-0.021-0.042-0.042-0.062-0.063
	c-3.744-3.744-8.722-5.807-14.017-5.807s-10.273,2.063-14.017,5.807C2.063,132.44,0,137.419,0,142.714s2.062,10.273,5.806,14.017
	c3.499,3.499,8.079,5.526,12.99,5.771c0.242,4.845,2.255,9.474,5.776,12.994c3.744,3.744,8.722,5.807,14.017,5.807
	s10.273-2.063,14.017-5.807s5.806-8.722,5.806-14.017s-2.062-10.273-5.805-14.016c-0.021-0.021-0.042-0.042-0.064-0.063
	l38.108-38.109L128.76,147.4c-0.021,0.021-0.042,0.041-0.063,0.063c-3.744,3.743-5.806,8.722-5.806,14.017
	s2.062,10.272,5.806,14.017c3.744,3.744,8.722,5.807,14.017,5.807s10.273-2.063,14.018-5.807c3.521-3.521,5.534-8.149,5.775-12.994
	c4.911-0.245,9.492-2.272,12.989-5.771c3.744-3.743,5.806-8.722,5.806-14.017s-2.062-10.273-5.806-14.017
	C171.752,124.953,166.774,122.891,161.479,122.891z"/>
<g>
</g>
<g>
</g>
<g>
</g>
<g>
</g>
<g>
</g>
<g>
</g>
<g>
</g>
<g>
</g>
<g>
</g>
<g>
</g>
<g>
</g>
<g>
</g>
<g>
</g>
<g>
</g>
<g>
</g>
</svg>
