<?xml version="1.0" encoding="iso-8859-1"?>
<!-- Generator: Adobe Illustrator 17.1.0, SVG Export Plug-In . SVG Version: 6.00 Build 0)  -->
<!DOCTYPE svg PUBLIC "-//W3C//DTD SVG 1.1//EN" "http://www.w3.org/Graphics/SVG/1.1/DTD/svg11.dtd">
<svg version="1.1" id="Capa_1" xmlns="http://www.w3.org/2000/svg" xmlns:xlink="http://www.w3.org/1999/xlink" x="0px" y="0px"
	 viewBox="0 0 201.833 201.833" style="enable-background:new 0 0 201.833 201.833;" xml:space="preserve">
<path d="M178.512,94.637c-0.701-3.736-4.465-7.239-10.582-12.564c-2.476-2.155-6.218-5.414-6.802-6.664
	c-0.014-0.029-0.023-0.052-0.028-0.061c0.103-0.487,1.045-1.752,1.673-2.596c1.592-2.138,3.773-5.065,4.638-9.217
	c0.974-4.673-1.143-10.976-3.482-16.079l0.911,0.249c1.751,0.473,3.605-0.284,4.514-1.855c0.811-1.4,4.185-9.041-9.059-21.946
	C149.763,13.643,131.027,0,90.097,0C71.015,0,53.345,7.244,40.34,20.397C29.282,31.582,23.028,45.823,23.183,59.47
	c0.236,20.765,15.604,44.556,23.861,57.337c2.072,3.208,4.42,6.844,4.746,7.799c0.445,1.604-2.407,6.407-5.865,9.883
	c-0.969,0.969-1.375,2.366-1.075,3.703s1.264,2.428,2.553,2.891c0.144,0.052,14.483,5.355,23.249,22.612
	c9.729,19.154,25.438,36.148,26.102,36.862c0.769,0.827,1.835,1.276,2.93,1.276c0.399,0,0.802-0.06,1.195-0.183
	c1.471-0.461,2.546-1.726,2.764-3.252c0.025-0.175,0.62-4.362,1.249-10.972c0.315-3.307,1.675-5.314,3.398-7.856
	c1.005-1.484,2.145-3.166,3.102-5.199c1.176-2.499,1.846-5.53,2.555-8.739c0.791-3.578,1.686-7.628,3.188-9.573
	c0.31-0.226,2.308-1.374,10.873-1.374c4.959,0,10.466,0.367,15.325,0.692c1.786,0.119,3.463,0.23,4.962,0.314
	c5.466,0.304,8.513-1.866,10.091-3.675c4.263-4.884,3.191-12.739,2.482-17.938c-0.307-2.252,0.479-2.896,2.799-4.427
	c0.997-0.657,2.028-1.338,2.866-2.314c2.125-2.479,1.831-5.315-0.869-8.444c1.082-0.849,2.066-1.704,2.525-3.081
	c0.359-1.078,0.275-2.088,0.136-3.76c-0.134-1.605-0.354-4.24,0.091-5.885c0.491-0.441,1.911-1.161,2.785-1.604
	C174.334,102.976,179.577,100.318,178.512,94.637z M94.471,81.099c-11.543,0-20.528-1.149-20.617-1.161
	c-1.543-0.206-3.066,0.514-3.898,1.832c-0.832,1.317-0.823,2.997,0.022,4.306c0.105,0.164,10.543,16.631,7.802,39.686
	c-1.249,10.506-4.984,18.202-7.589,22.471l-1.667-1.931c2.415-5.073,6.385-16.86,2.195-33.899
	c-2.749-11.183-9.466-18.803-15.392-25.525c-5.686-6.45-10.596-12.021-12.076-19.843c-3.14-16.597,9.248-33.587,22.525-39.811
	c4.752-2.228,15.952-4.625,29.313-4.625c14.101,0,47.246,2.98,50.456,30.592c0.726,6.247-0.683,11.263-4.309,15.334
	C134.016,76.633,117.408,81.099,94.471,81.099z"/>
<g>
</g>
<g>
</g>
<g>
</g>
<g>
</g>
<g>
</g>
<g>
</g>
<g>
</g>
<g>
</g>
<g>
</g>
<g>
</g>
<g>
</g>
<g>
</g>
<g>
</g>
<g>
</g>
<g>
</g>
</svg>
