<?xml version="1.0" encoding="iso-8859-1"?>
<!-- Generator: Adobe Illustrator 17.1.0, SVG Export Plug-In . SVG Version: 6.00 Build 0)  -->
<!DOCTYPE svg PUBLIC "-//W3C//DTD SVG 1.1//EN" "http://www.w3.org/Graphics/SVG/1.1/DTD/svg11.dtd">
<svg version="1.1" id="Capa_1" xmlns="http://www.w3.org/2000/svg" xmlns:xlink="http://www.w3.org/1999/xlink" x="0px" y="0px"
	 viewBox="0 0 213.485 213.485" style="enable-background:new 0 0 213.485 213.485;" xml:space="preserve">
<path d="M213.476,86.779c-0.005,0.081-0.056,0.819-0.231,1.995c-2.921,21.747-13.64,44.973-34.97,44.973
	c-25.05,0-62.748-17.839-71.532-22.171c-8.784,4.332-46.482,22.171-71.532,22.171c-21.33,0-32.049-23.226-34.97-44.972
	c-0.176-1.177-0.227-1.915-0.232-1.996c-0.142-2.184,1.498-4.077,3.68-4.248c2.165-0.169,4.096,1.444,4.295,3.624
	c0.004,0.04,0.055,0.577,0.178,1.494c0.934,6.179,4.835,20.462,20.875,20.462c10.768,0,18.494-6.938,26.674-14.285
	c7.712-6.927,15.687-14.089,26.179-14.089c13.162,0,20.803,9.241,24.854,16.792c4.051-7.551,11.692-16.792,24.853-16.792
	c10.491,0,18.467,7.162,26.179,14.089c8.181,7.347,15.907,14.285,26.675,14.285c16.04,0,19.94-14.284,20.874-20.463
	c0.123-0.917,0.174-1.453,0.178-1.496c0.202-2.179,2.119-3.782,4.298-3.619C211.981,82.706,213.618,84.597,213.476,86.779z"/>
<g>
</g>
<g>
</g>
<g>
</g>
<g>
</g>
<g>
</g>
<g>
</g>
<g>
</g>
<g>
</g>
<g>
</g>
<g>
</g>
<g>
</g>
<g>
</g>
<g>
</g>
<g>
</g>
<g>
</g>
</svg>
