<?xml version="1.0" encoding="iso-8859-1"?>
<!-- Generator: Adobe Illustrator 17.1.0, SVG Export Plug-In . SVG Version: 6.00 Build 0)  -->
<!DOCTYPE svg PUBLIC "-//W3C//DTD SVG 1.1//EN" "http://www.w3.org/Graphics/SVG/1.1/DTD/svg11.dtd">
<svg version="1.1" id="Capa_1" xmlns="http://www.w3.org/2000/svg" xmlns:xlink="http://www.w3.org/1999/xlink" x="0px" y="0px"
	 viewBox="0 0 215.173 215.173" style="enable-background:new 0 0 215.173 215.173;" xml:space="preserve">
<path d="M215.173,60.357c0,32.195-26.192,58.387-58.388,58.387c-9.376,0-18.236-2.234-26.095-6.179
	c-1.114,1.556-2.373,3.062-3.783,4.473c-5.62,5.62-12.61,8.975-18.698,8.975c-1.38,0-2.685-0.171-3.899-0.506
	c-4.026,9.745-13.458,17.505-23.877,18.848l-0.091,0.012c-9.05,1.167-17.669,9.786-18.834,18.823l-0.013,0.098
	c-1.648,12.789-12.952,24.092-25.734,25.74c-9.037,1.165-17.657,9.784-18.821,18.821c-0.26,2.018-1.981,3.489-3.962,3.489
	c-0.17,0-0.343-0.011-0.516-0.033c-2.191-0.283-3.738-2.288-3.456-4.479c1.648-12.782,12.951-24.085,25.733-25.733
	c9.038-1.165,17.657-9.784,18.822-18.822l0.013-0.098c1.648-12.788,12.952-24.092,25.734-25.739l0.091-0.012
	c8.058-1.039,15.759-7.988,18.177-15.878c-4.156-6.613-1.399-17.378,7.03-25.808c1.001-1.001,2.048-1.927,3.123-2.779
	c-5.893-9.116-9.329-19.961-9.329-31.6c0-32.195,26.192-58.388,58.387-58.388C188.981,1.969,215.173,28.161,215.173,60.357z
	 M114.178,157.763c-3.726,0-7.941,1.991-11.276,5.326c-2.471,2.471-4.231,5.44-4.955,8.362c-0.285,1.148-0.384,2.262-0.341,3.326
	c-0.008,0.1-0.03,0.196-0.03,0.297c0,2.493-2.028,4.521-4.566,4.521c-6.904,0-12.521,5.617-12.521,12.566
	c0,2.493-2.028,4.521-4.521,4.521c-6.904,0-12.521,5.617-12.521,12.521c0,2.209,1.791,4,4,4s4-1.791,4-4
	c0-2.493,2.028-4.521,4.521-4.521c6.904,0,12.521-5.617,12.521-12.566c0-2.493,2.028-4.521,4.566-4.521
	c4.141,0,7.809-2.03,10.089-5.137c0.927,0.307,1.93,0.474,3,0.474c3.726,0,7.941-1.991,11.276-5.326
	c2.471-2.471,4.23-5.44,4.955-8.362c0.889-3.587,0.148-6.896-2.034-9.077C118.767,158.594,116.636,157.763,114.178,157.763z
	 M20.62,135.524c10.309-0.869,19.065-9.625,19.941-20.013c0.498-5.906,5.589-11.346,11.476-12.469
	c1.618,0.996,3.55,1.521,5.703,1.521c4.746,0,10.158-2.58,14.479-6.901c7.271-7.271,9.041-16.894,4.028-21.907
	c-1.879-1.879-4.447-2.872-7.426-2.872c-4.746,0-10.159,2.58-14.479,6.901c-3.216,3.215-5.501,7.06-6.435,10.825
	c-0.467,1.885-0.554,3.692-0.321,5.359c-8.038,2.756-14.272,10.274-15.003,18.949c-0.533,6.316-6.318,12.102-12.635,12.635
	c-10.31,0.869-19.065,9.625-19.934,19.934c-0.186,2.202,1.449,4.136,3.65,4.322c0.115,0.01,0.228,0.014,0.34,0.014
	c2.057,0,3.806-1.577,3.981-3.664C8.518,141.842,14.304,136.056,20.62,135.524z"/>
<g>
</g>
<g>
</g>
<g>
</g>
<g>
</g>
<g>
</g>
<g>
</g>
<g>
</g>
<g>
</g>
<g>
</g>
<g>
</g>
<g>
</g>
<g>
</g>
<g>
</g>
<g>
</g>
<g>
</g>
</svg>
