<?xml version="1.0" encoding="iso-8859-1"?>
<!-- Generator: Adobe Illustrator 17.1.0, SVG Export Plug-In . SVG Version: 6.00 Build 0)  -->
<!DOCTYPE svg PUBLIC "-//W3C//DTD SVG 1.1//EN" "http://www.w3.org/Graphics/SVG/1.1/DTD/svg11.dtd">
<svg version="1.1" id="Capa_1" xmlns="http://www.w3.org/2000/svg" xmlns:xlink="http://www.w3.org/1999/xlink" x="0px" y="0px"
	 viewBox="0 0 193.537 193.537" style="enable-background:new 0 0 193.537 193.537;" xml:space="preserve">
<path d="M162.375,150.603c-0.75,0.632-1.665,0.94-2.574,0.94c-1.139,0-2.271-0.484-3.062-1.424l-10.484-12.453
	c-4.571,4.156-10.341,8.292-17.493,11.687l5.981,14.49c0.843,2.042-0.129,4.381-2.171,5.224c-0.5,0.206-1.017,0.304-1.525,0.304
	c-1.571,0-3.062-0.932-3.699-2.475l-5.984-14.497c-7.313,2.561-15.822,4.297-25.661,4.673v15.486c0,2.209-1.791,4-4,4s-4-1.791-4-4
	v-15.486c-8.969-0.343-16.819-1.825-23.679-4.024l-5.716,13.848c-0.637,1.543-2.127,2.475-3.699,2.475
	c-0.509,0-1.025-0.098-1.525-0.304c-2.042-0.843-3.014-3.182-2.171-5.224l5.623-13.623c-7.36-3.242-13.327-7.286-18.095-11.414
	l-9.524,11.313c-0.791,0.939-1.923,1.424-3.062,1.424c-0.91,0-1.824-0.309-2.574-0.94c-1.69-1.423-1.907-3.946-0.484-5.636
	l9.884-11.74c-7.161-7.786-10.215-14.626-10.5-15.289c-0.872-2.029,0.066-4.382,2.096-5.254c2.029-0.874,4.382,0.066,5.254,2.096
	c0.271,0.62,3.386,7.491,10.852,14.929c0.103,0.071,0.212,0.129,0.31,0.211c0.263,0.222,0.478,0.477,0.669,0.744
	c5.142,4.902,12.19,9.936,21.57,13.515c0.126,0.038,0.253,0.062,0.378,0.113c0.05,0.021,0.092,0.053,0.141,0.076
	c7.766,2.894,17.092,4.794,28.251,4.794c46.854,0,62.023-34.04,62.17-34.384c0.872-2.029,3.226-2.971,5.254-2.096
	c2.03,0.872,2.968,3.225,2.096,5.254c-0.269,0.626-3.011,6.76-9.34,13.994l10.974,13.035
	C164.282,146.657,164.065,149.18,162.375,150.603z M192.262,71.155c-4.123-4.533-50.434-54.178-100.455-54.178
	c-3.447,0-6.878,0.242-10.2,0.72C53.36,21.76,28.936,29.234,12.835,38.742C0.643,45.941-3.615,61.813,3.343,74.123
	c3.199,5.659,9.229,9.176,15.735,9.176h0c3.642,0,7.161-1.095,10.175-3.164C45.7,68.841,72.871,55.324,93.663,52.334
	c2.088-0.3,4.411-0.452,6.904-0.452c32.703,0,86.687,25.554,87.228,25.812c0.566,0.271,1.158,0.375,1.765,0.39
	c2.198-0.013,3.977-1.799,3.977-4C193.537,72.926,193.046,71.885,192.262,71.155z"/>
<g>
</g>
<g>
</g>
<g>
</g>
<g>
</g>
<g>
</g>
<g>
</g>
<g>
</g>
<g>
</g>
<g>
</g>
<g>
</g>
<g>
</g>
<g>
</g>
<g>
</g>
<g>
</g>
<g>
</g>
</svg>
