<?xml version="1.0" encoding="iso-8859-1"?>
<!-- Generator: Adobe Illustrator 17.1.0, SVG Export Plug-In . SVG Version: 6.00 Build 0)  -->
<!DOCTYPE svg PUBLIC "-//W3C//DTD SVG 1.1//EN" "http://www.w3.org/Graphics/SVG/1.1/DTD/svg11.dtd">
<svg version="1.1" id="Capa_1" xmlns="http://www.w3.org/2000/svg" xmlns:xlink="http://www.w3.org/1999/xlink" x="0px" y="0px"
	 viewBox="0 0 200.048 200.048" style="enable-background:new 0 0 200.048 200.048;" xml:space="preserve">
<path d="M186.923,95.299c-5.69-32.188-18.118-44.765-30.699-53.562c-3.797-2.654-7.646-4.416-11.368-6.118
	c-8.358-3.825-15.576-7.127-21.589-19.734C118.523,5.938,110.677,0,102.279,0c-4.281,0-8.202,1.638-11.04,4.611
	c-3.112,3.262-4.691,7.943-4.447,13.183c0.403,8.617,4.594,16.763,8.646,24.642c4.189,8.145,8.146,15.838,7.62,23.16
	c-1.012,14.055-7.927,23.023-21.703,40.892l-2.2,2.855c-3.509,4.56-7.204,8.152-11.005,10.987c-0.022,0.015-0.047,0.026-0.069,0.042
	c-11.986,8.617-25.155,9.722-35.289,9.722c-3.983,0-7.429,0.965-10.289,2.826c-3.791,2.166-6.632,5.802-8.378,10.833
	c-2.239,6.45-2.237,13.76-2.236,18.597v0.297c0,13.367,7.221,21.034,19.812,21.034c7.902,0,13.069-3.233,16.187-6.284
	c0.002-0.002,0.005-0.004,0.007-0.006c2.505,3.355,6.526,7.828,12.387,11.863c9.415,6.48,18.854,10.796,34.322,10.796
	c1.798,0,3.699-0.059,5.649-0.174c18.343-1.086,41.439-11.772,58.843-27.226C176.438,157.249,192.855,128.842,186.923,95.299z
	 M85.494,114.222l2.195-2.85c13.821-17.925,22.163-28.745,23.347-45.202c0.688-9.56-3.975-18.626-8.484-27.394
	c-3.829-7.445-7.446-14.478-7.768-21.356c-0.145-3.078,0.632-5.598,2.243-7.286C98.359,8.738,100.176,8,102.279,8
	c4.043,0,9.783,2.976,13.767,11.329c7.263,15.229,16.941,19.658,25.481,23.565c3.554,1.626,6.911,3.162,10.112,5.4
	c10.405,7.275,21.963,17.615,27.406,48.397c1.416,8.008,1.406,15.692,0.351,22.927H80.897
	C82.458,117.964,83.993,116.172,85.494,114.222z"/>
<g>
</g>
<g>
</g>
<g>
</g>
<g>
</g>
<g>
</g>
<g>
</g>
<g>
</g>
<g>
</g>
<g>
</g>
<g>
</g>
<g>
</g>
<g>
</g>
<g>
</g>
<g>
</g>
<g>
</g>
</svg>
