<?xml version="1.0" encoding="iso-8859-1"?>
<!-- Generator: Adobe Illustrator 17.1.0, SVG Export Plug-In . SVG Version: 6.00 Build 0)  -->
<!DOCTYPE svg PUBLIC "-//W3C//DTD SVG 1.1//EN" "http://www.w3.org/Graphics/SVG/1.1/DTD/svg11.dtd">
<svg version="1.1" id="Capa_1" xmlns="http://www.w3.org/2000/svg" xmlns:xlink="http://www.w3.org/1999/xlink" x="0px" y="0px"
	 viewBox="0 0 193.683 193.683" style="enable-background:new 0 0 193.683 193.683;" xml:space="preserve">
<path d="M166.038,78.785c0,39.97-28.804,109.498-30.03,112.438c-0.621,1.49-2.077,2.46-3.691,2.46h-31.475V75.426l40.875-24.386
	c1.896-1.132,2.518-3.587,1.386-5.484c-1.133-1.897-3.587-2.518-5.485-1.386L96.841,68.496L56.066,44.17
	c-1.898-1.132-4.353-0.512-5.485,1.386c-1.132,1.897-0.511,4.353,1.386,5.484l40.875,24.386v118.257H61.367
	c-1.614,0-3.07-0.97-3.691-2.46c-1.227-2.94-30.03-72.467-30.03-112.438c0-40.082,16.626-75.052,17.334-76.521
	C45.646,0.88,47.046,0,48.583,0h96.517c1.536,0,2.937,0.88,3.604,2.264C149.411,3.733,166.038,38.703,166.038,78.785z"/>
<g>
</g>
<g>
</g>
<g>
</g>
<g>
</g>
<g>
</g>
<g>
</g>
<g>
</g>
<g>
</g>
<g>
</g>
<g>
</g>
<g>
</g>
<g>
</g>
<g>
</g>
<g>
</g>
<g>
</g>
</svg>
