<?xml version="1.0" encoding="iso-8859-1"?>
<!-- Generator: Adobe Illustrator 17.1.0, SVG Export Plug-In . SVG Version: 6.00 Build 0)  -->
<!DOCTYPE svg PUBLIC "-//W3C//DTD SVG 1.1//EN" "http://www.w3.org/Graphics/SVG/1.1/DTD/svg11.dtd">
<svg version="1.1" id="Capa_1" xmlns="http://www.w3.org/2000/svg" xmlns:xlink="http://www.w3.org/1999/xlink" x="0px" y="0px"
	 viewBox="0 0 216.238 216.238" style="enable-background:new 0 0 216.238 216.238;" xml:space="preserve">
<path d="M83.73,149.425l14.511,25.134c3.029,5.246,3.029,11.511,0,16.757s-8.454,8.378-14.511,8.378h0
	c-6.058,0-11.482-3.132-14.511-8.378s-3.029-11.511,0-16.757L83.73,149.425z M216.206,113.346c-0.291,3.973-2.546,7.179-6.186,8.797
	c-4.077,1.813-11.691,2.226-23.747,2.691c-4.76,0.184-9.683,0.373-13.769,0.735c-3.072,0.272-6.457,0.55-9.836,0.805
	c1.059,0.229,2.117,0.46,3.171,0.691c4.119,0.901,8.01,1.753,11.607,2.344c2.02,0.332,4.205,0.546,6.319,0.754
	c6.763,0.664,13.149,1.291,16.536,5.664c1.729,2.231,2.341,5.047,1.822,8.369c-0.591,3.782-3.066,10.127-13.007,10.127
	c-2.984,0.001-5.938-0.551-8.311-0.994c-0.782-0.146-1.497-0.281-2.112-0.372c-2.844-0.418-10.324-0.817-17.559-1.204
	c-5.535-0.296-11.259-0.602-15.332-0.936c-2.817-0.23-5.948-0.706-9.1-1.232c1.755,0.931,3.675,1.997,5.822,3.214
	c2.605,1.477,5.295,2.914,7.896,4.305c8.631,4.615,13.215,7.153,14.92,9.946c3.251,5.317,2.222,10.796-2.622,13.954
	c-1.327,0.866-3.003,1.305-4.98,1.305c-6.422,0.001-15.251-4.636-15.339-4.683c-2.693-1.426-8.151-3.791-13.769-5.615
	c-3.661-1.19-11.929-3.267-19.924-5.273c-2.333-0.585-4.602-1.155-6.724-1.695l-14.791-25.618c-0.714-1.237-2.035-2-3.464-2
	s-2.75,0.763-3.464,2l-10.509,18.202c-6.992-1.516-13.296-2.968-16.477-4.074c-1.754-0.61-3.213-1.155-4.518-1.644
	c-3.92-1.466-6.08-2.273-10.874-2.806c-6.706-0.745-33.686-1.211-33.958-1.216C1.75,147.851,0,146.072,0,143.889V84.412
	c0-1.072,0.431-2.1,1.195-2.852c0.764-0.751,1.794-1.21,2.871-1.147l27.706,0.46c0.819-0.159,6.625-1.609,16.871-12.041
	c12.818-13.052,60.166-49.881,62.176-51.442c0.721-0.56,1.65-0.893,2.523-0.841c0.654,0.011,6.486,0.251,9.907,5.084
	c2.624,3.71,2.896,8.764,0.811,15.023c-3.483,10.449-11.974,18.112-18.173,23.707c-2.703,2.439-5.498,4.962-6.235,6.379
	c-1.662,3.195-2.304,5.313-1.911,6.298c0.275,0.688,1.421,1.423,3.144,2.013c5.369,1.841,13.332,4.035,20.781,4.035
	c2.704,0,5.17-0.291,7.329-0.865c1.233-0.327,2.749-0.733,4.479-1.198c12.308-3.301,35.217-9.445,45.197-10.971
	c4.432-0.677,8.046-1.128,11.276-1.128c11.017,0,13.651,6.017,13.922,11.064c0.521,9.72-8.532,11.373-15.144,12.579
	c-2.42,0.442-4.923,0.899-7.061,1.638c-7.344,2.537-24.109,7.506-33.374,10.018c5.466-0.42,12.355-0.788,19.968-0.826
	c2.898-0.015,5.785-0.047,8.607-0.078c3.601-0.041,7.097-0.08,10.381-0.08c13.862,0,19.956,0.748,23.286,2.856
	C214.307,104.487,216.532,108.902,216.206,113.346z M99.465,100.121c-1.048-1.945-3.474-2.673-5.418-1.625l-33,17.774
	c-1.945,1.048-2.672,3.474-1.625,5.418c0.723,1.342,2.101,2.104,3.525,2.104c0.641,0,1.29-0.154,1.894-0.479l33-17.774
	C99.785,104.492,100.513,102.066,99.465,100.121z"/>
<g>
</g>
<g>
</g>
<g>
</g>
<g>
</g>
<g>
</g>
<g>
</g>
<g>
</g>
<g>
</g>
<g>
</g>
<g>
</g>
<g>
</g>
<g>
</g>
<g>
</g>
<g>
</g>
<g>
</g>
</svg>
