<?xml version="1.0" encoding="iso-8859-1"?>
<!-- Generator: Adobe Illustrator 17.1.0, SVG Export Plug-In . SVG Version: 6.00 Build 0)  -->
<!DOCTYPE svg PUBLIC "-//W3C//DTD SVG 1.1//EN" "http://www.w3.org/Graphics/SVG/1.1/DTD/svg11.dtd">
<svg version="1.1" id="Capa_1" xmlns="http://www.w3.org/2000/svg" xmlns:xlink="http://www.w3.org/1999/xlink" x="0px" y="0px"
	 viewBox="0 0 214.957 214.957" style="enable-background:new 0 0 214.957 214.957;" xml:space="preserve">
<path d="M182.189,52.047c-18.517,0-29.812,2.186-47.791,15.138c-13.285,9.571-23.057,15.173-26.92,17.279
	c-3.863-2.106-13.636-7.708-26.92-17.279C62.58,54.232,51.285,52.047,32.767,52.047C12.862,52.047,0,66.565,0,89.033
	c0,13.481,12.823,23.419,24.136,32.187c7.651,5.93,15.563,12.062,15.563,16.717c0,7.253-3.409,12.225-6.705,17.034
	c-2.667,3.89-5.186,7.565-5.186,11.926c0,6.603,6.896,9.551,12.437,11.919c2.133,0.912,5.661,2.42,6.39,3.4
	c0.064,0.892,0.022,2.135-0.021,3.445c-0.161,4.814-0.381,11.408,3.92,15.856c2.626,2.715,6.456,4.092,11.384,4.092
	c11.449,0,15.157-6.154,18.428-11.584c1.742-2.891,3.387-5.622,6.27-7.858c8.166-6.333,20.743-6.448,20.855-6.449
	c0.126,0,12.703,0.116,20.869,6.449c2.882,2.236,4.527,4.967,6.27,7.858c3.271,5.43,6.979,11.584,18.428,11.584
	c4.928,0,8.758-1.376,11.384-4.092c4.302-4.448,4.082-11.042,3.92-15.856c-0.044-1.311-0.085-2.553-0.021-3.445
	c0.729-0.98,4.257-2.488,6.39-3.4c5.541-2.369,12.437-5.316,12.437-11.919c0-4.361-2.519-8.036-5.186-11.926
	c-3.296-4.809-6.705-9.781-6.705-17.034c0-4.655,7.912-10.787,15.563-16.717c11.313-8.768,24.136-18.706,24.136-32.187
	C214.957,66.565,202.095,52.047,182.189,52.047z M148.054,182.353c-4.131,0-7.491-3.36-7.491-7.491c0-4.131,3.36-7.491,7.491-7.491
	s7.491,3.36,7.491,7.491C155.545,178.993,152.185,182.353,148.054,182.353z M66.903,182.353c-4.13,0-7.491-3.36-7.491-7.491
	c0-4.131,3.36-7.491,7.491-7.491c4.131,0,7.491,3.36,7.491,7.491C74.394,178.993,71.034,182.353,66.903,182.353z M107.489,155.309
	c-22.196-0.06-40.254-11.729-40.254-26.011c0-10.826,11.071-20.743,26.804-24.448c1.641,3.983,5.038,7.148,9.318,8.416
	c0.099,0.029,0.2,0.055,0.241,0.063c0.351,0.098,0.704,0.189,1.055,0.258c0.205,0.041,0.414,0.072,0.624,0.101l0.116,0.016
	c0.005,0.001,0.097,0.016,0.103,0.016c0.184,0.03,0.367,0.057,0.537,0.073c0.957,0.097,1.95,0.095,2.875,0.002
	c0.187-0.018,0.371-0.045,0.554-0.075l0.219-0.032c0.209-0.029,0.418-0.06,0.614-0.099c0.36-0.071,0.712-0.163,1.007-0.245
	c0.069-0.017,0.229-0.058,0.298-0.079c4.28-1.267,7.678-4.432,9.318-8.416c15.734,3.705,26.804,13.622,26.804,24.448
	C147.722,143.581,129.664,155.249,107.489,155.309z M85.355,18.909c0-5.272,4.289-9.562,9.562-9.562h25.124
	c5.272,0,9.562,4.289,9.562,9.562s-4.29,9.562-9.562,9.562H94.917C89.644,28.471,85.355,24.181,85.355,18.909z M128.651,40.751
	c0,5.272-4.289,9.562-9.562,9.562H95.868c-5.272,0-9.562-4.29-9.562-9.562s4.289-9.562,9.562-9.562h23.222
	C124.362,31.189,128.651,35.478,128.651,40.751z M123.848,62.593c0,5.272-4.289,9.562-9.562,9.562H100.67
	c-5.272,0-9.562-4.29-9.562-9.562s4.289-9.562,9.562-9.562h13.617C119.559,53.031,123.848,57.32,123.848,62.593z"/>
<g>
</g>
<g>
</g>
<g>
</g>
<g>
</g>
<g>
</g>
<g>
</g>
<g>
</g>
<g>
</g>
<g>
</g>
<g>
</g>
<g>
</g>
<g>
</g>
<g>
</g>
<g>
</g>
<g>
</g>
</svg>
