<?xml version="1.0" encoding="iso-8859-1"?>
<!-- Generator: Adobe Illustrator 17.1.0, SVG Export Plug-In . SVG Version: 6.00 Build 0)  -->
<!DOCTYPE svg PUBLIC "-//W3C//DTD SVG 1.1//EN" "http://www.w3.org/Graphics/SVG/1.1/DTD/svg11.dtd">
<svg version="1.1" id="Capa_1" xmlns="http://www.w3.org/2000/svg" xmlns:xlink="http://www.w3.org/1999/xlink" x="0px" y="0px"
	 viewBox="0 0 203.49 203.49" style="enable-background:new 0 0 203.49 203.49;" xml:space="preserve">
<path d="M150.393,107.933L150.393,107.933c0.451,0,0.869-0.155,1.208-0.45c0.356-0.309,0.768-0.898,0.705-1.955
	c-0.087-1.469-1.122-3.529-2.509-5.285v-13.58c0-2.209-1.791-4-4-4h-6.402l-0.119-0.387c0.031-1.02,0.061-5.96-1.952-11.124
	c-1.162-2.981-2.345-4.437-3.296-5.605c-0.851-1.046-1.465-1.803-1.826-3.363c-0.292-1.263-0.616-2.492-0.921-3.647
	c-0.57-2.162-1.063-4.029-1.12-5.282c-0.02-0.43,0.037-1.154,0.103-1.993c0.225-2.853,0.6-7.626-1.234-11.445
	c-2.302-4.796-4.675-6.985-7.934-7.322c-0.837-0.086-1.688-0.13-2.53-0.13c-1.027,0-1.791,0.065-2.161,0.105
	c-0.915-0.32-4.742-1.756-6.459-3.921c-0.93-1.173-1.287-1.748-1.422-2c0.165-0.672,0.907-3.674,1.312-4.968
	c0.561-1.793,1.922-8.16,1.353-12.815c-0.586-4.784-2.44-7.383-5.836-8.176c-2.289-0.534-3.244-0.604-3.607-0.586
	c-0.359-0.021-1.316,0.052-3.608,0.586c-3.395,0.793-5.25,3.392-5.835,8.177c-0.57,4.653,0.792,11.021,1.353,12.813
	c0.404,1.295,1.146,4.297,1.312,4.968c-0.135,0.253-0.493,0.828-1.422,2.001c-1.712,2.158-5.543,3.599-6.459,3.921
	c-0.371-0.04-1.134-0.105-2.161-0.105c-0.842,0-1.693,0.044-2.53,0.13c-3.26,0.337-5.633,2.526-7.935,7.322
	c-1.833,3.82-1.458,8.595-1.234,11.447c0.066,0.838,0.123,1.562,0.104,1.992c-0.057,1.253-0.55,3.121-1.121,5.284
	c-0.305,1.154-0.629,2.383-0.92,3.645c-0.36,1.561-0.975,2.317-1.826,3.363c-0.95,1.169-2.133,2.624-3.295,5.605
	c-2.013,5.164-1.983,10.104-1.952,11.124l-0.119,0.387h-6.964c-2.209,0-4,1.791-4,4v14.353c-1.091,1.564-1.872,3.252-1.947,4.511
	c-0.063,1.057,0.348,1.646,0.704,1.955c0.349,0.302,0.784,0.429,1.243,0.421v1.863c-0.06,0.125-0.112,0.248-0.172,0.372
	c-0.535,1.101-0.809,1.991-0.401,2.756c0.142,0.266,0.34,0.456,0.573,0.603v33.499c0,2.209,1.791,4,4,4h26.437
	c0.013,0.787-0.015,1.396-0.115,1.634c-0.935,2.22-0.341,11.156,0.5,15.868c0.956,5.352,1.154,18.978,0.955,20.074
	c-0.162,0.807,0.013,1.277,0.153,1.655c0.134,0.361,0.286,0.771,0.15,2.025c-0.17,1.573-0.832,2.095-1.832,2.884
	c-0.35,0.275-0.711,0.563-1.066,0.9c-1.014,0.962-1.454,2.272-1.178,3.505c0.228,1.018,1.03,2.404,3.56,3.239
	c1.404,0.464,2.908,0.709,4.35,0.709c2.478,0,4.461-0.722,5.305-1.931c0.928-1.332,0.917-3.562,0.909-5.19
	c-0.002-0.55-0.005-1.068,0.034-1.319c0.191-1.229,0.54-4.862,0.575-6.684c0.026-1.366-0.468-2.237-0.903-3.005
	c-0.259-0.455-0.482-0.849-0.605-1.343c-0.334-1.336-0.111-6.156,0.567-9.072c0.155-0.667,0.379-1.447,0.627-2.316
	c0.888-3.104,2.104-7.354,1.791-11.68c-0.189-2.617-0.514-4.281-0.801-5.75c-0.278-1.427-0.493-2.593-0.494-4.204h11.392
	c-0.001,1.611-0.216,2.778-0.494,4.205c-0.286,1.468-0.611,3.132-0.801,5.749c-0.313,4.324,0.903,8.574,1.79,11.677
	c0.249,0.87,0.473,1.651,0.628,2.319c0.678,2.915,0.901,7.736,0.567,9.073c-0.123,0.493-0.347,0.887-0.605,1.342
	c-0.436,0.768-0.93,1.639-0.904,3.005c0.035,1.825,0.384,5.457,0.576,6.684c0.039,0.251,0.036,0.771,0.033,1.32
	c-0.008,1.628-0.02,3.857,0.909,5.189c0.844,1.209,2.827,1.931,5.305,1.931c1.442,0,2.946-0.245,4.35-0.709
	c2.53-0.835,3.332-2.223,3.56-3.239c0.276-1.232-0.165-2.543-1.178-3.505c-0.356-0.338-0.717-0.625-1.067-0.9
	c-1-0.789-1.662-1.311-1.832-2.884c-0.136-1.254,0.016-1.664,0.15-2.025c0.14-0.378,0.314-0.849,0.153-1.653
	c-0.2-1.099-0.001-14.725,0.954-20.076c0.841-4.711,1.436-13.647,0.5-15.868c-0.1-0.238-0.127-0.847-0.115-1.634h25.875
	c2.209,0,4-1.791,4-4v-33.243c0.49-0.155,0.89-0.4,1.135-0.858c0.408-0.765,0.135-1.655-0.4-2.756
	c-0.258-0.529-0.493-1.059-0.734-1.589v-0.718C149.997,107.891,150.197,107.933,150.393,107.933z M121.496,65.357
	c0.233,1.568,0.547,3.213,0.973,4.819c1.04,3.927,3.287,8.469,5.281,12.487h-7.46c-0.16-1.249-0.25-2.432-0.234-3.513
	C120.102,75.984,120.808,70.254,121.496,65.357z M81.022,70.176c0.425-1.606,0.74-3.251,0.973-4.819
	c0.688,4.897,1.395,10.628,1.441,13.794c0.016,1.081-0.074,2.265-0.234,3.513h-7.46C77.735,78.645,79.983,74.102,81.022,70.176z
	 M141.797,142.996H61.131V90.663h80.667V142.996z M127.431,101.591c-0.797-1.316-2.245-2.135-3.781-2.135
	c-0.673,0-1.351,0.158-1.961,0.459c-0.511,0.253-1.112,0.207-1.868-0.11c-9.021-3.789-16.724-3.981-18.177-3.981l-0.18,0.002
	l-0.18-0.002c-1.453,0-9.155,0.192-18.176,3.98c-0.755,0.319-1.355,0.364-1.87,0.111c-0.608-0.3-1.286-0.459-1.96-0.459
	c-1.536,0-2.985,0.819-3.781,2.137c-0.805,1.333-0.852,2.953-0.126,4.333c0.716,1.364,0.966,2.195,0.995,2.422
	c0.008,0.164-0.041,0.664-0.077,1.029c-0.266,2.701-0.76,7.729,3.824,14.163c4.246,5.96,9.631,6.646,13.195,7.1
	c1.135,0.145,2.31,0.295,2.841,0.567c1.243,0.637,1.316,2.905,1.316,2.928v0.034c0,2.192,1.766,3.977,3.958,4
	c0.015,0,0.028,0,0.043,0c2.173,0,3.953-1.738,3.998-3.916c0.001-0.024,0.001-0.07,0.001-0.112c0-0.001,0-0.001,0-0.002
	c0-0.023,0.075-2.296,1.316-2.932c0.532-0.272,1.706-0.423,2.841-0.567c3.563-0.453,8.948-1.14,13.195-7.101
	c4.583-6.434,4.089-11.461,3.824-14.162c-0.036-0.365-0.085-0.865-0.082-0.98c0.034-0.275,0.284-1.106,1.001-2.473
	C128.284,104.542,128.235,102.923,127.431,101.591z M117.369,121.362c-2.8,3.773-8.086,5.687-15.711,5.687
	c-7.631,0-12.98-1.903-15.899-5.657c-3.083-3.965-2.106-8.267-1.985-8.744c0.177-0.696,0.539-1.332,1.047-1.841
	c1.026-1.027,2.392-1.593,3.843-1.593c0.721,0,1.42,0.139,2.067,0.404c1.296-0.516,2.836-0.5,4.121,0.041
	c1.307-0.544,2.846-0.536,4.14,0c1.357-0.598,3.001-0.599,4.358-0.007c1.331-0.575,2.94-0.582,4.276-0.015
	c1.367-0.608,3.032-0.611,4.402-0.007c0.672-0.292,1.404-0.444,2.16-0.444c1.452,0,2.817,0.565,3.844,1.593
	c0.465,0.466,0.808,1.039,0.999,1.669C119.177,112.934,120.378,117.307,117.369,121.362z"/>
<g>
</g>
<g>
</g>
<g>
</g>
<g>
</g>
<g>
</g>
<g>
</g>
<g>
</g>
<g>
</g>
<g>
</g>
<g>
</g>
<g>
</g>
<g>
</g>
<g>
</g>
<g>
</g>
<g>
</g>
</svg>
