<?xml version="1.0" encoding="iso-8859-1"?>
<!-- Generator: Adobe Illustrator 17.1.0, SVG Export Plug-In . SVG Version: 6.00 Build 0)  -->
<!DOCTYPE svg PUBLIC "-//W3C//DTD SVG 1.1//EN" "http://www.w3.org/Graphics/SVG/1.1/DTD/svg11.dtd">
<svg version="1.1" id="Capa_1" xmlns="http://www.w3.org/2000/svg" xmlns:xlink="http://www.w3.org/1999/xlink" x="0px" y="0px"
	 viewBox="0 0 213.451 213.451" style="enable-background:new 0 0 213.451 213.451;" xml:space="preserve">
<path d="M213.335,167.441c-0.307,1.944-1.982,3.376-3.951,3.376H4.067c-1.968,0-3.644-1.432-3.951-3.376
	c-0.091-0.575-2.037-14.268,14.318-29.62c7.707-7.234,22.244-10.726,36.302-14.103c13.563-3.257,28.935-6.949,31.167-13.239
	c4.888-13.776,1.073-32.313,0.777-33.695c-11.457-6.076-20.337-16.376-24.032-29.025c-0.62-2.121,0.597-4.342,2.718-4.962
	c2.116-0.621,4.342,0.597,4.961,2.718c5.031,17.221,21.644,29.247,40.399,29.247c18.756,0,35.369-12.026,40.399-29.247
	c0.621-2.12,2.844-3.336,4.962-2.718c2.12,0.62,3.337,2.841,2.718,4.962c-3.768,12.897-12.922,23.36-24.706,29.385
	c-0.291,1.6-3.403,19.656,1.451,33.335c2.232,6.29,17.604,9.982,31.166,13.239c14.059,3.377,28.596,6.868,36.302,14.103
	C215.372,153.173,213.426,166.865,213.335,167.441z"/>
<g>
</g>
<g>
</g>
<g>
</g>
<g>
</g>
<g>
</g>
<g>
</g>
<g>
</g>
<g>
</g>
<g>
</g>
<g>
</g>
<g>
</g>
<g>
</g>
<g>
</g>
<g>
</g>
<g>
</g>
</svg>
