<?xml version="1.0" encoding="iso-8859-1"?>
<!-- Generator: Adobe Illustrator 17.1.0, SVG Export Plug-In . SVG Version: 6.00 Build 0)  -->
<!DOCTYPE svg PUBLIC "-//W3C//DTD SVG 1.1//EN" "http://www.w3.org/Graphics/SVG/1.1/DTD/svg11.dtd">
<svg version="1.1" id="Capa_1" xmlns="http://www.w3.org/2000/svg" xmlns:xlink="http://www.w3.org/1999/xlink" x="0px" y="0px"
	 viewBox="0 0 218.02 218.02" style="enable-background:new 0 0 218.02 218.02;" xml:space="preserve">
<path d="M50.338,109.862c-20.433,0-36.439,10.389-36.439,23.651s16.006,23.651,36.439,23.651s36.439-10.389,36.439-23.651
	S70.771,109.862,50.338,109.862z M21.898,133.513c0-5.717,5.918-10.833,14.493-13.564c-3.517,3.551-5.695,8.431-5.695,13.812
	c0,5.041,1.926,9.63,5.059,13.112C27.523,144.095,21.898,139.089,21.898,133.513z M64.921,146.872
	c3.133-3.481,5.059-8.07,5.059-13.111c0-5.381-2.178-10.261-5.695-13.812c8.575,2.731,14.493,7.846,14.493,13.563
	C78.777,139.089,73.152,144.095,64.921,146.872z M168.049,109.862c-20.434,0-36.439,10.389-36.439,23.651
	s16.006,23.651,36.439,23.651s36.439-10.389,36.439-23.651S188.483,109.862,168.049,109.862z M139.61,133.513
	c0-5.718,5.918-10.833,14.494-13.564c-3.517,3.551-5.696,8.431-5.696,13.812c0,5.041,1.926,9.63,5.059,13.112
	C145.235,144.095,139.61,139.089,139.61,133.513z M182.632,146.872c3.133-3.481,5.059-8.07,5.059-13.112
	c0-5.381-2.178-10.261-5.696-13.812c8.575,2.731,14.494,7.846,14.494,13.564C196.489,139.089,190.864,144.095,182.632,146.872z
	 M93.495,75.695c0.952,0.951,1.361,2.318,1.089,3.637l-2.546,12.333c-0.254,1.232-1.074,2.272-2.211,2.81
	c-0.541,0.255-1.124,0.382-1.706,0.382c-0.642,0-1.283-0.154-1.866-0.462C86.048,94.285,65.379,83.523,45,83.523
	c-20.428,0-38.93,9.762-39.115,9.86c-1.669,0.894-3.735,0.492-4.951-0.958c-1.215-1.45-1.248-3.555-0.078-5.043
	c0.852-1.083,21.193-26.526,49.477-26.526C78.335,60.856,92.89,75.088,93.495,75.695z M218.02,89.856c0,2.2-1.775,3.985-3.973,4
	c-0.611,0.018-1.32-0.145-1.933-0.473c-0.182-0.097-18.76-9.86-39.114-9.86c-20.379,0-41.049,10.763-41.255,10.871
	c-0.583,0.307-1.224,0.461-1.865,0.461c-0.583,0-1.167-0.127-1.708-0.383c-1.137-0.537-1.956-1.576-2.21-2.808l-2.546-12.333
	c-0.272-1.318,0.137-2.686,1.089-3.637c0.605-0.606,15.16-14.839,43.161-14.839c26.988,0,46.744,23.165,49.239,26.229
	C217.596,87.804,218.02,88.78,218.02,89.856z"/>
<g>
</g>
<g>
</g>
<g>
</g>
<g>
</g>
<g>
</g>
<g>
</g>
<g>
</g>
<g>
</g>
<g>
</g>
<g>
</g>
<g>
</g>
<g>
</g>
<g>
</g>
<g>
</g>
<g>
</g>
</svg>
