<?xml version="1.0" encoding="iso-8859-1"?>
<!-- Generator: Adobe Illustrator 17.1.0, SVG Export Plug-In . SVG Version: 6.00 Build 0)  -->
<!DOCTYPE svg PUBLIC "-//W3C//DTD SVG 1.1//EN" "http://www.w3.org/Graphics/SVG/1.1/DTD/svg11.dtd">
<svg version="1.1" id="Capa_1" xmlns="http://www.w3.org/2000/svg" xmlns:xlink="http://www.w3.org/1999/xlink" x="0px" y="0px"
	 viewBox="0 0 199.661 199.661" style="enable-background:new 0 0 199.661 199.661;" xml:space="preserve">
<path d="M183.969,60.893c-7.811,7.812-17.461,12.476-25.814,12.476c-2.445,0-4.706-0.406-6.729-1.188
	c-5.256,14.125-18.986,25.869-33.733,27.77l-0.172,0.021c-14.052,1.812-26.977,14.737-28.791,28.811l-0.02,0.154
	c-2.248,17.444-18.273,33.47-35.723,35.719c-14.073,1.814-26.999,14.74-28.813,28.813c-0.26,2.018-1.98,3.488-3.962,3.488
	c-0.17,0-0.343-0.011-0.517-0.033c-2.19-0.282-3.738-2.287-3.455-4.479c2.249-17.448,18.274-33.475,35.724-35.724
	c14.074-1.814,26.999-14.739,28.813-28.812l0.02-0.155c2.249-17.444,18.274-33.471,35.723-35.72l0.172-0.021
	c12.77-1.646,24.609-12.473,28.024-24.997c-6.28-8.77-2.44-23.962,9.488-35.889c7.812-7.812,17.462-12.476,25.814-12.476
	c4.824,0,8.939,1.565,11.9,4.527C200.263,31.524,196.772,48.09,183.969,60.893z M166.801,122.944
	c-4.932,0-10.563,2.687-15.064,7.188c-4.841,4.841-7.329,10.671-7.14,15.604c-0.02,0.162-0.049,0.321-0.049,0.488
	c0,4.601-3.742,8.343-8.408,8.343c-9.012,0-16.343,7.332-16.343,16.408c0,4.601-3.742,8.343-8.343,8.343
	c-9.012,0-16.343,7.332-16.343,16.344c0,2.209,1.791,4,4,4s4-1.791,4-4c0-4.601,3.742-8.344,8.343-8.344
	c9.012,0,16.343-7.331,16.343-16.407c0-4.601,3.742-8.344,8.408-8.344c5.898,0,11.061-3.151,13.935-7.848
	c1.479,0.717,3.172,1.095,5.023,1.095c4.932,0,10.563-2.688,15.064-7.189c7.558-7.557,9.416-17.538,4.232-22.722
	C172.524,123.967,169.877,122.944,166.801,122.944z M31.136,87.151c13.851-1.168,26.069-13.387,27.236-27.233l0.011-0.119
	c0.823-9.761,9.146-18.391,18.82-19.786c2.163,1.494,4.831,2.286,7.849,2.286c6.408,0,13.775-3.54,19.705-9.471
	c4.43-4.43,7.571-9.7,8.847-14.842c1.453-5.86,0.383-10.957-3.011-14.351C108.216,1.257,104.933,0,101.103,0
	c-6.408,0-13.774,3.54-19.704,9.471c-7.425,7.425-10.692,16.561-9.02,23.409c-11.556,3.368-20.952,14.187-21.968,26.242
	l-0.011,0.119c-0.854,10.14-9.798,19.083-19.937,19.938C16.614,80.347,4.395,92.565,3.227,106.416
	c-0.186,2.201,1.449,4.137,3.65,4.322c0.114,0.009,0.228,0.014,0.341,0.014c2.057,0,3.805-1.577,3.981-3.664
	C12.054,96.949,20.998,88.006,31.136,87.151z"/>
<g>
</g>
<g>
</g>
<g>
</g>
<g>
</g>
<g>
</g>
<g>
</g>
<g>
</g>
<g>
</g>
<g>
</g>
<g>
</g>
<g>
</g>
<g>
</g>
<g>
</g>
<g>
</g>
<g>
</g>
</svg>
