<?xml version="1.0" encoding="iso-8859-1"?>
<!-- Generator: Adobe Illustrator 17.1.0, SVG Export Plug-In . SVG Version: 6.00 Build 0)  -->
<!DOCTYPE svg PUBLIC "-//W3C//DTD SVG 1.1//EN" "http://www.w3.org/Graphics/SVG/1.1/DTD/svg11.dtd">
<svg version="1.1" id="Capa_1" xmlns="http://www.w3.org/2000/svg" xmlns:xlink="http://www.w3.org/1999/xlink" x="0px" y="0px"
	 viewBox="0 0 195.386 195.386" style="enable-background:new 0 0 195.386 195.386;" xml:space="preserve">
<path d="M122.981,109.875c-1.109,9.754-6.781,18.378-15.562,23.661c-23.813,14.332-64.855,39.073-72.186,43.753
	c-2.484,1.586-5.203,2.425-7.861,2.425c-9.015,0-15.099-8.92-15.5-22.725c-0.365-12.548-2.605-21.31-5.198-31.455
	c-1.951-7.633-3.961-15.492-5.567-26.19c-1.462-9.733-4.651-43.18,15.686-64.886C28.471,21.993,45.958,15.672,68.77,15.672
	c1.012,0,2.042,0.013,3.082,0.038c14.868,0.357,26.325,5.01,35.024,14.223C126.438,50.652,125.363,88.912,122.981,109.875z
	 M192.928,45.095c-10.84-13.606-58.58-13.987-59.06-13.987c-3.611,0-4.621,0.154-5.689,0.867c-0.896,0.598-1.618,1.475-2.209,2.679
	c-0.524,1.07-0.545,2.319-0.055,3.406c9.582,21.248,9.006,48.894,7.81,63.481c-0.134,1.628-0.414,3.301-0.831,4.973
	c-0.278,1.115-0.063,2.295,0.589,3.24c0.652,0.946,1.68,1.565,2.82,1.701c0.359,0.042,0.734,0.065,1.122,0.065
	c0.001,0,0.001,0,0.001,0c10.259,0,27.837-16.87,32.98-22.04c10.439-10.495,22.41-25.264,24.699-35.242
	C195.853,50.982,195.099,47.821,192.928,45.095z"/>
<g>
</g>
<g>
</g>
<g>
</g>
<g>
</g>
<g>
</g>
<g>
</g>
<g>
</g>
<g>
</g>
<g>
</g>
<g>
</g>
<g>
</g>
<g>
</g>
<g>
</g>
<g>
</g>
<g>
</g>
</svg>
