<?xml version="1.0" encoding="iso-8859-1"?>
<!-- Generator: Adobe Illustrator 17.1.0, SVG Export Plug-In . SVG Version: 6.00 Build 0)  -->
<!DOCTYPE svg PUBLIC "-//W3C//DTD SVG 1.1//EN" "http://www.w3.org/Graphics/SVG/1.1/DTD/svg11.dtd">
<svg version="1.1" id="Capa_1" xmlns="http://www.w3.org/2000/svg" xmlns:xlink="http://www.w3.org/1999/xlink" x="0px" y="0px"
	 viewBox="0 0 211.327 211.327" style="enable-background:new 0 0 211.327 211.327;" xml:space="preserve">
<path d="M100.82,113.187v68.743c0,2.209-1.791,4-4,4s-4-1.791-4-4v-68.743c0-16.591-13.498-30.089-30.089-30.089h-3.785v0.981
	c0,1.665,1.354,3.019,3.02,3.019c6.076,0,11.019,4.943,11.019,11.02v6.566c0,15.502-12.612,28.114-28.114,28.114
	C20.128,132.798,0,112.67,0,87.928V70.267c0-24.742,20.128-44.87,44.87-44.87c15.502,0,28.114,12.612,28.114,28.115v6.566
	c0,6.076-4.943,11.02-11.019,11.02c-1.665,0-3.02,1.354-3.02,3.019v0.981h3.785C83.733,75.097,100.82,92.184,100.82,113.187z
	 M166.458,25.397c-15.503,0-28.115,12.612-28.115,28.115v6.566c0,6.076,4.943,11.02,11.02,11.02c1.665,0,3.02,1.354,3.02,3.019
	v0.981h-3.785c-21.002,0-38.089,17.087-38.089,38.089v68.743c0,2.209,1.791,4,4,4s4-1.791,4-4v-68.743
	c0-16.591,13.498-30.089,30.089-30.089h3.785v0.981c0,1.665-1.354,3.019-3.02,3.019c-6.076,0-11.02,4.943-11.02,11.02v6.566
	c0,15.502,12.612,28.114,28.115,28.114c24.741,0,44.869-20.128,44.869-44.87V70.267C211.327,45.525,191.199,25.397,166.458,25.397z"
	/>
<g>
</g>
<g>
</g>
<g>
</g>
<g>
</g>
<g>
</g>
<g>
</g>
<g>
</g>
<g>
</g>
<g>
</g>
<g>
</g>
<g>
</g>
<g>
</g>
<g>
</g>
<g>
</g>
<g>
</g>
</svg>
