<?xml version="1.0" encoding="iso-8859-1"?>
<!-- Generator: Adobe Illustrator 17.1.0, SVG Export Plug-In . SVG Version: 6.00 Build 0)  -->
<!DOCTYPE svg PUBLIC "-//W3C//DTD SVG 1.1//EN" "http://www.w3.org/Graphics/SVG/1.1/DTD/svg11.dtd">
<svg version="1.1" id="Capa_1" xmlns="http://www.w3.org/2000/svg" xmlns:xlink="http://www.w3.org/1999/xlink" x="0px" y="0px"
	 viewBox="0 0 206.5 206.5" style="enable-background:new 0 0 206.5 206.5;" xml:space="preserve">
<path d="M179.316,62.187l-30.5-60c-0.484-0.951-1.327-1.67-2.343-1.996c-1.016-0.326-2.12-0.232-3.067,0.259L60.832,43.359
	C39.809,54.284,26.75,75.788,26.75,99.48V202.5c0,2.209,1.791,4,4,4h69.563c2.209,0,4-1.791,4-4v-75.565
	c0-14.16,7.877-26.872,20.557-33.175l52.661-26.178c0.955-0.475,1.682-1.313,2.017-2.325
	C179.883,64.243,179.799,63.138,179.316,62.187z M44.661,80.683c1.815-7.592,9.193-12.862,10.028-13.438
	c1.802-1.243,4.266-0.806,5.532,0.978l12.715,17.911c0.742,1.045,0.938,2.382,0.528,3.596c-0.41,1.214-1.377,2.158-2.601,2.539
	l-20.645,6.426c-0.389,0.121-0.79,0.181-1.189,0.181c-0.659,0-1.313-0.163-1.904-0.482c-0.948-0.513-1.649-1.387-1.944-2.424
	C45.09,95.643,42.934,87.906,44.661,80.683z M77.449,130.263V194.5c0,2.209-1.791,4-4,4H57.842c-2.209,0-4-1.791-4-4v-63.412
	c-5.333-1.978-9.024-7.073-9.024-13.044c0-7.679,6.247-13.926,13.926-13.926c2.437,0,4.814,0.643,6.907,1.841
	c2.693-2.809,6.461-4.466,10.413-4.466c7.95,0,14.418,6.468,14.418,14.418C90.482,123.394,84.752,129.564,77.449,130.263z
	 M158.686,47.237l-56.815,27.859c0.212,0.937,0.321,1.897,0.321,2.867c0,7.188-5.848,13.035-13.035,13.035
	s-13.035-5.847-13.035-13.035c0-1.163,0.152-2.305,0.448-3.401c-3.818-1.878-6.451-5.809-6.451-10.343
	c0-6.352,5.167-11.519,11.519-11.519c2.793,0,5.459,1.027,7.523,2.809l59.319-29.086c0.954-0.467,2.053-0.537,3.056-0.193
	c1.004,0.343,1.83,1.071,2.297,2.024l6.683,13.632C161.489,43.869,160.67,46.265,158.686,47.237z"/>
<g>
</g>
<g>
</g>
<g>
</g>
<g>
</g>
<g>
</g>
<g>
</g>
<g>
</g>
<g>
</g>
<g>
</g>
<g>
</g>
<g>
</g>
<g>
</g>
<g>
</g>
<g>
</g>
<g>
</g>
</svg>
