<?xml version="1.0" encoding="iso-8859-1"?>
<!-- Generator: Adobe Illustrator 17.1.0, SVG Export Plug-In . SVG Version: 6.00 Build 0)  -->
<!DOCTYPE svg PUBLIC "-//W3C//DTD SVG 1.1//EN" "http://www.w3.org/Graphics/SVG/1.1/DTD/svg11.dtd">
<svg version="1.1" id="Capa_1" xmlns="http://www.w3.org/2000/svg" xmlns:xlink="http://www.w3.org/1999/xlink" x="0px" y="0px"
	 viewBox="0 0 198.307 198.307" style="enable-background:new 0 0 198.307 198.307;" xml:space="preserve">
<path d="M195.804,116.597c-2.88,5.249-8.207,13.262-17.121,21.272c-13.534,12.161-38.317,26.658-79.529,26.658
	s-65.996-14.497-79.529-26.658c-8.914-8.01-14.241-16.023-17.121-21.272c0.206,0.011,0.412,0.026,0.621,0.026
	c0.026,0,0.08,0,0.106,0l53.332-0.407l0.262-0.001c4.791,0,9.443,0.979,13.827,2.911l16.315,7.19
	c3.864,1.703,7.964,2.566,12.187,2.566c4.223,0,8.323-0.863,12.187-2.566l16.315-7.19c4.384-1.932,9.036-2.911,13.827-2.911
	l0.262,0.001l53.349,0.407c0.02,0,0.069,0,0.089,0C195.391,116.624,195.597,116.609,195.804,116.597z M3.152,108.624l53.349-0.407
	c0.107-0.001,0.215-0.001,0.323-0.001c5.871,0,11.678,1.222,17.053,3.591l16.315,7.19c2.854,1.258,5.908,1.887,8.961,1.887
	c3.053,0,6.106-0.629,8.961-1.887l16.315-7.19c5.374-2.368,11.182-3.591,17.053-3.591c0.108,0,0.215,0,0.323,0.001l53.349,0.407
	c0.009,0,0.019,0,0.028,0c1.374,0,2.36-0.784,2.827-1.802c0.231-0.505,0.332-1.067,0.288-1.621c-0.003-0.038-0.01-0.075-0.015-0.112
	c-0.016-0.138-0.04-0.274-0.075-0.409c-0.014-0.054-0.031-0.108-0.048-0.162c-0.037-0.117-0.082-0.232-0.133-0.344
	c-0.027-0.059-0.055-0.118-0.087-0.175c-0.057-0.105-0.124-0.206-0.195-0.305c-0.04-0.056-0.078-0.113-0.122-0.166
	c-0.083-0.1-0.179-0.194-0.279-0.286c-0.047-0.043-0.088-0.09-0.138-0.131c-0.157-0.128-0.328-0.248-0.52-0.354
	c-17.341-9.481-51.599-27.046-69.229-28.135c-0.569-0.035-1.12-0.053-1.653-0.053c-3.63,0-6.777,0.417-9.502,1.12
	c-4.542,1.172-7.914,3.141-10.405,5.302c-1.65,1.432-3.667,2.243-5.735,2.443c-0.335,0.032-0.671,0.052-1.007,0.052l0,0
	c-2.412,0-4.825-0.832-6.742-2.495c-3.488-3.026-8.701-5.674-16.435-6.289c-1.105-0.088-2.261-0.134-3.471-0.134
	c-7.462,0-18.536,3.522-30.131,8.304c-1.657,0.683-3.324,1.392-4.993,2.12c-3.338,1.456-6.682,2.988-9.961,4.544
	c-1.639,0.778-3.263,1.562-4.86,2.345c-0.799,0.392-1.591,0.783-2.376,1.174c-7.065,3.514-13.526,6.948-18.56,9.701
	c0,0-0.001,0.001-0.002,0.001c-0.191,0.105-0.362,0.224-0.518,0.352c-0.051,0.042-0.093,0.09-0.141,0.134
	c-0.098,0.091-0.193,0.184-0.276,0.283c-0.045,0.054-0.084,0.112-0.124,0.169c-0.07,0.098-0.136,0.198-0.193,0.302
	c-0.032,0.059-0.061,0.119-0.089,0.179c-0.051,0.111-0.095,0.224-0.131,0.338c-0.018,0.056-0.036,0.111-0.05,0.167
	c-0.034,0.132-0.057,0.266-0.073,0.4c-0.005,0.041-0.013,0.081-0.016,0.122c-0.043,0.552,0.057,1.112,0.287,1.616
	c0.466,1.019,1.453,1.805,2.828,1.805C3.134,108.624,3.143,108.624,3.152,108.624z M160.165,33.78
	c-7.026,0-12.742,5.716-12.742,12.741c0,7.026,5.716,12.742,12.742,12.742s12.742-5.716,12.742-12.742
	C172.907,39.496,167.191,33.78,160.165,33.78z"/>
<g>
</g>
<g>
</g>
<g>
</g>
<g>
</g>
<g>
</g>
<g>
</g>
<g>
</g>
<g>
</g>
<g>
</g>
<g>
</g>
<g>
</g>
<g>
</g>
<g>
</g>
<g>
</g>
<g>
</g>
</svg>
