<?xml version="1.0" encoding="iso-8859-1"?>
<!-- Generator: Adobe Illustrator 17.1.0, SVG Export Plug-In . SVG Version: 6.00 Build 0)  -->
<!DOCTYPE svg PUBLIC "-//W3C//DTD SVG 1.1//EN" "http://www.w3.org/Graphics/SVG/1.1/DTD/svg11.dtd">
<svg version="1.1" id="Capa_1" xmlns="http://www.w3.org/2000/svg" xmlns:xlink="http://www.w3.org/1999/xlink" x="0px" y="0px"
	 viewBox="0 0 191.99 191.99" style="enable-background:new 0 0 191.99 191.99;" xml:space="preserve">
<path d="M187.99,13.128c-0.004,0-0.009,0-0.014,0c-2.202,0.007-3.984,1.793-3.987,3.995l0,0.494
	c-0.182,17.381-17.137,46.657-23.656,56.475c-6.666,10.036-15.593,14.695-20.745,16.675c-1.341-8.707-5.56-26.238-18.129-31.752
	l-0.431-0.189c-7.092-3.102-15.996-4.81-25.069-4.81c-9.074,0-17.978,1.708-25.08,4.814l-0.429,0.188
	C57.886,64.53,53.669,82.06,52.328,90.766c-5.158-1.98-14.081-6.64-20.745-16.674C25.071,64.286,8.141,35.016,8,17.559v-0.431
	c0-2.203-1.781-3.991-3.984-4c-0.005,0-0.011,0-0.016,0c-2.195,0-3.982,1.771-4,3.969v64.652c0,53.157,42.721,96.72,95.231,97.109
	l0.727,0.003c0.003,0,0.002,0,0.005,0c25.629,0,49.727-9.981,67.848-28.104c18.124-18.124,28.104-42.222,28.104-67.85l0.073-65.249
	c0.001-0.188,0.002-0.375,0-0.563C191.972,14.9,190.186,13.128,187.99,13.128z M118.657,123.553
	c-1.756,2.108-4.126,3.179-7.248,3.271c-0.213,0.006-0.42,0.009-0.623,0.009h-0.002c-2.893,0-4.237-0.641-4.509-1.189
	c-1.024-2.067,1.999-8.584,5.383-13.026c0.925-1.209,1.083-2.838,0.41-4.202c-0.674-1.365-2.064-2.229-3.586-2.229H83.434
	c-1.521,0-2.909,0.864-3.583,2.227s-0.517,2.992,0.405,4.201c3.388,4.445,6.412,10.962,5.388,13.029
	c-0.272,0.549-1.617,1.189-4.512,1.189c-0.203,0-0.412-0.003-0.625-0.009c-3.122-0.092-5.492-1.162-7.248-3.271
	c-4.835-5.808-4.193-18.113-3.539-22.36c0.012-0.077,0.022-0.154,0.03-0.232c0.013-0.129,1.464-13.043,8.827-15.535
	c7.542-2.555,14.252-5.69,17.381-7.227c3.129,1.536,9.839,4.672,17.381,7.227c6.162,2.086,8.461,11.928,8.827,15.535
	c0.007,0.075,0.018,0.154,0.029,0.229C122.85,105.44,123.492,117.746,118.657,123.553z"/>
<g>
</g>
<g>
</g>
<g>
</g>
<g>
</g>
<g>
</g>
<g>
</g>
<g>
</g>
<g>
</g>
<g>
</g>
<g>
</g>
<g>
</g>
<g>
</g>
<g>
</g>
<g>
</g>
<g>
</g>
</svg>
