<?xml version="1.0" encoding="iso-8859-1"?>
<!-- Generator: Adobe Illustrator 17.1.0, SVG Export Plug-In . SVG Version: 6.00 Build 0)  -->
<!DOCTYPE svg PUBLIC "-//W3C//DTD SVG 1.1//EN" "http://www.w3.org/Graphics/SVG/1.1/DTD/svg11.dtd">
<svg version="1.1" id="Capa_1" xmlns="http://www.w3.org/2000/svg" xmlns:xlink="http://www.w3.org/1999/xlink" x="0px" y="0px"
	 viewBox="0 0 197.501 197.501" style="enable-background:new 0 0 197.501 197.501;" xml:space="preserve">
<path d="M189.23,77.661c4.832-21.562,8.118-58.415,8.256-59.973c0.099-1.118-0.276-2.225-1.034-3.053s-1.828-1.299-2.95-1.299
	h-82.115c-1.098,0-2.146,0.451-2.901,1.247c-0.756,0.796-1.15,1.867-1.093,2.963c0.025,0.494,2.602,49.523,2.968,63.063
	c0.326,12.072-1.197,25.069-14.438,38.307c-11.431,11.429-20.059,14.416-38.964,20.96c-2.658,0.92-5.508,1.907-8.582,2.992
	c-8.324,2.938-16.149,4.153-23.053,5.226c-13.183,2.048-25.634,3.982-25.317,19.435c0.281,13.808,6.831,16.637,16.579,16.637
	c2.801,0,6.013-0.214,9.731-0.462c5.193-0.346,11.08-0.738,18.188-0.738c15.375,0,24.354-2.084,33.038-4.101
	c8.201-1.904,15.947-3.702,29.013-3.702c12.901,0,19.949,1.764,27.41,3.631c8.192,2.051,16.664,4.171,32.782,4.171
	c11.563,0,19.996-3.468,25.068-10.308c6.573-8.866,7.053-22.761,1.424-41.299C186.731,109.914,184.735,97.714,189.23,77.661z
	 M136.855,90.906c3.765-25.195,5.625-57.669,6.215-69.57h17.453c-1.183,13.84-4.132,52.197-2.997,78.264
	c-0.031,0.308-0.037,0.621,0.007,0.941c0.025,0.18,0.04,0.354,0.062,0.533c0.075,1.479,0.163,2.914,0.267,4.299
	c-0.015,5.806-1.666,10.451-4.763,13.096c-2.134,1.823-4.859,2.533-7.107,1.856C138.416,118.045,136.078,98.114,136.855,90.906z
	 M175.337,158.947c-2.353,3.849-5.209,5.566-9.264,5.566c-6.203,0-14.197-4.117-21.25-7.749c-6.675-3.438-12.98-6.685-18.357-6.976
	c-0.526-0.028-1.083-0.042-1.666-0.042c-13.759,0-43.604,8.149-66.219,14.986c-5.24,1.584-18.589,5.269-29.351,5.269
	c-7.489,0-11.535-1.672-12.023-4.971c-0.172-1.162,0.108-1.527,0.228-1.684c1.729-2.256,10.109-3.234,18.214-4.18
	c10.089-1.177,22.646-2.643,35.941-7.06c3.053-1.015,5.976-1.966,8.771-2.877c23.822-7.76,39.56-12.886,48.96-28.795
	c0.917-1.553,1.78-3.636,2.593-6.131c2.244,6.408,5.921,11.919,11.771,13.681c1.339,0.403,2.72,0.601,4.106,0.601
	c3.689,0,7.418-1.398,10.504-4.035c0.788-0.673,1.679-1.571,2.567-2.701c0.175,0.401,0.354,0.78,0.544,1.116
	c2.631,4.663,6.153,8.443,9.262,11.779C177.996,142.611,182.42,147.358,175.337,158.947z"/>
<g>
</g>
<g>
</g>
<g>
</g>
<g>
</g>
<g>
</g>
<g>
</g>
<g>
</g>
<g>
</g>
<g>
</g>
<g>
</g>
<g>
</g>
<g>
</g>
<g>
</g>
<g>
</g>
<g>
</g>
</svg>
