<?xml version="1.0" encoding="iso-8859-1"?>
<!-- Generator: Adobe Illustrator 17.1.0, SVG Export Plug-In . SVG Version: 6.00 Build 0)  -->
<!DOCTYPE svg PUBLIC "-//W3C//DTD SVG 1.1//EN" "http://www.w3.org/Graphics/SVG/1.1/DTD/svg11.dtd">
<svg version="1.1" id="Capa_1" xmlns="http://www.w3.org/2000/svg" xmlns:xlink="http://www.w3.org/1999/xlink" x="0px" y="0px"
	 viewBox="0 0 197.681 197.681" style="enable-background:new 0 0 197.681 197.681;" xml:space="preserve">
<path d="M177.534,68.814c-0.675-2.822-6.863-27.796-15.953-35.588c-5.329-4.567-16.85-6.776-27.991-8.913
	c-5.315-1.019-12.496-2.396-14.506-3.503c-0.96-2.619-1.222-10.417-0.848-16.567c0.067-1.101-0.323-2.181-1.079-2.984
	S115.348,0,114.244,0H83.437c-1.103,0-2.157,0.456-2.913,1.259s-1.146,1.883-1.08,2.984c0.375,6.149,0.112,13.948-0.847,16.567
	c-2.011,1.107-9.191,2.484-14.506,3.503c-11.142,2.136-22.663,4.345-27.992,8.913c-9.089,7.792-15.277,32.766-15.953,35.588
	c-0.25,1.042-0.07,2.141,0.498,3.05s1.477,1.552,2.523,1.785l20.125,4.482c1.567,0.349,3.194-0.274,4.127-1.583l2.136-2.999
	c1.926,15.856,5.364,46.056,5.364,59.549c0,18.014-9.006,38.307-9.097,38.51c-0.61,1.361-0.414,2.949,0.511,4.119
	c0.402,0.509,10.007,12.521,22.822,17.028c8.678,3.052,20.202,4.312,26.299,4.792c1.125,0.088,2.263,0.133,3.385,0.133
	c1.122,0,2.26-0.045,3.385-0.133c6.098-0.48,17.622-1.74,26.3-4.792c12.814-4.506,22.419-16.519,22.821-17.028
	c0.926-1.171,1.123-2.759,0.511-4.121c-0.091-0.203-9.097-20.449-9.097-38.508c0-13.72,3.555-44.715,5.46-60.338l3.176,3.966
	c0.964,1.204,2.532,1.745,4.035,1.395l19.126-4.482c1.036-0.243,1.933-0.889,2.491-1.794
	C177.607,70.94,177.782,69.849,177.534,68.814z M73.503,79.501c-0.74,0.75-1.77,1.17-2.83,1.17c-1.05,0-2.09-0.42-2.83-1.17
	c-0.74-0.74-1.17-1.77-1.17-2.83c0-1.05,0.43-2.08,1.17-2.83c0.75-0.74,1.78-1.17,2.83-1.17c1.05,0,2.08,0.43,2.83,1.17
	c0.74,0.75,1.17,1.78,1.17,2.83C74.673,77.731,74.243,78.761,73.503,79.501z M101.673,158.671c-0.75,0.74-1.78,1.17-2.83,1.17
	c-1.06,0-2.09-0.43-2.83-1.17c-0.75-0.75-1.17-1.78-1.17-2.83s0.42-2.08,1.17-2.83c0.74-0.74,1.77-1.17,2.83-1.17
	c1.05,0,2.08,0.43,2.83,1.17c0.74,0.75,1.17,1.78,1.17,2.83S102.413,157.921,101.673,158.671z M129.833,79.501
	c-0.74,0.75-1.77,1.17-2.83,1.17c-1.05,0-2.08-0.42-2.83-1.17c-0.74-0.74-1.17-1.78-1.17-2.83c0-1.05,0.43-2.08,1.17-2.83
	c0.75-0.74,1.78-1.17,2.83-1.17c1.061,0,2.09,0.43,2.83,1.17c0.75,0.75,1.17,1.78,1.17,2.83
	C131.003,77.731,130.583,78.761,129.833,79.501z"/>
<g>
</g>
<g>
</g>
<g>
</g>
<g>
</g>
<g>
</g>
<g>
</g>
<g>
</g>
<g>
</g>
<g>
</g>
<g>
</g>
<g>
</g>
<g>
</g>
<g>
</g>
<g>
</g>
<g>
</g>
</svg>
