<?xml version="1.0" encoding="iso-8859-1"?>
<!-- Generator: Adobe Illustrator 17.1.0, SVG Export Plug-In . SVG Version: 6.00 Build 0)  -->
<!DOCTYPE svg PUBLIC "-//W3C//DTD SVG 1.1//EN" "http://www.w3.org/Graphics/SVG/1.1/DTD/svg11.dtd">
<svg version="1.1" id="Capa_1" xmlns="http://www.w3.org/2000/svg" xmlns:xlink="http://www.w3.org/1999/xlink" x="0px" y="0px"
	 viewBox="0 0 188.975 188.975" style="enable-background:new 0 0 188.975 188.975;" xml:space="preserve">
<path d="M132.384,87.895c0.155,0.433,0.241,0.891,0.241,1.352c0,0.48-0.139,11.819-12.168,16.706
	c-0.615,0.25-1.239,0.469-1.868,0.674c-3.882-2.983-16.636-11.569-33.402-10.282c-2.326,0.179-6.025-0.036-9.949-0.411
	c0.007-0.002,0.014-0.003,0.021-0.005c4.799-1.31,9.433-3.744,13.915-6.1c4.289-2.254,8.725-4.584,13.107-5.796
	C108.211,82.391,123.547,85.453,132.384,87.895z M178.461,61.33c-5.046,3.713-11.181,5.518-18.757,5.518
	c-4.338,0-8.513-0.552-12.549-1.086c-3.33-0.439-6.476-0.855-9.138-0.855c-4.149,0-5.613,1.031-6.424,1.929
	c-3.004,3.325-3.105,7.972-2.348,12.004c-8.022-1.909-21.709-4.558-29.097-2.517c-5.211,1.441-10.032,3.975-14.695,6.425
	c-4.291,2.255-8.343,4.384-12.299,5.463c-9.246,2.521-15.57,6.074-15.834,6.224c-1.478,0.838-2.265,2.518-1.965,4.188
	c0.301,1.672,1.625,2.971,3.301,3.241c0.78,0.125,19.188,3.068,27.144,2.458c8.94-0.687,16.635,2.115,21.806,4.818
	c1.819,5.928,3.353,13.511,1.503,18.65c-0.495,1.373-1.176,2.486-1.967,3.415c-6.417-0.315-18.305-1.28-25.808-4.215
	c-9.552-3.738-12.249-9.314-12.336-9.498c-0.876-2.028-3.23-2.964-5.259-2.085c-2.028,0.876-2.961,3.23-2.085,5.259
	c0.384,0.889,4.117,8.824,16.765,13.773c4.721,1.847,10.714,2.999,16.304,3.719c-1.905,1.302-3.636,3.208-5.053,6.491
	c-5.127,11.873,0.148,32.885,0.202,33.095c0.307,1.197,0.042,2.47-0.716,3.445c-0.757,0.976-1.923,1.548-3.159,1.548H4
	c-2.209,0-4-1.791-4-4V10.24c0-2.209,1.791-4,4-4h177.633c1.779,0,3.345,1.176,3.841,2.884
	C185.934,10.707,196.526,48.036,178.461,61.33z M154.252,45.504c-0.419-0.587-10.434-14.372-25.022-14.372
	c-1.123,0-2.2,0.064-3.2,0.192c-4.121,0.523-7.67,2.913-9.736,6.557c-2.108,3.717-2.336,8.089-0.625,11.997l1.035,2.364
	c-0.157,0.439-0.427,0.833-0.792,1.146c-0.562,0.481-1.278,0.705-2.017,0.647c-5.196-0.459-8.845-2.416-10.845-5.815
	c-4.618-7.851-0.321-14.497-0.155-14.748c1.254-1.818,0.797-4.31-1.022-5.563c-1.82-1.257-4.31-0.796-5.563,1.022
	c-0.306,0.443-7.41,11.009-0.154,23.346c3.338,5.674,9.229,9.038,17.034,9.728c0.325,0.028,0.647,0.043,0.97,0.043
	c2.557,0,5-0.902,6.965-2.589c2.213-1.9,3.534-4.551,3.72-7.463c0.04-0.637-0.072-1.273-0.328-1.858l-1.519-3.468
	c-0.689-1.575-0.597-3.34,0.256-4.842c0.81-1.429,2.189-2.364,3.787-2.567c0.667-0.085,1.404-0.128,2.19-0.128
	c10.438,0,18.438,10.92,18.519,11.03c1.285,1.791,3.779,2.204,5.574,0.922C155.12,49.8,155.536,47.302,154.252,45.504z"/>
<g>
</g>
<g>
</g>
<g>
</g>
<g>
</g>
<g>
</g>
<g>
</g>
<g>
</g>
<g>
</g>
<g>
</g>
<g>
</g>
<g>
</g>
<g>
</g>
<g>
</g>
<g>
</g>
<g>
</g>
</svg>
