<?xml version="1.0" encoding="iso-8859-1"?>
<!-- Generator: Adobe Illustrator 17.1.0, SVG Export Plug-In . SVG Version: 6.00 Build 0)  -->
<!DOCTYPE svg PUBLIC "-//W3C//DTD SVG 1.1//EN" "http://www.w3.org/Graphics/SVG/1.1/DTD/svg11.dtd">
<svg version="1.1" id="Capa_1" xmlns="http://www.w3.org/2000/svg" xmlns:xlink="http://www.w3.org/1999/xlink" x="0px" y="0px"
	 viewBox="0 0 207.5 207.5" style="enable-background:new 0 0 207.5 207.5;" xml:space="preserve">
<path d="M206.462,101.061c-1.872-2.063-46.497-50.519-102.712-50.519c-56.216,0-100.84,48.457-102.712,50.52
	c-1.384,1.525-1.384,3.851,0,5.376c1.872,2.063,46.496,50.52,102.712,50.52c56.215,0,100.84-48.457,102.712-50.52
	C207.845,104.913,207.845,102.586,206.462,101.061z M103.75,147.327c-24.028,0-43.577-19.549-43.577-43.577
	s19.549-43.577,43.577-43.577s43.577,19.548,43.577,43.577S127.778,147.327,103.75,147.327z M103.75,68.173
	c-19.617,0-35.577,15.959-35.577,35.577s15.96,35.577,35.577,35.577s35.577-15.96,35.577-35.577S123.367,68.173,103.75,68.173z
	 M122.579,103.75c0,10.383-8.446,18.83-18.829,18.83s-18.83-8.447-18.83-18.83s8.447-18.83,18.83-18.83
	S122.579,93.367,122.579,103.75z"/>
<g>
</g>
<g>
</g>
<g>
</g>
<g>
</g>
<g>
</g>
<g>
</g>
<g>
</g>
<g>
</g>
<g>
</g>
<g>
</g>
<g>
</g>
<g>
</g>
<g>
</g>
<g>
</g>
<g>
</g>
</svg>
