<?xml version="1.0" encoding="iso-8859-1"?>
<!-- Generator: Adobe Illustrator 17.1.0, SVG Export Plug-In . SVG Version: 6.00 Build 0)  -->
<!DOCTYPE svg PUBLIC "-//W3C//DTD SVG 1.1//EN" "http://www.w3.org/Graphics/SVG/1.1/DTD/svg11.dtd">
<svg version="1.1" id="Capa_1" xmlns="http://www.w3.org/2000/svg" xmlns:xlink="http://www.w3.org/1999/xlink" x="0px" y="0px"
	 viewBox="0 0 206.676 206.676" style="enable-background:new 0 0 206.676 206.676;" xml:space="preserve">
<path d="M188.016,128.846c-9.752,55-47.061,77.83-64.867,77.83c-17.906,0-29.789-27.987-31.085-31.179
	c-0.734-1.809-0.056-3.883,1.605-4.909c1.66-1.027,3.819-0.702,5.107,0.766c0.058,0.064,6.788,7.515,15.558,7.515h0.001
	c0.991,0,1.989-0.096,2.967-0.286c1.76-0.342,3.214-1.587,4.445-3.807c7.228-13.025,2.606-50.795-6.039-73.383
	c-8.158-21.312-21.711-25.785-31.644-25.785c-6.244,0-10.838,1.756-10.883,1.774c-1.151,0.447-2.46,0.342-3.52-0.293
	c-0.705-0.423-17.232-10.661-13.936-36.627C58.152,21.363,83.159,0,112.996,0c11.443,0,22.292,3.161,32.245,9.394
	C183.437,33.314,197.829,73.504,188.016,128.846z M109.447,151.395c-0.037-0.002-2.524-0.134-7.28-1.36l8.639-13.745
	c1.176-1.871,0.612-4.34-1.258-5.515c-1.873-1.176-4.34-0.612-5.516,1.258l-9.77,15.545c-0.408-0.146-0.81-0.288-1.234-0.445
	c-7.589-2.815-11.115-7.82-12.348-9.999c0.537-1.839,1.701-5.495,3.749-10.557c0.36-0.351,1.384-1.237,3.821-2.705
	c2.199-1.324,11.581-1.795,18.957-1.405c2.207,0.108,4.089-1.577,4.206-3.783s-1.576-4.089-3.781-4.206
	c-2.939-0.157-10.784-0.436-17.029,0.555c4.94-6.81,11.178-12.614,11.263-12.692c1.622-1.5,1.723-4.03,0.224-5.652
	c-1.497-1.622-4.028-1.723-5.65-0.226c-0.524,0.484-12.886,11.969-17.676,22.947c-0.555,1.271-1.064,2.479-1.533,3.627l0,0.001l0,0
	c-1.741,4.256-2.912,7.631-3.65,9.952c-4.562-0.695-12.581-1.575-19.454-0.577c-0.756-5.911-1.505-15.03-0.303-20.28
	c1.492-6.509,3.182-7.371,13.025-9.786c10.99-2.696,21.81-14.197,22.265-14.685c1.507-1.616,1.418-4.147-0.198-5.653
	c-1.615-1.507-4.146-1.417-5.653,0.198c-2.648,2.84-11.101,10.6-18.319,12.371c-10.355,2.54-16.339,4.525-18.917,15.768
	c-1.638,7.15-0.481,18.342,0.289,24.012c-11.2,3.547-27.418,10.622-28.243,10.983c-2.023,0.885-2.946,3.244-2.062,5.268
	c0.886,2.023,3.241,2.948,5.269,2.061c0.236-0.104,23.752-10.366,32.798-12.14c6.691-1.311,15.819-0.056,19.683,0.594
	c1.939,3.364,6.776,9.909,16.486,13.511c1.636,0.607,3.161,1.13,4.591,1.592c0.017,0.005,0.034,0.011,0.051,0.016
	c9.138,2.946,14.05,3.141,14.285,3.148c0.043,0.001,0.085,0.002,0.127,0.002c2.142,0,3.903-1.696,3.983-3.852
	C113.365,153.342,111.644,151.49,109.447,151.395z"/>
<g>
</g>
<g>
</g>
<g>
</g>
<g>
</g>
<g>
</g>
<g>
</g>
<g>
</g>
<g>
</g>
<g>
</g>
<g>
</g>
<g>
</g>
<g>
</g>
<g>
</g>
<g>
</g>
<g>
</g>
</svg>
