<?xml version="1.0" encoding="iso-8859-1"?>
<!-- Generator: Adobe Illustrator 17.1.0, SVG Export Plug-In . SVG Version: 6.00 Build 0)  -->
<!DOCTYPE svg PUBLIC "-//W3C//DTD SVG 1.1//EN" "http://www.w3.org/Graphics/SVG/1.1/DTD/svg11.dtd">
<svg version="1.1" id="Capa_1" xmlns="http://www.w3.org/2000/svg" xmlns:xlink="http://www.w3.org/1999/xlink" x="0px" y="0px"
	 viewBox="0 0 183.67 183.67" style="enable-background:new 0 0 183.67 183.67;" xml:space="preserve">
<path d="M178.615,168.25v11.42c0,2.209-1.791,4-4,4H9.055c-2.209,0-4-1.791-4-4v-11.42H178.615z M23.812,109.953
	c6.879,6.046,18.833,7.502,27.027,6.297c2.492-0.366,5.994-2.112,9.702-3.961c2.926-1.459,6.148-3.046,9.571-4.333
	c-0.045-4.338,0.238-9.221,0.943-14.706h-62c-2.209,0-4,1.791-4,4v7.143C10.667,104.211,18.262,105.076,23.812,109.953z
	 M143.907,4.488c0.03-0.049,0.053-0.098,0.079-0.148c0.058-0.108,0.111-0.216,0.153-0.326c0.022-0.056,0.042-0.112,0.06-0.168
	c0.035-0.108,0.062-0.217,0.083-0.326c0.01-0.052,0.022-0.104,0.029-0.156c0.018-0.136,0.026-0.271,0.025-0.405
	c0-0.023,0.003-0.047,0.003-0.07c-0.005-0.157-0.025-0.312-0.055-0.464c-0.009-0.044-0.022-0.087-0.033-0.13
	c-0.026-0.108-0.056-0.214-0.094-0.318c-0.018-0.051-0.039-0.101-0.06-0.15c-0.04-0.096-0.086-0.189-0.135-0.28
	c-0.025-0.046-0.049-0.092-0.076-0.137c-0.062-0.101-0.13-0.197-0.202-0.291c-0.021-0.027-0.04-0.057-0.062-0.083
	c-0.097-0.116-0.202-0.225-0.314-0.326c-0.028-0.025-0.059-0.046-0.088-0.07c-0.087-0.073-0.177-0.141-0.272-0.203
	c-0.043-0.028-0.088-0.053-0.133-0.079c-0.087-0.05-0.177-0.096-0.269-0.136c-0.048-0.021-0.095-0.042-0.144-0.06
	c-0.102-0.038-0.206-0.067-0.313-0.092c-0.041-0.01-0.08-0.023-0.122-0.03c-0.148-0.027-0.298-0.041-0.452-0.04
	c-0.025,0-0.05,0.005-0.074,0.006c-0.128,0.005-0.256,0.02-0.386,0.045c-0.049,0.01-0.098,0.023-0.147,0.036
	c-0.113,0.029-0.226,0.068-0.339,0.114c-0.047,0.019-0.095,0.037-0.142,0.059c-0.157,0.074-0.314,0.16-0.47,0.27
	c-8.963,6.316-19.906,15.065-29.92,25.923c-1.335,1.448-2.654,2.933-3.949,4.455c-1.295,1.522-2.567,3.08-3.809,4.675
	C94.211,45.947,87.422,57.83,83.809,71.02c-0.311,1.136-0.605,2.247-0.886,3.342c-0.103,0.401-0.197,0.789-0.296,1.185
	c-0.169,0.674-0.338,1.348-0.496,2.007c-0.12,0.498-0.231,0.985-0.345,1.475c-0.122,0.527-0.244,1.052-0.359,1.569
	c-0.122,0.549-0.239,1.089-0.353,1.626c-0.091,0.425-0.179,0.847-0.265,1.264c-0.122,0.593-0.239,1.179-0.352,1.758
	c-0.062,0.321-0.122,0.638-0.182,0.955c-0.121,0.646-0.24,1.287-0.349,1.915c-0.033,0.19-0.064,0.376-0.096,0.564
	c-0.269,1.575-0.506,3.102-0.707,4.569H79.12c-0.644,4.706-0.947,8.854-1.004,12.52c0,0,0.001,0,0.001,0
	c-0.034,2.247,0.023,4.313,0.153,6.208c0.001,0.01,0.001,0.021,0.002,0.031c0.043,0.628,0.095,1.237,0.154,1.827l0,0
	c0.849,8.509,3.192,13.229,4.753,15.635c0.025,0.039,0.051,0.076,0.077,0.115c1.002,1.512,1.781,2.076,1.781,2.076
	c1.225,1.104,2.703,1.901,4.327,2.299c0,0,0,0-0.001,0c0.348,0.085,0.703,0.15,1.063,0.199c0.038,0.005,0.075,0.012,0.113,0.016
	c0.373,0.046,0.753,0.074,1.138,0.074c0.003,0,0.006,0,0.009,0c0.305,0,0.605-0.02,0.904-0.048c0.112-0.011,0.222-0.025,0.333-0.039
	c0.185-0.024,0.367-0.054,0.548-0.088c0.131-0.025,0.263-0.047,0.392-0.077c0.235-0.054,0.466-0.117,0.694-0.188
	c0.012-0.004,0.025-0.006,0.038-0.01l-0.001,0c4.224-1.321,7.306-5.431,7.306-10.304c0,0-0.028-2.311,0.071-6.226l0,0
	c0-0.002,0-0.004,0-0.005c0.208-8.223,0.978-23.516,3.737-39.338c0.008-0.044,0.015-0.088,0.023-0.132
	c0.148-0.847,0.302-1.696,0.462-2.546c0.006-0.031,0.012-0.062,0.018-0.093c0.321-1.699,0.666-3.4,1.037-5.095
	c0.015-0.07,0.03-0.14,0.046-0.21c0.175-0.798,0.357-1.594,0.544-2.388c0.026-0.113,0.053-0.225,0.08-0.337
	c0.187-0.785,0.379-1.568,0.577-2.348c0.024-0.094,0.048-0.187,0.072-0.281c0.412-1.605,0.85-3.196,1.314-4.767
	c0.031-0.106,0.062-0.212,0.093-0.317c0.222-0.742,0.45-1.478,0.684-2.21c0.042-0.132,0.085-0.264,0.127-0.396
	c0.236-0.728,0.477-1.45,0.725-2.166c0.038-0.109,0.077-0.217,0.115-0.326c0.262-0.748,0.529-1.49,0.806-2.222
	c6.242-16.537,20.196-34.587,31.146-47.153C143.707,4.794,143.813,4.642,143.907,4.488z M174.615,93.25h-62.991
	c-0.732,6.585-1.156,12.669-1.4,17.621c10.268,2.119,21.171,3.764,29.929,2.62c7.047-0.919,12.133-3.024,17.052-5.059
	c6.505-2.692,12.664-5.229,21.41-4.105V97.25C178.615,95.041,176.824,93.25,174.615,93.25z M160.264,115.825
	c-5.147,2.129-10.981,4.543-19.075,5.599c-9.514,1.24-20.716-0.328-31.249-2.447c-0.055,2.735-0.042,4.344-0.041,4.423
	c0,0.032,0.001,0.064,0.001,0.096c0,10.341-8.174,18.754-18.222,18.754c-4.321,0-8.498-1.583-11.792-4.464
	c-0.797-0.654-2.01-1.837-3.297-3.779c-0.045-0.067-0.089-0.134-0.133-0.201c-2.483-3.834-4.772-9.419-5.79-17.458
	c-2.247,0.962-4.447,2.05-6.555,3.1c-4.295,2.142-8.353,4.164-12.107,4.716c-2.103,0.309-4.376,0.474-6.735,0.474
	c-9.189,0-19.705-2.497-26.737-8.677c-3.676-3.231-9.275-3.735-13.476-3.558v47.845h173.561V112.4
	c-0.177-0.027-0.344-0.052-0.526-0.079C171.185,111.306,166.365,113.301,160.264,115.825z"/>
<g>
</g>
<g>
</g>
<g>
</g>
<g>
</g>
<g>
</g>
<g>
</g>
<g>
</g>
<g>
</g>
<g>
</g>
<g>
</g>
<g>
</g>
<g>
</g>
<g>
</g>
<g>
</g>
<g>
</g>
</svg>
