<?xml version="1.0" encoding="iso-8859-1"?>
<!-- Generator: Adobe Illustrator 17.1.0, SVG Export Plug-In . SVG Version: 6.00 Build 0)  -->
<!DOCTYPE svg PUBLIC "-//W3C//DTD SVG 1.1//EN" "http://www.w3.org/Graphics/SVG/1.1/DTD/svg11.dtd">
<svg version="1.1" id="Capa_1" xmlns="http://www.w3.org/2000/svg" xmlns:xlink="http://www.w3.org/1999/xlink" x="0px" y="0px"
	 viewBox="0 0 188.758 188.758" style="enable-background:new 0 0 188.758 188.758;" xml:space="preserve">
<path d="M121.577,1.802c-0.676-0.145-1.403-0.218-2.162-0.218c-4.322,0-9.431,2.37-13.938,4.461
	c-2.056,0.954-4.181,1.94-5.191,2.166c-3.444,0.768-5.562,0.668-5.615,0.667c-0.151-0.011-0.326-0.013-0.477-0.006l-0.212,0.003
	c-0.7,0-2.645-0.066-5.563-0.676c-0.969-0.202-3.209-1.242-5.186-2.16c-4.499-2.088-9.598-4.455-13.903-4.455
	c-0.755,0-1.478,0.073-2.149,0.217C55.962,4.204,0,20.444,0,104.376c0,32.653,13.453,57.116,38.905,70.743
	C59.228,186,81.774,187.175,90.524,187.175c1.97,0,3.313-0.058,3.854-0.087c0.541,0.029,1.886,0.087,3.854,0.087
	c0.001,0,0.001,0,0.003,0c8.754,0,31.296-1.175,51.614-12.053c25.453-13.627,38.907-38.09,38.907-70.746
	C188.758,20.444,132.796,4.204,121.577,1.802z M147.475,135.561c-17.353,5.121-39.891,7.189-49.096,7.857v-19.992
	c35.963,0.401,49.109,6.193,53.899,10.212C150.786,134.404,149.188,135.056,147.475,135.561z M90.379,123.426v19.993
	c-9.201-0.667-31.727-2.733-49.096-7.858c-1.893-0.559-3.64-1.3-5.264-2.172C41.578,129.315,55.529,123.818,90.379,123.426z
	 M158.938,128.919c-1.549-1.593-3.511-3.046-5.877-4.359c0.529-0.693,1.023-1.477,1.462-2.377
	c2.782-5.701,2.822-14.558,0.127-27.875c-4.688-23.157-29.385-30.039-43.688-32.08c-0.559-0.08-1.126-0.12-1.687-0.12
	c-6.548,0-11.875,5.352-11.875,11.93c0,4.939,2.446,6.964,4.065,8.305c1.52,1.259,2.956,2.448,2.956,9.214
	c0,10.119-8.402,10.789-10.026,10.82c-1.03-0.004-10.06-0.343-10.06-10.82c0-6.766,1.437-7.956,2.956-9.214
	c1.619-1.341,4.065-3.366,4.065-8.305c0-6.578-5.327-11.93-11.875-11.93c-0.561,0-1.128,0.041-1.687,0.12
	c-14.304,2.041-39,8.923-43.688,32.08c-2.695,13.317-2.655,22.175,0.127,27.875c0.382,0.782,0.807,1.472,1.259,2.096
	c-2.435,1.255-4.485,2.646-6.164,4.166c-9.063-8.838-12.005-21.894-12.526-24.568c0.442-3.344,3.635-22.87,19.481-39.687
	C53.014,46.435,92.442,45.162,94.38,45.112c1.95,0.049,41.336,1.294,58.094,19.078c15.771,16.738,19.028,36.354,19.48,39.692
	C171.418,106.63,168.378,120.092,158.938,128.919z"/>
<g>
</g>
<g>
</g>
<g>
</g>
<g>
</g>
<g>
</g>
<g>
</g>
<g>
</g>
<g>
</g>
<g>
</g>
<g>
</g>
<g>
</g>
<g>
</g>
<g>
</g>
<g>
</g>
<g>
</g>
</svg>
