<?xml version="1.0" encoding="iso-8859-1"?>
<!-- Generator: Adobe Illustrator 17.1.0, SVG Export Plug-In . SVG Version: 6.00 Build 0)  -->
<!DOCTYPE svg PUBLIC "-//W3C//DTD SVG 1.1//EN" "http://www.w3.org/Graphics/SVG/1.1/DTD/svg11.dtd">
<svg version="1.1" id="Capa_1" xmlns="http://www.w3.org/2000/svg" xmlns:xlink="http://www.w3.org/1999/xlink" x="0px" y="0px"
	 viewBox="0 0 210.333 210.333" style="enable-background:new 0 0 210.333 210.333;" xml:space="preserve">
<path d="M206.333,101.167H193.94c-11.934,0-23.169-6.351-29.323-16.576l-4.857-8.067C148.445,48.965,121.329,29.5,89.74,29.5
	c-25.63,0-48.996,13.012-62.79,33.451C21.582,65.491,0,77.335,0,103.595c0,26.442,22.023,40.801,26.86,43.635
	c4.168,6.224,9.256,11.85,15.125,16.631c13.436,10.944,30.396,16.972,47.756,16.972c31.589,0,58.704-19.464,70.02-47.023
	l4.857-8.068c6.154-10.224,17.39-16.575,29.323-16.575h12.393c2.209,0,4-1.791,4-4S208.542,101.167,206.333,101.167z M8,103.595
	c0-11.87,5.479-20.179,11.11-25.588c-0.885,2.3-1.675,4.651-2.338,7.064c-0.585,2.13,0.667,4.332,2.798,4.917
	c0.487,0.134,0.976,0.161,1.45,0.114c-0.032,0.243-0.063,0.481-0.092,0.711c-0.493,3.861-0.765,8.959-0.765,14.354
	c0,4.151,0.162,8.12,0.461,11.492c-0.56-0.13-1.153-0.152-1.752-0.021c-2.158,0.472-3.525,2.604-3.053,4.762
	c0.588,2.688,1.339,5.331,2.217,7.927C12.785,123.17,8,114.562,8,103.595z M89.74,172.833c-28.39,0-53.722-18.078-63.437-44.112
	c0.121,0.008,0.234,0.028,0.36,0.028c2.443,0,3.774-1.6,4.561-3.647c8.461,23.648,31.084,40.618,57.605,40.618
	c33.728,0,61.167-27.439,61.167-61.167S122.558,43.387,88.83,43.387c-26.771,0-49.564,17.295-57.834,41.293
	c-0.811-1.776-2.113-3.097-4.332-3.097c-0.132,0-0.25,0.02-0.375,0.029C36.028,55.37,61.332,37.5,89.74,37.5
	c37.312,0,67.667,30.355,67.667,67.667S127.052,172.833,89.74,172.833z M165.033,112.66c0.244-2.466,0.374-4.965,0.374-7.494
	c0-2.529-0.13-5.028-0.374-7.494c3.279,3.071,7.023,5.599,11.076,7.494C172.056,107.062,168.313,109.59,165.033,112.66z"/>
<g>
</g>
<g>
</g>
<g>
</g>
<g>
</g>
<g>
</g>
<g>
</g>
<g>
</g>
<g>
</g>
<g>
</g>
<g>
</g>
<g>
</g>
<g>
</g>
<g>
</g>
<g>
</g>
<g>
</g>
</svg>
