<?xml version="1.0" encoding="iso-8859-1"?>
<!-- Generator: Adobe Illustrator 17.1.0, SVG Export Plug-In . SVG Version: 6.00 Build 0)  -->
<!DOCTYPE svg PUBLIC "-//W3C//DTD SVG 1.1//EN" "http://www.w3.org/Graphics/SVG/1.1/DTD/svg11.dtd">
<svg version="1.1" id="Capa_1" xmlns="http://www.w3.org/2000/svg" xmlns:xlink="http://www.w3.org/1999/xlink" x="0px" y="0px"
	 viewBox="0 0 207.898 207.898" style="enable-background:new 0 0 207.898 207.898;" xml:space="preserve">
<path d="M206.727,50.11l-34.252-34.252c-1.482-1.482-3.856-1.569-5.444-0.198c-5.475,4.733-10.94,9.822-16.245,15.128
	c-16.876,16.876-30.901,34.654-39.491,50.061c-8.015,14.376-10.49,25.345-7.358,32.144L64.06,152.868l-3.077-3.077
	c-1.563-1.563-4.096-1.563-5.656,0l-3.506,3.506c-1.359,1.358-3.166,2.107-5.088,2.107c-1.921,0-3.728-0.749-5.087-2.107
	l-9.549-9.549c-3.752-3.753-8.741-5.819-14.048-5.819s-10.296,2.066-14.048,5.819l-2.83,2.83C0.422,147.329,0,148.346,0,149.407
	s0.422,2.078,1.172,2.828l39.807,39.806c0.781,0.781,1.805,1.172,2.828,1.172s2.047-0.391,2.828-1.172l25.472-25.471
	c0.75-0.75,1.172-1.768,1.172-2.828s-0.422-2.078-1.172-2.828l-2.39-2.39l39.86-39.859c1.906,0.883,4.138,1.337,6.687,1.337
	c16.348,0,46.702-19.37,75.533-48.202c5.306-5.305,10.395-10.771,15.128-16.245C208.296,53.967,208.209,51.592,206.727,50.11z"/>
<g>
</g>
<g>
</g>
<g>
</g>
<g>
</g>
<g>
</g>
<g>
</g>
<g>
</g>
<g>
</g>
<g>
</g>
<g>
</g>
<g>
</g>
<g>
</g>
<g>
</g>
<g>
</g>
<g>
</g>
</svg>
