<?xml version="1.0" encoding="iso-8859-1"?>
<!-- Generator: Adobe Illustrator 17.1.0, SVG Export Plug-In . SVG Version: 6.00 Build 0)  -->
<!DOCTYPE svg PUBLIC "-//W3C//DTD SVG 1.1//EN" "http://www.w3.org/Graphics/SVG/1.1/DTD/svg11.dtd">
<svg version="1.1" id="Capa_1" xmlns="http://www.w3.org/2000/svg" xmlns:xlink="http://www.w3.org/1999/xlink" x="0px" y="0px"
	 viewBox="0 0 199.333 199.333" style="enable-background:new 0 0 199.333 199.333;" xml:space="preserve">
<path d="M199.333,154.384v19.989c0,2.209-1.791,4-4,4H4c-2.209,0-4-1.791-4-4v-19.989c0-2.209,1.791-4,4-4h191.333
	C197.542,150.384,199.333,152.175,199.333,154.384z M195.333,111.951h-20.668c0.452-4.781,1.642-10.937,4.426-17.868
	c6.256-15.571,11.427-19.69,11.421-19.69c1.813-1.262,2.26-3.755,0.998-5.568s-3.754-2.261-5.568-0.998
	c-0.699,0.487-7.043,5.276-14.274,23.274c-3.244,8.075-4.568,15.275-5.029,20.851H155.27c-0.03-9.879,1.444-26.025,9.037-44.925
	c12.398-30.864,22.777-38.737,22.839-38.783c1.813-1.262,2.26-3.755,0.998-5.568c-1.262-1.813-3.754-2.26-5.568-0.998
	c-0.491,0.342-12.192,8.765-25.692,42.367c-8.092,20.143-9.703,37.227-9.656,47.907h-20.408c-0.038-9.849,1.436-25.955,9.057-44.925
	c12.399-30.864,22.777-38.737,22.839-38.783c1.813-1.263,2.26-3.755,0.998-5.568c-1.262-1.813-3.753-2.26-5.568-0.998
	c-0.491,0.343-12.191,8.765-25.692,42.367c-8.092,20.143-9.703,37.227-9.656,47.907H96.372c0.219-7.653,1.668-18.999,6.955-32.157
	c9.504-23.657,17.425-29.753,17.45-29.773c1.813-1.262,2.26-3.755,0.998-5.568s-3.754-2.261-5.568-0.998
	c-0.98,0.683-9.883,7.418-20.304,33.357c-5.753,14.321-7.327,26.688-7.544,35.14H69.958c-0.038-9.849,1.435-25.955,9.056-44.925
	c12.399-30.864,22.778-38.737,22.84-38.783c1.813-1.262,2.26-3.755,0.998-5.568c-1.261-1.813-3.753-2.26-5.568-0.998
	c-0.491,0.342-12.192,8.765-25.693,42.367c-8.092,20.143-9.703,37.227-9.655,47.907H40.891c0.121-8.545,1.598-21.74,7.788-37.147
	C59.314,48.33,68.194,41.54,68.235,41.508c1.813-1.262,2.26-3.755,0.998-5.568c-1.261-1.813-3.754-2.26-5.568-0.998
	c-1.079,0.751-10.874,8.166-22.41,36.879c-6.658,16.573-8.265,30.776-8.38,40.13H20.093c0.219-7.653,1.668-18.999,6.955-32.157
	c9.504-23.657,17.426-29.753,17.451-29.773c1.813-1.262,2.26-3.755,0.998-5.568s-3.754-2.261-5.568-0.998
	c-0.98,0.683-9.884,7.418-20.305,33.357c-5.753,14.321-7.327,26.688-7.544,35.14H4c-2.209,0-4,1.791-4,4v19.989c0,2.209,1.791,4,4,4
	h191.333c2.209,0,4-1.791,4-4v-19.989C199.333,113.742,197.542,111.951,195.333,111.951z"/>
<g>
</g>
<g>
</g>
<g>
</g>
<g>
</g>
<g>
</g>
<g>
</g>
<g>
</g>
<g>
</g>
<g>
</g>
<g>
</g>
<g>
</g>
<g>
</g>
<g>
</g>
<g>
</g>
<g>
</g>
</svg>
