<?xml version="1.0" encoding="iso-8859-1"?>
<!-- Generator: Adobe Illustrator 17.1.0, SVG Export Plug-In . SVG Version: 6.00 Build 0)  -->
<!DOCTYPE svg PUBLIC "-//W3C//DTD SVG 1.1//EN" "http://www.w3.org/Graphics/SVG/1.1/DTD/svg11.dtd">
<svg version="1.1" id="Capa_1" xmlns="http://www.w3.org/2000/svg" xmlns:xlink="http://www.w3.org/1999/xlink" x="0px" y="0px"
	 viewBox="0 0 198.055 198.055" style="enable-background:new 0 0 198.055 198.055;" xml:space="preserve">
<path d="M109.079,94.184v8.947h17.067c4.467,0,8.102,3.635,8.102,8.102v10.622l15.997,5.608c2.085,0.73,3.183,3.013,2.451,5.098
	c-0.577,1.646-2.123,2.678-3.774,2.678c-0.439,0-0.886-0.072-1.323-0.227l-13.351-4.681v5.997c0,4.21-3.289,7.758-7.487,8.078
	l-17.682,1.343v8.947h17.067c4.467,0,8.102,3.635,8.102,8.102v10.622l15.997,5.609c2.085,0.73,3.183,3.014,2.451,5.098
	c-0.577,1.647-2.123,2.678-3.774,2.678c-0.439,0-0.886-0.072-1.323-0.227l-13.351-4.681v5.997c0,4.212-3.289,7.76-7.488,8.078
	l-27.119,2.06c-0.206,0.016-0.409,0.023-0.613,0.023s-0.407-0.008-0.611-0.023l-27.121-2.06c-4.199-0.318-7.489-3.866-7.489-8.078
	v-5.997l-13.35,4.681c-0.438,0.153-0.884,0.227-1.323,0.227c-1.651,0-3.197-1.03-3.774-2.678c-0.731-2.084,0.366-4.367,2.451-5.098
	l15.996-5.609v-10.623c0-4.467,3.635-8.102,8.103-8.102h17.067v-8.947l-17.681-1.343c-4.2-0.32-7.489-3.868-7.489-8.078v-5.997
	l-13.35,4.681c-0.438,0.154-0.884,0.227-1.323,0.227c-1.651,0-3.197-1.03-3.774-2.678c-0.731-2.085,0.366-4.367,2.451-5.098
	l15.996-5.608v-10.622c0-4.467,3.635-8.102,8.103-8.102h17.067v-8.947l-17.681-1.343c-4.2-0.32-7.489-3.868-7.489-8.078v-5.997
	l-13.35,4.681c-0.438,0.154-0.884,0.227-1.323,0.227c-1.651,0-3.197-1.03-3.774-2.678c-0.731-2.085,0.366-4.367,2.451-5.098
	l15.996-5.608V59.667c0-4.467,3.635-8.102,8.103-8.102h17.067v-8.947l-17.681-1.343c-4.2-0.32-7.489-3.869-7.489-8.079V27.2
	l-13.35,4.681c-0.438,0.153-0.884,0.227-1.323,0.227c-1.651,0-3.197-1.03-3.774-2.678c-0.731-2.084,0.366-4.367,2.451-5.098
	l15.996-5.609V8.102C63.806,3.635,67.44,0,71.908,0h54.238c4.467,0,8.102,3.635,8.102,8.102v10.621l15.997,5.609
	c2.085,0.73,3.183,3.014,2.451,5.098c-0.577,1.647-2.123,2.678-3.774,2.678c-0.439,0-0.886-0.072-1.323-0.227L134.248,27.2v5.997
	c0,4.21-3.289,7.759-7.487,8.079l-17.682,1.343v8.947h17.067c4.467,0,8.102,3.635,8.102,8.102v10.622l15.997,5.608
	c2.085,0.73,3.183,3.013,2.451,5.098c-0.577,1.646-2.123,2.678-3.774,2.678c-0.439,0-0.886-0.072-1.323-0.227l-13.351-4.681v5.997
	c0,4.21-3.289,7.758-7.487,8.078L109.079,94.184z"/>
<g>
</g>
<g>
</g>
<g>
</g>
<g>
</g>
<g>
</g>
<g>
</g>
<g>
</g>
<g>
</g>
<g>
</g>
<g>
</g>
<g>
</g>
<g>
</g>
<g>
</g>
<g>
</g>
<g>
</g>
</svg>
