<?xml version="1.0" encoding="iso-8859-1"?>
<!-- Generator: Adobe Illustrator 17.1.0, SVG Export Plug-In . SVG Version: 6.00 Build 0)  -->
<!DOCTYPE svg PUBLIC "-//W3C//DTD SVG 1.1//EN" "http://www.w3.org/Graphics/SVG/1.1/DTD/svg11.dtd">
<svg version="1.1" id="Capa_1" xmlns="http://www.w3.org/2000/svg" xmlns:xlink="http://www.w3.org/1999/xlink" x="0px" y="0px"
	 viewBox="0 0 191.756 191.756" style="enable-background:new 0 0 191.756 191.756;" xml:space="preserve">
<path d="M189.037,74.668c-7.97-32.176-34.188-32.853-48.274-33.216c-2.92-0.075-5.442-0.14-7.13-0.438
	c-8.423-1.487-13.116-7.29-14.345-17.741l-1.306-11.096c-0.23-1.956-1.849-3.453-3.816-3.53L97.522,7.994
	c-1.102-0.05-2.163,0.366-2.949,1.133c-0.786,0.766-1.223,1.822-1.208,2.919c0.014,1.013,0.457,25.028,10.605,43.634
	c5.42,9.936,15.738,34.799-5.449,51.042c-9.796,7.51-18.104,10.859-26.936,10.86c-5.97,0-12.088-1.415-20.025-3.697
	c-3.727-1.072-7.666-1.615-11.705-1.615c-15.869,0-29.768,8.159-34.586,20.302c-5.796,14.609-5.345,20.325-5.196,21.322
	c0.293,1.958,1.976,3.408,3.956,3.408H21c2.209,0,4-1.791,4-4c0-0.41,0.17-10.033,14.928-10.033c6.74,0,8.533,3.229,11.946,10.532
	c3.37,7.212,7.564,16.188,20.119,21.465c10.001,4.204,22.022,8.5,35.35,8.501c0.001,0,0.001,0,0.002,0
	c15.681,0,30.543-5.967,45.435-18.24C186.073,138.086,197.594,109.215,189.037,74.668z"/>
<g>
</g>
<g>
</g>
<g>
</g>
<g>
</g>
<g>
</g>
<g>
</g>
<g>
</g>
<g>
</g>
<g>
</g>
<g>
</g>
<g>
</g>
<g>
</g>
<g>
</g>
<g>
</g>
<g>
</g>
</svg>
