<?xml version="1.0" encoding="iso-8859-1"?>
<!-- Generator: Adobe Illustrator 17.1.0, SVG Export Plug-In . SVG Version: 6.00 Build 0)  -->
<!DOCTYPE svg PUBLIC "-//W3C//DTD SVG 1.1//EN" "http://www.w3.org/Graphics/SVG/1.1/DTD/svg11.dtd">
<svg version="1.1" id="Capa_1" xmlns="http://www.w3.org/2000/svg" xmlns:xlink="http://www.w3.org/1999/xlink" x="0px" y="0px"
	 viewBox="0 0 178.552 178.552" style="enable-background:new 0 0 178.552 178.552;" xml:space="preserve">
<path d="M169.044,60.925v28.926H144.22V69.374v-8.449c0-6.407,5.213-11.62,11.62-11.62h1.583
	C163.831,49.305,169.044,54.518,169.044,60.925z M115.977,49.131h-2.458c-11.162,0-20.243,9.081-20.243,20.243v20.477h42.944V69.374
	C136.22,58.212,127.139,49.131,115.977,49.131z M22.712,49.305h-1.583c-6.407,0-11.62,5.213-11.62,11.62v28.926h24.824V69.374
	v-8.449C34.332,54.518,29.119,49.305,22.712,49.305z M65.033,49.131h-2.458c-11.162,0-20.243,9.081-20.243,20.243v20.477h42.944
	V69.374C85.276,58.212,76.195,49.131,65.033,49.131z M177.941,23.487c-0.59-0.897-1.498-1.412-2.489-1.412H3.101
	c-0.992,0-1.899,0.515-2.489,1.412c-0.59,0.897-0.763,2.025-0.475,3.095l5.893,21.83c3.602-4.339,9.032-7.108,15.098-7.108h1.583
	c7.656,0,14.284,4.418,17.516,10.829c5.17-6.686,13.262-11.003,22.348-11.003h2.458c10.288,0,19.305,5.531,24.243,13.774
	c4.938-8.242,13.956-13.774,24.243-13.774h2.458c9.086,0,17.178,4.317,22.348,11.003c3.231-6.411,9.86-10.829,17.516-10.829h1.583
	c6.066,0,11.497,2.769,15.099,7.108l5.893-21.831C178.704,25.512,178.531,24.384,177.941,23.487z M14.33,130.804h0.895
	c2.659,0,4.822-2.163,4.822-4.821v-2.778c-0.272-1.299-0.418-2.643-0.418-4.021V97.851H9.508v28.132
	C9.508,128.642,11.671,130.804,14.33,130.804z M39.248,130.804h1.583c6.408,0,11.621-5.213,11.621-11.62V97.851H28.046v24.376
	C29.388,127.161,33.895,130.804,39.248,130.804z M126.1,119.184c0,6.407,5.213,11.62,11.62,11.62h1.584
	c6.407,0,11.62-5.213,11.62-11.62V97.851H126.1V119.184z M104.896,130.804h1.583c6.408,0,11.621-5.213,11.621-11.62V97.851H93.276
	v21.333C93.276,125.591,98.489,130.804,104.896,130.804z M163.746,130.804h0.895c2.659,0,4.821-2.163,4.821-4.821V97.851h-10.538
	v21.333v6.799C158.924,128.642,161.087,130.804,163.746,130.804z M177.949,150.946l-4.71-15.481c-2.277,2.067-5.289,3.339-8.6,3.339
	h-0.895c-4.431,0-8.343-2.26-10.647-5.688c-3.547,3.512-8.421,5.688-13.795,5.688h-1.584c-6.376,0-12.034-3.071-15.62-7.797
	c-3.586,4.726-9.244,7.797-15.621,7.797h-1.583c-6.376,0-12.034-3.071-15.62-7.797c-3.586,4.726-9.244,7.797-15.62,7.797h-1.583
	c-6.376,0-12.034-3.071-15.62-7.797c-3.586,4.726-9.244,7.797-15.621,7.797h-1.583c-5.252,0-10.018-2.086-13.544-5.459
	c-2.323,3.296-6.151,5.459-10.48,5.459H14.33c-3.469,0-6.616-1.39-8.927-3.637l-4.8,15.778c-0.399,1.312-0.16,2.696,0.657,3.798
	c0.817,1.102,2.072,1.734,3.443,1.734H173.85c1.372,0,2.626-0.632,3.443-1.734C178.109,153.643,178.348,152.258,177.949,150.946z
	 M72.072,130.804h1.583c6.407,0,11.62-5.213,11.62-11.62V97.851H60.452v21.333C60.452,125.591,65.665,130.804,72.072,130.804z"/>
<g>
</g>
<g>
</g>
<g>
</g>
<g>
</g>
<g>
</g>
<g>
</g>
<g>
</g>
<g>
</g>
<g>
</g>
<g>
</g>
<g>
</g>
<g>
</g>
<g>
</g>
<g>
</g>
<g>
</g>
</svg>
