<?xml version="1.0" encoding="iso-8859-1"?>
<!-- Generator: Adobe Illustrator 17.1.0, SVG Export Plug-In . SVG Version: 6.00 Build 0)  -->
<!DOCTYPE svg PUBLIC "-//W3C//DTD SVG 1.1//EN" "http://www.w3.org/Graphics/SVG/1.1/DTD/svg11.dtd">
<svg version="1.1" id="Capa_1" xmlns="http://www.w3.org/2000/svg" xmlns:xlink="http://www.w3.org/1999/xlink" x="0px" y="0px"
	 viewBox="0 0 199.671 199.671" style="enable-background:new 0 0 199.671 199.671;" xml:space="preserve">
<path d="M61.191,35.636c-0.031,0.014-4.99,2.05-11.217,7.742c-7.458,6.818-9.947,14.157-9.971,14.23
	c-0.551,1.664-2.103,2.744-3.795,2.744c-0.268,0-0.538-0.027-0.809-0.083L3.194,53.647c-1.696-0.349-2.976-1.75-3.169-3.472
	c-0.193-1.721,0.742-3.371,2.319-4.088l16.438-7.472L5.393,9.606C4.717,8.14,4.988,6.41,6.082,5.221s2.795-1.604,4.313-1.049
	l32.913,11.999l3.209-11.383c0.472-1.673,1.971-2.851,3.709-2.911c1.729-0.075,3.315,1.007,3.904,2.644l9.364,26.038
	C64.227,32.596,63.207,34.846,61.191,35.636z M186.324,108.053c0.51,5.804,1.337,22.917-3.789,44.33
	c-4.059,16.961-12.995,45.414-27.245,45.414c-8.636,0-12.012-13.734-15.922-29.638c-1.599-6.506-3.253-13.232-4.928-16.723
	c-0.396-0.823-0.855-1.629-1.367-2.393c-2.754-4.122-7.422-6.582-12.488-6.582s-9.734,2.46-12.488,6.579
	c-0.513,0.767-0.973,1.573-1.367,2.396c-1.676,3.489-3.33,10.217-4.93,16.724c-3.909,15.902-7.286,29.636-15.921,29.636
	c-14.249,0-23.187-28.453-27.245-45.414c-5.125-21.413-4.298-38.526-3.788-44.33c-3.886-3.848-13.348-14.776-13.348-29.94
	c0-19.777,13.745-39.798,40.016-39.798c13.159,0,23.622,2.034,30.081,3.74c5.871,1.551,12.111,1.551,17.979,0
	c6.46-1.706,16.923-3.74,30.083-3.74c26.27,0,40.015,20.021,40.015,39.798C199.671,93.276,190.21,104.205,186.324,108.053z
	 M129.828,64.905c6.939-2.46,11.38-2.779,11.518-2.788c2.199-0.117,3.892-1.992,3.781-4.194c-0.111-2.206-1.986-3.883-4.195-3.795
	c-0.526,0.027-8.656,0.525-20.347,5.868c-11.691-5.344-19.821-5.842-20.347-5.868c-2.214-0.1-4.068,1.58-4.187,3.78
	c-0.118,2.199,1.571,4.082,3.771,4.209c0.089,0.005,4.54,0.313,11.521,2.788c-4.403,2.668-9.088,5.989-13.913,10.139
	c-1.675,1.44-1.864,3.966-0.424,5.641c0.791,0.92,1.909,1.392,3.034,1.392c0.923,0,1.852-0.318,2.606-0.968
	c6.392-5.499,12.519-9.41,17.938-12.193c5.42,2.783,11.547,6.694,17.94,12.193c0.755,0.649,1.683,0.968,2.606,0.968
	c1.125,0,2.243-0.472,3.034-1.392c1.44-1.675,1.251-4.2-0.424-5.641C138.915,70.893,134.23,67.573,129.828,64.905z"/>
<g>
</g>
<g>
</g>
<g>
</g>
<g>
</g>
<g>
</g>
<g>
</g>
<g>
</g>
<g>
</g>
<g>
</g>
<g>
</g>
<g>
</g>
<g>
</g>
<g>
</g>
<g>
</g>
<g>
</g>
</svg>
