<?xml version="1.0" encoding="iso-8859-1"?>
<!-- Generator: Adobe Illustrator 17.1.0, SVG Export Plug-In . SVG Version: 6.00 Build 0)  -->
<!DOCTYPE svg PUBLIC "-//W3C//DTD SVG 1.1//EN" "http://www.w3.org/Graphics/SVG/1.1/DTD/svg11.dtd">
<svg version="1.1" id="Capa_1" xmlns="http://www.w3.org/2000/svg" xmlns:xlink="http://www.w3.org/1999/xlink" x="0px" y="0px"
	 viewBox="0 0 206.074 206.074" style="enable-background:new 0 0 206.074 206.074;" xml:space="preserve">
<path d="M200.46,190.293c-3.888,4.121-9.368,6.485-15.035,6.485h-41.452c-11.384,0-20.645-9.261-20.645-20.645V98.028h-1.895
	c-7.614,0-14.348-3.822-18.396-9.644c-4.049,5.823-10.783,9.644-18.396,9.644h-1.895v78.104c0,11.384-9.261,20.645-20.645,20.645
	H20.65c-5.667,0-11.147-2.364-15.035-6.485c-3.931-4.167-5.912-9.608-5.578-15.321c1.059-18.16,4.887-46.452,17.109-78.098
	C29.464,64.981,48.434,51.327,62.18,45.489c1.855-0.789,3.803-1.188,5.786-1.188c8.149,0,14.78,6.641,14.78,14.805v30.922h1.895
	c7.938,0,14.396-6.458,14.396-14.396V13.297c0-2.209,1.791-4,4-4s4,1.791,4,4v62.334c0,7.938,6.458,14.396,14.396,14.396h1.895
	V59.106c0-8.164,6.631-14.805,14.78-14.805c1.983,0,3.931,0.399,5.786,1.188c13.746,5.838,32.716,19.492,45.034,51.384
	c12.223,31.647,16.051,59.938,17.109,78.099C206.372,180.684,204.391,186.125,200.46,190.293z"/>
<g>
</g>
<g>
</g>
<g>
</g>
<g>
</g>
<g>
</g>
<g>
</g>
<g>
</g>
<g>
</g>
<g>
</g>
<g>
</g>
<g>
</g>
<g>
</g>
<g>
</g>
<g>
</g>
<g>
</g>
</svg>
