<?xml version="1.0" encoding="iso-8859-1"?>
<!-- Generator: Adobe Illustrator 17.1.0, SVG Export Plug-In . SVG Version: 6.00 Build 0)  -->
<!DOCTYPE svg PUBLIC "-//W3C//DTD SVG 1.1//EN" "http://www.w3.org/Graphics/SVG/1.1/DTD/svg11.dtd">
<svg version="1.1" id="Capa_1" xmlns="http://www.w3.org/2000/svg" xmlns:xlink="http://www.w3.org/1999/xlink" x="0px" y="0px"
	 viewBox="0 0 194.417 194.417" style="enable-background:new 0 0 194.417 194.417;" xml:space="preserve">
<path d="M150.918,0h-19.259c-15.827,0-28.704,12.876-28.704,28.704v151.389c0,7.898,6.426,14.324,14.324,14.324h48.019
	c7.898,0,14.324-6.426,14.324-14.324V28.704C179.622,12.876,166.745,0,150.918,0z M162.257,137.417h-41.937c-2.209,0-4-1.791-4-4
	s1.791-4,4-4h41.937c2.209,0,4,1.791,4,4S164.466,137.417,162.257,137.417z M123.205,117.667c0-2.209,1.791-4,4-4h28.166
	c2.209,0,4,1.791,4,4s-1.791,4-4,4h-28.166C124.996,121.667,123.205,119.875,123.205,117.667z M170.099,45.401
	c0,11.373-9.252,20.625-20.625,20.625h-16.371c-11.373,0-20.625-9.252-20.625-20.625V29.759c0-10.349,8.419-18.768,18.768-18.768
	h20.084c10.349,0,18.768,8.419,18.768,18.768V45.401z M162.099,29.759v15.642c0,6.961-5.664,12.625-12.625,12.625h-16.371
	c-6.961,0-12.625-5.664-12.625-12.625V29.759c0-5.937,4.831-10.768,10.768-10.768h20.084
	C157.268,18.992,162.099,23.822,162.099,29.759z M37.552,42.111c0-11.509,6.202-21.749,11.091-21.749
	c4.889,0,11.091,10.24,11.091,21.749c0,8.971-4.25,14.544-11.091,14.544C41.802,56.656,37.552,51.083,37.552,42.111z M76.711,92.769
	c0-27.712-0.782-46.25-4.909-64.82c-1.531-6.891-4.597-12.987-9.112-18.118c-3.568-4.055-8.688-6.381-14.047-6.381
	S38.164,5.775,34.596,9.83c-4.516,5.132-7.582,11.228-9.113,18.118c-4.126,18.569-4.909,37.107-4.909,64.82
	c0,26.349-5.709,96.616-5.767,97.323c-0.091,1.114,0.288,2.214,1.045,3.036c0.757,0.822,1.824,1.289,2.941,1.289h59.696
	c1.117,0,2.184-0.467,2.941-1.289s1.136-1.922,1.045-3.036C82.42,189.384,76.711,119.118,76.711,92.769z M48.643,12.363
	c11.25,0,19.091,15.678,19.091,29.749c0,15.574-9.588,22.544-19.091,22.544c-9.503,0-19.091-6.971-19.091-22.544
	C29.552,28.041,37.392,12.363,48.643,12.363z M59.632,137.417H37.654c-2.209,0-4-1.791-4-4s1.791-4,4-4h21.978c2.209,0,4,1.791,4,4
	S61.841,137.417,59.632,137.417z M65.004,121.667H32.282c-2.209,0-4-1.791-4-4s1.791-4,4-4h32.722c2.209,0,4,1.791,4,4
	S67.213,121.667,65.004,121.667z"/>
<g>
</g>
<g>
</g>
<g>
</g>
<g>
</g>
<g>
</g>
<g>
</g>
<g>
</g>
<g>
</g>
<g>
</g>
<g>
</g>
<g>
</g>
<g>
</g>
<g>
</g>
<g>
</g>
<g>
</g>
</svg>
