<?xml version="1.0" encoding="iso-8859-1"?>
<!-- Generator: Adobe Illustrator 17.1.0, SVG Export Plug-In . SVG Version: 6.00 Build 0)  -->
<!DOCTYPE svg PUBLIC "-//W3C//DTD SVG 1.1//EN" "http://www.w3.org/Graphics/SVG/1.1/DTD/svg11.dtd">
<svg version="1.1" id="Capa_1" xmlns="http://www.w3.org/2000/svg" xmlns:xlink="http://www.w3.org/1999/xlink" x="0px" y="0px"
	 viewBox="0 0 210.661 210.661" style="enable-background:new 0 0 210.661 210.661;" xml:space="preserve">
<path d="M73.831,91.342c-0.916,5.631-3.118,10.998-6.446,15.653c16.698,1.986,29.692,16.223,29.692,33.447v42.263
	c0,2.209-1.791,4-4,4s-4-1.791-4-4v-42.263c0-14.167-11.525-25.692-25.692-25.692h-0.463c-0.501,2.161-0.479,4.465,0.122,6.759
	c0.579,2.207,0.873,4.494,0.873,6.796c0,7.147-2.783,13.866-7.837,18.92s-11.773,7.837-18.92,7.837
	c-0.559,0-1.121-0.017-1.688-0.052c-13.566-0.835-24.571-12.141-25.052-25.738c-0.05-1.376,0.007-2.769,0.168-4.135
	c0.832-7.016-0.636-13.695-4.131-18.809C2.233,100.144,0,92.905,0,85.391c0-14.967,8.908-28.407,22.694-34.238
	c6.058-2.562,10.946-6.891,13.767-12.191c4.928-9.255,14.497-15.005,24.974-15.005c0.597,0,1.199,0.019,1.805,0.057
	c13.819,0.861,25.15,11.9,26.357,25.679c0.816,9.318-2.988,18.422-10.178,24.354c-2.915,2.405-4.701,5.732-5.042,9.296h18.7
	c2.209,0,4,1.791,4,4s-1.791,4-4,4H73.831z M210.661,85.391c0-14.968-8.908-28.407-22.693-34.238
	c-6.058-2.562-10.946-6.891-13.768-12.191c-4.927-9.255-14.496-15.005-24.973-15.005c-0.597,0-1.199,0.019-1.805,0.057
	c-13.819,0.861-25.15,11.9-26.357,25.678c-0.817,9.317,2.987,18.421,10.177,24.354c2.915,2.405,4.702,5.734,5.043,9.296h-18.7
	c-2.209,0-4,1.791-4,4s1.791,4,4,4h19.246c0.916,5.631,3.118,10.998,6.446,15.653c-16.698,1.986-29.692,16.223-29.692,33.447v42.263
	c0,2.209,1.791,4,4,4s4-1.791,4-4v-42.263c0-14.167,11.525-25.692,25.692-25.692h0.463c0.501,2.161,0.479,4.466-0.123,6.76
	c-0.579,2.211-0.873,4.497-0.873,6.795c0,14.754,12.003,26.757,26.757,26.757c0.559,0,1.121-0.017,1.688-0.052
	c13.566-0.835,24.57-12.141,25.054-25.739c0.048-1.387-0.009-2.779-0.17-4.135c-0.831-7.015,0.637-13.694,4.132-18.808
	C208.429,100.143,210.661,92.904,210.661,85.391z"/>
<g>
</g>
<g>
</g>
<g>
</g>
<g>
</g>
<g>
</g>
<g>
</g>
<g>
</g>
<g>
</g>
<g>
</g>
<g>
</g>
<g>
</g>
<g>
</g>
<g>
</g>
<g>
</g>
<g>
</g>
</svg>
