<?xml version="1.0" encoding="iso-8859-1"?>
<!-- Generator: Adobe Illustrator 17.1.0, SVG Export Plug-In . SVG Version: 6.00 Build 0)  -->
<!DOCTYPE svg PUBLIC "-//W3C//DTD SVG 1.1//EN" "http://www.w3.org/Graphics/SVG/1.1/DTD/svg11.dtd">
<svg version="1.1" id="Capa_1" xmlns="http://www.w3.org/2000/svg" xmlns:xlink="http://www.w3.org/1999/xlink" x="0px" y="0px"
	 viewBox="0 0 211.98 211.98" style="enable-background:new 0 0 211.98 211.98;" xml:space="preserve">
<path d="M98.801,170.532c3.78,15.666,4.068,21.943,1.338,29.203c-2.882,7.662-11.762,10.423-13.31,10.852
	c-0.905,0.311-4.38,1.394-8.789,1.394c-8.531,0-15.295-4.126-19.046-11.619c-2.849-5.692-4.532-10.611-6.16-15.369
	c-2.525-7.381-5.136-15.012-12.396-26.589c-2.744-4.376-4.996-7.876-6.983-10.964c-6.797-10.565-9.899-15.388-15.085-28.132
	C13.609,107.604,7.928,92.085,7.904,84.621c-0.016-4.856,1.562-7.46,2.887-8.79c0.764-0.765,1.65-1.326,2.598-1.655
	c0.037-2.762,1.033-5.307,3.513-7.105c1.245-0.903,2.496-1.548,3.742-1.931c-0.26-1.953-0.216-4.082,0.526-6.023
	c0.844-2.207,2.454-3.862,4.655-4.785c1.073-0.45,2.114-0.744,3.108-0.879c0.144-1.781,0.588-3.579,1.54-5.15
	c1.257-2.074,3.211-3.474,5.651-4.047c2.044-0.481,4.026-0.486,5.668-0.105c0.436-1.77,1.183-3.568,2.417-5.156
	c1.523-1.961,4.412-4.352,9.521-4.61c13.869-0.709,16.444,11.901,17.408,16.559c0.467,2.259,0.521,4.555,0.575,6.774
	c0.066,2.761,0.129,5.368,0.986,6.933c0.445,0.813,1.099,1.888,1.855,3.133c2.771,4.56,6.96,11.451,8.617,18.197
	c1.04,4.235,0.025,10.329-1.259,18.044c-1.478,8.879-3.152,18.941-1.557,26.584c1.439,6.897,5.021,12.867,8.812,19.187
	C92.975,156.135,96.908,162.692,98.801,170.532z M203.965,44.77c-0.696-6.303-3.762-9.102-6.629-9.755
	c-0.349-2.741-1.626-5.159-4.294-6.666c-1.336-0.755-2.654-1.255-3.938-1.494c0.037-1.971-0.247-4.082-1.204-5.927
	c-1.088-2.099-2.875-3.561-5.166-4.229c-1.118-0.326-2.189-0.502-3.188-0.522c-0.344-1.754-0.989-3.489-2.112-4.942
	c-1.483-1.919-3.583-3.088-6.072-3.382c-2.14-0.254-4.082-0.021-5.647,0.527c-0.594-1.6-1.462-3.194-2.726-4.571
	C160.703,1.317,157.529,0,153.812,0c-0.344,0-0.696,0.012-1.06,0.034c-13.831,0.869-14.988,13.621-15.424,18.421
	c-0.209,2.297-0.004,4.585,0.194,6.798c0.246,2.749,0.479,5.347-0.196,6.997c-0.352,0.858-0.879,2.001-1.49,3.324
	c-2.238,4.844-5.62,12.164-6.504,19.054c-0.547,4.264,0.943,10.258,2.829,17.846c2.178,8.764,4.646,18.695,3.92,26.523
	c-0.658,7.096-3.298,13.384-6.092,20.041c-2.773,6.609-5.642,13.443-6.626,21.367c-1.985,15.994-1.562,22.265,1.973,29.168
	c3.732,7.294,12.879,9.029,14.455,9.277c0.683,0.149,2.848,0.567,5.715,0.567c10.127,0,17.507-4.927,20.782-13.873
	c2.188-5.979,3.303-11.057,4.383-15.969c1.674-7.618,3.405-15.496,9.31-27.818c2.232-4.659,4.074-8.393,5.7-11.687
	c5.56-11.266,8.097-16.407,11.807-29.654C200.896,68.25,204.786,52.188,203.965,44.77z"/>
<g>
</g>
<g>
</g>
<g>
</g>
<g>
</g>
<g>
</g>
<g>
</g>
<g>
</g>
<g>
</g>
<g>
</g>
<g>
</g>
<g>
</g>
<g>
</g>
<g>
</g>
<g>
</g>
<g>
</g>
</svg>
