<?xml version="1.0" encoding="iso-8859-1"?>
<!-- Generator: Adobe Illustrator 17.1.0, SVG Export Plug-In . SVG Version: 6.00 Build 0)  -->
<!DOCTYPE svg PUBLIC "-//W3C//DTD SVG 1.1//EN" "http://www.w3.org/Graphics/SVG/1.1/DTD/svg11.dtd">
<svg version="1.1" id="Capa_1" xmlns="http://www.w3.org/2000/svg" xmlns:xlink="http://www.w3.org/1999/xlink" x="0px" y="0px"
	 viewBox="0 0 200.772 200.772" style="enable-background:new 0 0 200.772 200.772;" xml:space="preserve">
<path d="M200.1,47.114c0.949-1.809,0.891-3.923-0.157-5.656c-1.046-1.729-2.942-2.804-4.948-2.804c-0.896,0-1.766,0.205-2.582,0.608
	c-5.557,2.741-12.009,2.71-18.804-0.144c-36.158-15.188-66.699-15.957-72.454-15.957c-0.379,0-0.637,0.003-0.769,0.005
	c-0.13-0.002-0.389-0.005-0.769-0.005c-5.755,0-36.295,0.769-72.455,15.957c-6.792,2.853-13.245,2.886-18.802,0.144
	c-0.818-0.404-1.687-0.608-2.583-0.608c-2.006,0-3.902,1.075-4.948,2.804c-1.047,1.732-1.106,3.847-0.157,5.656
	c3.253,6.198,5.211,11.38,5.662,14.988c0.215,1.723-0.028,4.203-0.311,7.075c-1.032,10.505-2.76,28.089,13.947,51.54
	c14.792,20.764,32.807,23.059,47.282,24.903c6.503,0.829,12.12,1.544,16.424,3.751c12.207,6.26,12.694,22.208,12.709,24.006
	c0,0,0,0.001,0,0.002c-0.001,0.193,0.001,0.318,0.001,0.318c0.05,2.174,1.827,3.913,3.998,3.913c0.009,0,0.018,0,0.025,0
	c2.183-0.013,3.952-1.77,3.976-3.952v-0.283c0.015-1.797,0.495-17.741,12.709-24.004c4.304-2.207,9.92-2.922,16.424-3.751
	c14.476-1.844,32.49-4.14,47.282-24.903c16.707-23.451,14.979-41.035,13.947-51.54c-0.282-2.872-0.526-5.353-0.312-7.075
	C194.889,58.493,196.847,53.31,200.1,47.114z M170.513,112.101c-11.364,15.312-34.613,23.075-69.104,23.075
	c-34.681,0-58.341-7.813-70.322-23.223c-11.458-14.737-7.566-30.724-7.395-31.397c0.177-0.697,0.54-1.334,1.048-1.843
	c2.184-2.183,5.086-3.386,8.174-3.386s5.99,1.203,8.174,3.386l0.112,0.112c1.355,1.355,3.695,1.35,5.039,0.005
	c2.184-2.183,5.086-3.385,8.174-3.385c3.088,0,5.991,1.203,8.174,3.385l0.353,0.353c1.343,1.344,3.689,1.345,5.034,0l0.274-0.274
	c2.184-2.183,5.086-3.385,8.174-3.385s5.99,1.202,8.174,3.385l0.41,0.41c1.348,1.348,3.691,1.346,5.035,0.001l0.666-0.666
	c2.183-2.183,5.086-3.386,8.174-3.386c3.088,0,5.991,1.203,8.175,3.386l0.732,0.732c1.347,1.347,3.688,1.347,5.035,0.001
	l0.696-0.696c2.182-2.182,5.085-3.385,8.172-3.385c3.088,0,5.991,1.203,8.174,3.386l0.622,0.623
	c1.344,1.342,3.688,1.343,5.034-0.001l0.822-0.822c2.183-2.183,5.086-3.386,8.174-3.386c3.087,0,5.99,1.203,8.173,3.386l0.822,0.822
	c1.345,1.345,3.688,1.346,5.034,0l0.748-0.748c2.182-2.182,5.085-3.385,8.173-3.385c3.087,0,5.99,1.203,8.173,3.386
	c0.466,0.466,0.81,1.04,1,1.67C176.846,80.924,181.586,97.18,170.513,112.101z"/>
<g>
</g>
<g>
</g>
<g>
</g>
<g>
</g>
<g>
</g>
<g>
</g>
<g>
</g>
<g>
</g>
<g>
</g>
<g>
</g>
<g>
</g>
<g>
</g>
<g>
</g>
<g>
</g>
<g>
</g>
</svg>
