<?xml version="1.0" encoding="iso-8859-1"?>
<!-- Generator: Adobe Illustrator 17.1.0, SVG Export Plug-In . SVG Version: 6.00 Build 0)  -->
<!DOCTYPE svg PUBLIC "-//W3C//DTD SVG 1.1//EN" "http://www.w3.org/Graphics/SVG/1.1/DTD/svg11.dtd">
<svg version="1.1" id="Capa_1" xmlns="http://www.w3.org/2000/svg" xmlns:xlink="http://www.w3.org/1999/xlink" x="0px" y="0px"
	 viewBox="0 0 210.039 210.039" style="enable-background:new 0 0 210.039 210.039;" xml:space="preserve">
<path d="M47.224,79.757C47.223,79.757,47.224,79.757,47.224,79.757c-0.948,0-1.565-0.059-1.68-0.07l-0.446-0.071
	c-1.375-0.301-13.523-3.162-16.718-10.923c-3.697-8.979-6.594-23.859,0.608-43.748C35.194,7.806,51.997,0,64.983,0
	c5.079,0,9.66,1.126,13.249,3.257c3.729,2.214,8.765,5.825,9.447,11.596c0.771,6.514-4.201,12.835-11.903,20.324
	c-9.197,8.943-9.52,14.518-10.006,22.957c-0.127,2.195-0.258,4.466-0.548,7.001C63.991,75.915,55.117,79.757,47.224,79.757z
	 M181.049,24.944C174.845,7.806,158.043,0,145.056,0c-5.079,0-9.661,1.126-13.249,3.257c-3.729,2.214-8.765,5.824-9.447,11.596
	c-0.771,6.514,4.2,12.836,11.902,20.324c9.199,8.943,9.521,14.519,10.006,22.958c0.127,2.195,0.258,4.465,0.547,7
	c1.232,10.782,10.106,14.623,18,14.623c0.948,0,1.565-0.059,1.68-0.07l0.446-0.071c1.375-0.301,13.521-3.162,16.717-10.922
	C185.356,59.713,188.252,44.834,181.049,24.944z M141.105,97.297c-9.635-5.333-15.485-9.182-15.485-17.661
	c0-19.267,11.025-24.535,11.586-24.789c2.011-0.874,2.946-3.207,2.089-5.229c-0.861-2.034-3.212-2.986-5.243-2.123
	c-0.671,0.284-16.432,7.249-16.432,32.141c0,13.806,10.874,19.825,19.612,24.66c9.081,5.026,14.647,8.494,14.647,16.13
	c0,8.913-4.955,15.108-10.037,19.119c-6.181-11.944-20.996-16.517-35.083-16.517c-0.833,0-1.432,0.02-1.74,0.033
	c-0.309-0.013-0.908-0.033-1.74-0.033c-14.067,0-28.86,4.56-35.056,16.467c-5.089-4.031-10.063-10.227-10.063-19.069
	c0-7.636,5.566-11.104,14.647-16.13c8.737-4.835,19.611-10.854,19.611-24.66c0-24.893-15.761-31.857-16.432-32.141
	c-2.035-0.862-4.382,0.088-5.243,2.123c-0.862,2.034,0.088,4.382,2.122,5.244c0.115,0.049,11.553,5.123,11.553,24.775
	c0,8.479-5.851,12.328-15.485,17.661c-8.8,4.87-18.773,10.39-18.773,23.129c0,13.519,8.2,22.137,15.454,27.121
	c-0.257,1.62-0.404,3.323-0.404,5.132c0,25.306,20.82,37.819,28.221,41.467v11.892c0,2.209,1.791,4,4,4h15.178c2.209,0,4-1.791,4-4
	v-11.892c7.401-3.648,28.222-16.161,28.222-41.467c0-1.809-0.147-3.513-0.404-5.132c7.254-4.984,15.454-13.602,15.454-27.121
	C159.879,107.687,149.906,102.167,141.105,97.297z"/>
<g>
</g>
<g>
</g>
<g>
</g>
<g>
</g>
<g>
</g>
<g>
</g>
<g>
</g>
<g>
</g>
<g>
</g>
<g>
</g>
<g>
</g>
<g>
</g>
<g>
</g>
<g>
</g>
<g>
</g>
</svg>
