<?xml version="1.0" encoding="iso-8859-1"?>
<!-- Generator: Adobe Illustrator 17.1.0, SVG Export Plug-In . SVG Version: 6.00 Build 0)  -->
<!DOCTYPE svg PUBLIC "-//W3C//DTD SVG 1.1//EN" "http://www.w3.org/Graphics/SVG/1.1/DTD/svg11.dtd">
<svg version="1.1" id="Capa_1" xmlns="http://www.w3.org/2000/svg" xmlns:xlink="http://www.w3.org/1999/xlink" x="0px" y="0px"
	 viewBox="0 0 201.247 201.247" style="enable-background:new 0 0 201.247 201.247;" xml:space="preserve">
<path d="M159.775,179.044c-6.429-6.619-16.806-10.352-25.961-13.645c-6.754-2.43-16.005-5.757-16.312-8.718
	c-0.445-4.312,1.519-8.405,4.005-13.589c2.547-5.309,5.434-11.326,6.723-19.432c1.227-7.712,1.221-16.385,1.216-24.037
	c-0.006-8.103-0.011-15.757,1.447-19.645c0.567-1.514,1.378-3.775,2.367-6.54c4.599-12.843,13.157-36.747,19.133-46.139
	c7.848-12.332,9.796-22.134,9.875-22.545c0.226-1.172-0.084-2.383-0.844-3.304C160.664,0.532,159.534,0,158.34,0H96.315
	c-1.919,0-3.568,1.364-3.929,3.249c-2.735,14.286-8.784,30.586-13.429,32.079c-2.36,0.759-5.394,0.878-8.604,1.003
	c-8.752,0.342-20.738,0.81-29.783,15.397c-11.762,18.97-1.985,33.968,12.813,56.669c0.975,1.496,1.978,3.035,3.004,4.619
	c13.587,20.971,15.005,38.693,16.04,51.634c0.175,2.183,0.34,4.243,0.552,6.148c1.098,9.883,3.382,30.448,21.185,30.448h60.95
	c0.27,0,0.539-0.027,0.804-0.082c0.788-0.161,7.75-1.749,9.573-7.672C166.82,189.178,164.897,184.316,159.775,179.044z
	 M110.098,74.37c-0.296,0.232-5.85,4.51-13.297,4.51c-2.111,0-4.374-0.344-6.713-1.221c-11.812-4.43-5.822-24.698-5.101-26.994
	c0.663-2.108,2.908-3.275,5.016-2.617c2.107,0.663,3.279,2.908,2.617,5.016c-1.942,6.218-2.961,15.891,0.277,17.105
	c6.323,2.372,12.2-2.044,12.257-2.09c1.738-1.363,4.252-1.063,5.617,0.674C112.136,70.49,111.835,73.005,110.098,74.37z"/>
<g>
</g>
<g>
</g>
<g>
</g>
<g>
</g>
<g>
</g>
<g>
</g>
<g>
</g>
<g>
</g>
<g>
</g>
<g>
</g>
<g>
</g>
<g>
</g>
<g>
</g>
<g>
</g>
<g>
</g>
</svg>
