<?xml version="1.0" encoding="iso-8859-1"?>
<!-- Generator: Adobe Illustrator 17.1.0, SVG Export Plug-In . SVG Version: 6.00 Build 0)  -->
<!DOCTYPE svg PUBLIC "-//W3C//DTD SVG 1.1//EN" "http://www.w3.org/Graphics/SVG/1.1/DTD/svg11.dtd">
<svg version="1.1" id="Capa_1" xmlns="http://www.w3.org/2000/svg" xmlns:xlink="http://www.w3.org/1999/xlink" x="0px" y="0px"
	 viewBox="0 0 207.398 207.398" style="enable-background:new 0 0 207.398 207.398;" xml:space="preserve">
<path d="M101.148,122.869c1.779,17.801-3.824,78.332-4.063,80.9c-0.191,2.057-1.917,3.629-3.982,3.629H46.698
	c-2.154,0-3.922-1.707-3.997-3.86c-0.005-0.125-0.48-12.768-3.557-29.687c-1.055-5.803-4.268-14.649-7.988-24.893
	c-7.068-19.461-15.865-43.682-15.865-63.579c0-12.227,3.078-27.895,6.775-42.307c8.745,3.884,29.08,13.473,43.944,24.806
	c11.987,9.141,19.315,19.756,23.352,27.051c2.273,4.11,6.134,6.979,10.517,7.978C99.923,106.743,100.184,113.244,101.148,122.869z
	 M24.648,33.518c4.717-16.654,9.527-29.828,9.92-30.897C35.147,1.046,36.646,0,38.323,0h130.753c1.677,0,3.176,1.046,3.755,2.62
	c0.393,1.07,5.204,14.243,9.92,30.897H24.648z M99.698,19.291c0,2.209,1.791,4,4,4s4-1.791,4-4v-1.675c0-2.209-1.791-4-4-4
	s-4,1.791-4,4V19.291z M185.332,43.073c-8.745,3.884-29.08,13.473-43.944,24.806c-11.99,9.142-19.316,19.756-23.352,27.051
	c-2.274,4.11-6.135,6.979-10.517,7.978c-0.045,3.836-0.306,10.336-1.269,19.961c-1.779,17.801,3.824,78.332,4.063,80.9
	c0.191,2.057,1.917,3.629,3.982,3.629h46.402c2.154,0,3.921-1.707,3.997-3.859c0.005-0.126,0.481-12.768,3.558-29.687
	c1.055-5.803,4.268-14.649,7.988-24.893c7.068-19.461,15.865-43.682,15.865-63.579C192.107,73.153,189.029,57.485,185.332,43.073z"
	/>
<g>
</g>
<g>
</g>
<g>
</g>
<g>
</g>
<g>
</g>
<g>
</g>
<g>
</g>
<g>
</g>
<g>
</g>
<g>
</g>
<g>
</g>
<g>
</g>
<g>
</g>
<g>
</g>
<g>
</g>
</svg>
