<?xml version="1.0" encoding="iso-8859-1"?>
<!-- Generator: Adobe Illustrator 17.1.0, SVG Export Plug-In . SVG Version: 6.00 Build 0)  -->
<!DOCTYPE svg PUBLIC "-//W3C//DTD SVG 1.1//EN" "http://www.w3.org/Graphics/SVG/1.1/DTD/svg11.dtd">
<svg version="1.1" id="Capa_1" xmlns="http://www.w3.org/2000/svg" xmlns:xlink="http://www.w3.org/1999/xlink" x="0px" y="0px"
	 viewBox="0 0 202.139 202.139" style="enable-background:new 0 0 202.139 202.139;" xml:space="preserve">
<path d="M0.255,88.181c-0.698-1.862,0.078-3.955,1.821-4.911c2.256-1.237,55.468-30.302,74.805-30.302
	c12.389,0,19.92,6.71,24.057,12.339c0.074,0.103,0.189,0.102,0.264,0c4.137-5.629,11.668-12.339,24.057-12.339
	c19.337,0,72.549,29.065,74.805,30.302c1.743,0.957,2.52,3.049,1.821,4.911c-0.698,1.863-2.66,2.93-4.601,2.503
	c-0.265-0.058-26.761-5.797-50.017-5.797c-10.141,0-18.126,1.075-23.735,3.195c-3.307,1.25-6.882,2.762-10.627,4.496
	c-3.738,1.73-7.72,2.608-11.835,2.608s-8.097-0.877-11.835-2.608c-3.744-1.733-7.319-3.246-10.626-4.496
	c-5.609-2.12-13.595-3.195-23.735-3.195c-23.256,0-49.753,5.74-50.018,5.797C2.915,91.112,0.952,90.043,0.255,88.181z
	 M199.163,98.441c-0.925-0.245-23.004-5.998-54.502-5.998c-18.396,0-24.116,3.454-29.163,6.501c-3.488,2.106-6.243,3.77-14.429,3.77
	c-7.947,0-10.399-1.509-13.795-3.598c-5.097-3.137-10.874-6.691-31.208-6.691c-34.404,0-52.559,5.834-53.314,6.082
	c-1.041,0.342-1.896,1.096-2.366,2.085c-0.469,0.99-0.513,2.129-0.119,3.151c0.714,1.854,18.426,45.427,100.803,45.427
	s100.089-43.572,100.803-45.427c0.408-1.061,0.346-2.244-0.171-3.256C201.184,99.476,200.261,98.732,199.163,98.441z"/>
<g>
</g>
<g>
</g>
<g>
</g>
<g>
</g>
<g>
</g>
<g>
</g>
<g>
</g>
<g>
</g>
<g>
</g>
<g>
</g>
<g>
</g>
<g>
</g>
<g>
</g>
<g>
</g>
<g>
</g>
</svg>
