<?xml version="1.0" encoding="iso-8859-1"?>
<!-- Generator: Adobe Illustrator 17.1.0, SVG Export Plug-In . SVG Version: 6.00 Build 0)  -->
<!DOCTYPE svg PUBLIC "-//W3C//DTD SVG 1.1//EN" "http://www.w3.org/Graphics/SVG/1.1/DTD/svg11.dtd">
<svg version="1.1" id="Capa_1" xmlns="http://www.w3.org/2000/svg" xmlns:xlink="http://www.w3.org/1999/xlink" x="0px" y="0px"
	 viewBox="0 0 220.509 220.509" style="enable-background:new 0 0 220.509 220.509;" xml:space="preserve">
<path d="M71.016,11.667c2.817-2.066,4.955-3.143,5.216-3.271c1.979-0.975,4.379-0.155,5.354,1.828
	c0.972,1.979,0.158,4.371-1.817,5.349c-0.158,0.078-15.765,8.028-16.526,23.708c-0.403,8.287,5.267,13.191,8.682,15.377
	c7.338,4.696,17.082,5.34,24.247,1.604c13.099-6.833,9.124-26.126,9.082-26.32c-0.463-2.156,0.906-4.285,3.062-4.753
	c0.519-0.113,1.036-0.115,1.53-0.029c0.51-0.095,1.047-0.092,1.586,0.026c2.157,0.474,3.523,2.606,3.05,4.765
	c-0.04,0.186-4.015,19.479,9.085,26.312c7.165,3.738,16.908,3.093,24.246-1.604c3.415-2.187,9.085-7.091,8.683-15.378
	c-0.769-15.793-16.358-23.626-16.516-23.703c-1.983-0.974-2.802-3.371-1.828-5.354c0.975-1.983,3.373-2.8,5.354-1.828
	c0.28,0.138,2.731,1.368,5.866,3.754c1.128-4.205,2.002-6.721,2.033-6.811c0.436-1.225,0.249-2.585-0.501-3.646
	C150.152,0.632,148.933,0,147.633,0H72.875c-1.3,0-2.519,0.632-3.268,1.693c-0.75,1.062-0.937,2.422-0.501,3.646
	C69.138,5.427,69.949,7.751,71.016,11.667z M137.585,40.028c0.905-2.016,3.273-2.914,5.287-2.012l0.324,0.146
	c2.016,0.904,2.916,3.271,2.012,5.287c-0.666,1.483-2.125,2.363-3.651,2.363c-0.548,0-1.104-0.113-1.636-0.352l-0.324-0.146
	C137.582,44.411,136.681,42.044,137.585,40.028z M82.149,43.449c-0.666,1.483-2.125,2.363-3.651,2.363
	c-0.548,0-1.104-0.113-1.636-0.352l-0.324-0.146c-2.016-0.904-2.916-3.271-2.012-5.287c0.905-2.016,3.272-2.914,5.287-2.012
	l0.324,0.146C82.153,39.066,83.053,41.434,82.149,43.449z M154.583,95.647c4.994,12.563,8.938,22.484,7.101,46.1
	c-2.8,35.951-20.93,74.827-21.7,76.465c-0.659,1.402-2.069,2.297-3.619,2.297h-22.498v-86.223l29.103-17.362
	c1.896-1.132,2.518-3.588,1.386-5.485c-1.133-1.897-3.588-2.517-5.485-1.386l-29.003,17.303l-29.003-17.303
	c-1.897-1.131-4.353-0.512-5.485,1.386c-1.132,1.897-0.511,4.354,1.386,5.485l29.103,17.363v86.222H84.144
	c-1.55,0-2.96-0.895-3.619-2.297c-0.771-1.638-18.9-40.514-21.7-76.465c-1.838-23.615,2.106-33.537,7.101-46.1
	c2.687-6.76,5.732-14.422,8.271-25.712c0.371-1.651,0.681-3.312,0.945-4.977c3.459,1.148,7.061,1.748,10.632,1.748
	c4.933-0.001,9.796-1.107,14.097-3.351c4.698-2.451,7.872-5.848,9.997-9.571c2.125,3.723,5.3,7.12,9.998,9.571
	c4.302,2.243,9.162,3.351,14.096,3.351c3.824,0,7.689-0.675,11.372-1.991c0.271,1.747,0.591,3.489,0.98,5.22
	C148.851,81.226,151.897,88.888,154.583,95.647z"/>
<g>
</g>
<g>
</g>
<g>
</g>
<g>
</g>
<g>
</g>
<g>
</g>
<g>
</g>
<g>
</g>
<g>
</g>
<g>
</g>
<g>
</g>
<g>
</g>
<g>
</g>
<g>
</g>
<g>
</g>
</svg>
