<?xml version="1.0" encoding="iso-8859-1"?>
<!-- Generator: Adobe Illustrator 17.1.0, SVG Export Plug-In . SVG Version: 6.00 Build 0)  -->
<!DOCTYPE svg PUBLIC "-//W3C//DTD SVG 1.1//EN" "http://www.w3.org/Graphics/SVG/1.1/DTD/svg11.dtd">
<svg version="1.1" id="Capa_1" xmlns="http://www.w3.org/2000/svg" xmlns:xlink="http://www.w3.org/1999/xlink" x="0px" y="0px"
	 viewBox="0 0 199.554 199.554" style="enable-background:new 0 0 199.554 199.554;" xml:space="preserve">
<path d="M154.875,55.085c-6.527-14.429-16.86-15.137-28.825-15.956c-6.443-0.441-13.747-0.941-22.415-3.374
	C81.582,29.565,83.792,5.442,83.896,4.428c0.122-1.129-0.242-2.256-1.001-3.101S81.055,0,79.919,0H41.707c-2.209,0-4,1.791-4,4
	v191.554c0,2.209,1.791,4,4,4h72.171v-25.327c-5.715,3.046-12.695,4.594-20.902,4.594c-17.228,0-29.638-4.188-36.887-12.446
	c-7.624-8.686-6.431-18.585-6.376-19.003c0.285-2.19,2.293-3.734,4.484-3.448c2.182,0.285,3.722,2.277,3.451,4.458
	c-0.038,0.336-0.696,6.947,4.556,12.832c5.608,6.285,16.249,9.607,30.771,9.607c11.244,0,19.502-3.328,24.544-9.892
	c8.727-11.361,6.284-30.17,4.605-36.458c-0.396-1.485-1.107-3.665-1.933-6.188c-2.979-9.118-7.06-21.605-6.3-30.345
	c0.191-2.201,2.126-3.835,4.332-3.638c2.2,0.191,3.83,2.13,3.639,4.332c-0.619,7.113,3.324,19.181,5.934,27.167
	c0.861,2.637,1.605,4.914,2.059,6.611c0.07,0.264,6.899,26.613-5.992,43.394c-0.625,0.813-1.294,1.577-1.985,2.314v31.437h35.663
	c2.18,0,3.958-1.746,3.999-3.925C161.772,183.265,163.56,74.283,154.875,55.085z M101.694,152.583l-0.789,0.563
	c-0.704,0.503-1.517,0.745-2.321,0.745c-1.248,0-2.478-0.583-3.258-1.676c-1.284-1.798-0.867-4.296,0.931-5.58l0.789-0.563
	c1.795-1.283,4.295-0.868,5.579,0.931C103.909,148.8,103.492,151.298,101.694,152.583z"/>
<g>
</g>
<g>
</g>
<g>
</g>
<g>
</g>
<g>
</g>
<g>
</g>
<g>
</g>
<g>
</g>
<g>
</g>
<g>
</g>
<g>
</g>
<g>
</g>
<g>
</g>
<g>
</g>
<g>
</g>
</svg>
