<?xml version="1.0" encoding="iso-8859-1"?>
<!-- Generator: Adobe Illustrator 17.1.0, SVG Export Plug-In . SVG Version: 6.00 Build 0)  -->
<!DOCTYPE svg PUBLIC "-//W3C//DTD SVG 1.1//EN" "http://www.w3.org/Graphics/SVG/1.1/DTD/svg11.dtd">
<svg version="1.1" id="Capa_1" xmlns="http://www.w3.org/2000/svg" xmlns:xlink="http://www.w3.org/1999/xlink" x="0px" y="0px"
	 viewBox="0 0 198.398 198.398" style="enable-background:new 0 0 198.398 198.398;" xml:space="preserve">
<path d="M187.607,66.381c0,19.896-8.797,44.117-15.866,63.578c-3.72,10.243-6.934,19.09-7.988,24.893
	c-3.076,16.918-3.55,39.4-3.555,39.625c-0.043,2.178-1.82,3.921-3.999,3.921h-46.403c-2.085,0-3.82-1.602-3.987-3.68
	c-0.239-2.975-5.835-73.073-4.058-90.849c0.489-4.888,0.796-8.886,0.987-12.108c7.668,11.069,20.452,18.337,34.907,18.337
	c23.404,0,42.444-19.041,42.444-42.445c0-2.209-1.791-4-4-4s-4,1.791-4,4c0,18.993-15.451,34.445-34.444,34.445
	s-34.445-15.452-34.445-34.445V46.917c0-2.209-1.791-4-4-4s-4,1.791-4,4v20.736c0,18.993-15.452,34.445-34.445,34.445
	S26.309,86.646,26.309,67.653c0-2.209-1.791-4-4-4s-4,1.791-4,4c0,23.404,19.041,42.445,42.445,42.445
	c14.455,0,27.239-7.269,34.907-18.337c0.191,3.222,0.498,7.22,0.986,12.108c1.777,17.776-3.819,87.874-4.058,90.849
	c-0.167,2.078-1.902,3.68-3.987,3.68H42.199c-2.178,0-3.957-1.744-3.999-3.921c-0.005-0.225-0.479-22.707-3.555-39.625
	c-1.055-5.803-4.268-14.649-7.989-24.893c-7.068-19.461-15.865-43.682-15.865-63.578c0-30.333,18.773-63.013,19.572-64.389
	C31.079,0.759,32.397,0,33.822,0h130.752c1.426,0,2.743,0.759,3.459,1.991C168.833,3.368,187.607,36.048,187.607,66.381z"/>
<g>
</g>
<g>
</g>
<g>
</g>
<g>
</g>
<g>
</g>
<g>
</g>
<g>
</g>
<g>
</g>
<g>
</g>
<g>
</g>
<g>
</g>
<g>
</g>
<g>
</g>
<g>
</g>
<g>
</g>
</svg>
