<?xml version="1.0" encoding="iso-8859-1"?>
<!-- Generator: Adobe Illustrator 17.1.0, SVG Export Plug-In . SVG Version: 6.00 Build 0)  -->
<!DOCTYPE svg PUBLIC "-//W3C//DTD SVG 1.1//EN" "http://www.w3.org/Graphics/SVG/1.1/DTD/svg11.dtd">
<svg version="1.1" id="Capa_1" xmlns="http://www.w3.org/2000/svg" xmlns:xlink="http://www.w3.org/1999/xlink" x="0px" y="0px"
	 viewBox="0 0 218.597 218.597" style="enable-background:new 0 0 218.597 218.597;" xml:space="preserve">
<path d="M153.632,34.632h-37.865c-0.473-1.326-0.625-2.645-0.666-3.497c0.507-0.012,1.209-0.033,2.112-0.071
	c2.133-0.088,6.299-0.936,6.476-0.972c0.316-0.064,0.582-0.277,0.713-0.572c0.132-0.295,0.113-0.635-0.05-0.913
	c-0.014-0.023-1.387-2.391-1.955-5.637c-0.203-1.16-0.22-2.458-0.239-3.96c-0.037-2.851-0.083-6.397-1.332-11.507
	C119.171,0.731,112.98,0,110.396,0c-0.525,0-0.909,0.029-1.097,0.048C109.11,0.029,108.726,0,108.201,0
	c-2.584,0-8.775,0.731-10.431,7.503c-1.249,5.108-1.295,8.656-1.332,11.506c-0.02,1.503-0.036,2.801-0.239,3.962
	c-0.564,3.226-1.941,5.613-1.955,5.637c-0.162,0.278-0.181,0.618-0.049,0.913c0.132,0.294,0.397,0.507,0.712,0.571
	c0.176,0.036,4.343,0.884,6.475,0.972c0.903,0.038,1.605,0.06,2.113,0.071c-0.041,0.852-0.192,2.171-0.666,3.497H64.965
	c-2.209,0-4,1.791-4,4v60.334c0,2.209,1.791,4,4,4h16.034c-0.051,1.662-0.113,3.22-0.214,4.554c-0.182,2.402-0.797,5.887-1.34,8.961
	c-0.5,2.833-0.896,5.07-0.896,6.084c0,2.427,1.762,5.596,4.099,7.372c2.256,1.715,3.418,1.849,3.72,1.849c0.003,0,0.007,0,0.01,0
	c0.584,0.024,1.01-0.444,1.01-1c0-0.104-0.016-0.203-0.045-0.297c-0.1-0.992-0.563-5.528-1.021-9.341
	c-0.357-2.979,0.304-8.35,0.836-12.664c0.22-1.788,0.428-3.477,0.552-4.866c0.018-0.201,0.05-0.429,0.08-0.651h3.32
	c-1.268,4.899-2.151,10.925-1.586,19.014c0.841,12.033,2.887,17.226,4.381,21.017c0.971,2.464,1.613,4.093,1.549,6.627
	c-0.053,2.074-0.398,3.964-0.765,5.964c-0.812,4.436-1.732,9.463,0.271,18.083c2.867,12.337,5.475,25.473,5.814,29.282
	c0.072,0.807,0.165,1.529,0.251,2.192c0.326,2.516,0.489,3.778-0.911,5.587c-1.871,2.415-3.663,3.237-3.675,3.243
	c-0.237,0.104-0.425,0.294-0.524,0.533c-0.056,0.133-0.521,1.337,0.244,2.482c0.711,1.066,2.191,1.606,4.4,1.606
	c4.903,0,6.763-0.711,6.958-0.792c0.306-0.126,0.529-0.396,0.597-0.72c0.054-0.261,1.323-6.432,0.882-11.283l-0.096-1.04
	c-0.433-4.709-1.025-11.158-1.025-19.637c0-4.113,0.19-6.742,0.374-9.285c0.218-3.015,0.423-5.862,0.231-10.656
	c-0.34-8.509-0.175-13.634-0.172-13.698c0,0,0.26-12.896,0.346-18.955c0.072-5.036-0.529-14.334-0.75-17.565l1.321,0.081
	c0.049,0.004,0.098,0.004,0.146,0l1.321-0.081c-0.222,3.232-0.822,12.529-0.75,17.565c0.086,6.059,0.346,18.955,0.347,18.969
	c0.002,0.051,0.167,5.176-0.172,13.685c-0.192,4.795,0.014,7.643,0.231,10.657c0.184,2.543,0.374,5.172,0.374,9.284
	c0,8.479-0.593,14.928-1.025,19.637l-0.096,1.04c-0.441,4.852,0.828,11.022,0.882,11.283c0.067,0.324,0.291,0.594,0.597,0.72
	c0.196,0.081,2.056,0.792,6.959,0.792c2.208,0,3.689-0.54,4.4-1.605c0.764-1.146,0.3-2.35,0.244-2.483
	c-0.098-0.235-0.287-0.427-0.519-0.531c-0.018-0.008-1.811-0.83-3.681-3.245c-1.4-1.809-1.236-3.07-0.911-5.586
	c0.086-0.663,0.179-1.387,0.251-2.193c0.339-3.81,2.947-16.945,5.814-29.282c2.003-8.62,1.083-13.647,0.271-18.083
	c-0.366-2-0.712-3.89-0.765-5.964c-0.064-2.534,0.578-4.162,1.549-6.627c1.494-3.791,3.541-8.982,4.381-21.017
	c0.565-8.088-0.318-14.115-1.586-19.014h3.32c0.029,0.222,0.062,0.45,0.08,0.651c0.124,1.389,0.332,3.075,0.552,4.861
	c0.532,4.316,1.194,9.688,0.836,12.669c-0.515,4.286-1.036,9.486-1.041,9.538c-0.028,0.281,0.064,0.562,0.254,0.771
	c0.189,0.21,0.458,0.329,0.741,0.329c0.302,0,1.464-0.134,3.72-1.849c2.337-1.776,4.099-4.945,4.099-7.372
	c0-1.014-0.395-3.251-0.896-6.084c-0.543-3.074-1.159-6.559-1.34-8.961c-0.101-1.333-0.163-2.892-0.214-4.554h16.034
	c2.209,0,4-1.791,4-4V38.632C157.632,36.423,155.841,34.632,153.632,34.632z M149.632,94.966H68.965V42.632h80.667V94.966z
	 M107.612,50.737c0.318,0.665,0.648,1.353,0.184,16.146c-0.5,15.936-1.655,17.379-2.583,18.539
	c-1.791,2.238-4.926,2.497-7.129,2.497c-1.461,0-11.736-0.668-14.309-3.583c-0.802-0.908-1.177-2.105-1.03-3.284
	c0.17-1.361,3.133-13.658,7.527-22.314c5.069-9.984,12.86-10.272,13.731-10.272C105.544,48.466,106.947,49.349,107.612,50.737z
	 M134.821,84.337c-2.573,2.915-12.848,3.583-14.309,3.583c-2.203,0-5.338-0.259-7.129-2.497c-0.862-1.078-2.881-3.602-2.793-32.969
	c0.007-2.205,1.795-3.988,4-3.988c0.872,0,8.664,0.288,13.733,10.272c4.395,8.656,7.357,20.953,7.527,22.314
	C135.998,82.231,135.623,83.429,134.821,84.337z"/>
<g>
</g>
<g>
</g>
<g>
</g>
<g>
</g>
<g>
</g>
<g>
</g>
<g>
</g>
<g>
</g>
<g>
</g>
<g>
</g>
<g>
</g>
<g>
</g>
<g>
</g>
<g>
</g>
<g>
</g>
</svg>
